<?xml version="1.0" encoding="UTF-8" standalone="no"?><svg xmlns="http://www.w3.org/2000/svg" xmlns:xlink="http://www.w3.org/1999/xlink" contentScriptType="application/ecmascript" contentStyleType="text/css" height="587px" preserveAspectRatio="none" style="width:381px;height:587px;" version="1.1" viewBox="0 0 381 587" width="381px" zoomAndPan="magnify"><defs><filter height="300%" id="fp01gcu" width="300%" x="-1" y="-1"><feGaussianBlur result="blurOut" stdDeviation="2.0"/><feColorMatrix in="blurOut" result="blurOut2" type="matrix" values="0 0 0 0 0 0 0 0 0 0 0 0 0 0 0 0 0 0 .4 0"/><feOffset dx="4.0" dy="4.0" in="blurOut2" result="blurOut3"/><feBlend in="SourceGraphic" in2="blurOut3" mode="normal"/></filter></defs><g><!--class Entity--><rect fill="#FEFECE" filter="url(#fp01gcu)" height="62.98" style="stroke: #A80036; stroke-width: 1.5;" width="63" x="203" y="161"/><ellipse cx="218" cy="177" fill="#ADD1B2" rx="11" ry="11" style="stroke: #A80036; stroke-width: 1.0;"/><path d="M215.9063,176.8438 Q215.9063,178.7188 216.4844,179.7266 Q217.0625,180.7344 218.2188,180.7344 Q219.5625,180.7344 220.2188,178.7188 L222.4844,179.1406 Q221.375,182.6719 218.2031,182.6719 Q215.8594,182.6719 214.6406,181.1875 Q213.4219,179.7031 213.4219,176.8438 Q213.4219,171.125 218.125,171.125 Q219.6719,171.125 220.7109,171.9375 Q221.75,172.75 222.25,174.3594 L219.9844,174.9063 Q219.75,174.0313 219.2656,173.5391 Q218.7813,173.0469 218.1563,173.0469 Q215.9063,173.0469 215.9063,176.8438 Z "/><text fill="#000000" font-family="sans-serif" font-size="12" lengthAdjust="spacingAndGlyphs" textLength="31" x="232" y="181.6553">Entity</text><line style="stroke: #A80036; stroke-width: 1.5;" x1="204" x2="265" y1="193" y2="193"/><line style="stroke: #A80036; stroke-width: 1.5;" x1="204" x2="265" y1="201" y2="201"/><ellipse cx="214" cy="213.99" fill="#84BE84" rx="3" ry="3" style="stroke: #038048; stroke-width: 1.0;"/><text fill="#000000" font-family="sans-serif" font-size="11" lengthAdjust="spacingAndGlyphs" textLength="24" x="223" y="216.7573">tick()</text><!--class Component--><rect fill="#FEFECE" filter="url(#fp01gcu)" height="77.96" style="stroke: #A80036; stroke-width: 1.5;" width="106" x="112.5" y="284"/><ellipse cx="132.45" cy="300" fill="#A9DCDF" rx="11" ry="11" style="stroke: #A80036; stroke-width: 1.0;"/><path d="M137.6531,304.5 L135.2156,304.5 L134.45,301.7656 L130.6688,301.7656 L129.9031,304.5 L127.45,304.5 L131.1219,293.2969 L133.9813,293.2969 L137.6531,304.5 Z M132.5594,294.8125 Q132.4813,295.1563 132.3094,295.8516 Q132.1375,296.5469 131.1844,299.9219 L133.9344,299.9219 Q132.9656,296.5 132.7938,295.8281 Q132.6219,295.1563 132.5594,294.8125 Z "/><text fill="#000000" font-family="sans-serif" font-size="12" font-style="italic" lengthAdjust="spacingAndGlyphs" textLength="63" x="147.55" y="304.6553">Component</text><line style="stroke: #A80036; stroke-width: 1.5;" x1="113.5" x2="217.5" y1="316" y2="316"/><ellipse cx="123.5" cy="328.99" fill="none" rx="3" ry="3" style="stroke: #038048; stroke-width: 1.0;"/><text fill="#000000" font-family="sans-serif" font-size="11" lengthAdjust="spacingAndGlyphs" textLength="80" x="132.5" y="331.7573">messageQueue</text><line style="stroke: #A80036; stroke-width: 1.5;" x1="113.5" x2="217.5" y1="338.98" y2="338.98"/><ellipse cx="123.5" cy="351.97" fill="#84BE84" rx="3" ry="3" style="stroke: #038048; stroke-width: 1.0;"/><text fill="#000000" font-family="sans-serif" font-size="11" lengthAdjust="spacingAndGlyphs" textLength="24" x="132.5" y="354.7373">tick()</text><!--class Game--><rect fill="#FEFECE" filter="url(#fp01gcu)" height="92.9399" style="stroke: #A80036; stroke-width: 1.5;" width="106" x="266.5" y="8"/><ellipse cx="299.5" cy="24" fill="#ADD1B2" rx="11" ry="11" style="stroke: #A80036; stroke-width: 1.0;"/><path d="M297.4063,23.8438 Q297.4063,25.7188 297.9844,26.7266 Q298.5625,27.7344 299.7188,27.7344 Q301.0625,27.7344 301.7188,25.7188 L303.9844,26.1406 Q302.875,29.6719 299.7031,29.6719 Q297.3594,29.6719 296.1406,28.1875 Q294.9219,26.7031 294.9219,23.8438 Q294.9219,18.125 299.625,18.125 Q301.1719,18.125 302.2109,18.9375 Q303.25,19.75 303.75,21.3594 L301.4844,21.9063 Q301.25,21.0313 300.7656,20.5391 Q300.2813,20.0469 299.6563,20.0469 Q297.4063,20.0469 297.4063,23.8438 Z "/><text fill="#000000" font-family="sans-serif" font-size="12" lengthAdjust="spacingAndGlyphs" textLength="34" x="317.5" y="28.6553">Game</text><line style="stroke: #A80036; stroke-width: 1.5;" x1="267.5" x2="371.5" y1="40" y2="40"/><ellipse cx="277.5" cy="52.99" fill="none" rx="3" ry="3" style="stroke: #038048; stroke-width: 1.0;"/><text fill="#000000" font-family="sans-serif" font-size="11" lengthAdjust="spacingAndGlyphs" textLength="38" x="286.5" y="55.7573">entities</text><ellipse cx="277.5" cy="67.97" fill="none" rx="3" ry="3" style="stroke: #038048; stroke-width: 1.0;"/><text fill="#000000" font-family="sans-serif" font-size="11" lengthAdjust="spacingAndGlyphs" textLength="80" x="286.5" y="70.7373">messageQueue</text><line style="stroke: #A80036; stroke-width: 1.5;" x1="267.5" x2="371.5" y1="77.96" y2="77.96"/><ellipse cx="277.5" cy="90.95" fill="#84BE84" rx="3" ry="3" style="stroke: #038048; stroke-width: 1.0;"/><text fill="#000000" font-family="sans-serif" font-size="11" lengthAdjust="spacingAndGlyphs" textLength="24" x="286.5" y="93.7173">tick()</text><!--class Attacker--><rect fill="#FEFECE" filter="url(#fp01gcu)" height="48" style="stroke: #A80036; stroke-width: 1.5;" width="79" x="126" y="422"/><ellipse cx="141" cy="438" fill="#ADD1B2" rx="11" ry="11" style="stroke: #A80036; stroke-width: 1.0;"/><path d="M138.9063,437.8438 Q138.9063,439.7188 139.4844,440.7266 Q140.0625,441.7344 141.2188,441.7344 Q142.5625,441.7344 143.2188,439.7188 L145.4844,440.1406 Q144.375,443.6719 141.2031,443.6719 Q138.8594,443.6719 137.6406,442.1875 Q136.4219,440.7031 136.4219,437.8438 Q136.4219,432.125 141.125,432.125 Q142.6719,432.125 143.7109,432.9375 Q144.75,433.75 145.25,435.3594 L142.9844,435.9063 Q142.75,435.0313 142.2656,434.5391 Q141.7813,434.0469 141.1563,434.0469 Q138.9063,434.0469 138.9063,437.8438 Z "/><text fill="#000000" font-family="sans-serif" font-size="12" lengthAdjust="spacingAndGlyphs" textLength="47" x="155" y="442.6553">Attacker</text><line style="stroke: #A80036; stroke-width: 1.5;" x1="127" x2="204" y1="454" y2="454"/><line style="stroke: #A80036; stroke-width: 1.5;" x1="127" x2="204" y1="462" y2="462"/><!--class Defender--><rect fill="#FEFECE" filter="url(#fp01gcu)" height="48" style="stroke: #A80036; stroke-width: 1.5;" width="85" x="6" y="422"/><ellipse cx="21" cy="438" fill="#ADD1B2" rx="11" ry="11" style="stroke: #A80036; stroke-width: 1.0;"/><path d="M18.9063,437.8438 Q18.9063,439.7188 19.4844,440.7266 Q20.0625,441.7344 21.2188,441.7344 Q22.5625,441.7344 23.2188,439.7188 L25.4844,440.1406 Q24.375,443.6719 21.2031,443.6719 Q18.8594,443.6719 17.6406,442.1875 Q16.4219,440.7031 16.4219,437.8438 Q16.4219,432.125 21.125,432.125 Q22.6719,432.125 23.7109,432.9375 Q24.75,433.75 25.25,435.3594 L22.9844,435.9063 Q22.75,435.0313 22.2656,434.5391 Q21.7813,434.0469 21.1563,434.0469 Q18.9063,434.0469 18.9063,437.8438 Z "/><text fill="#000000" font-family="sans-serif" font-size="12" lengthAdjust="spacingAndGlyphs" textLength="53" x="35" y="442.6553">Defender</text><line style="stroke: #A80036; stroke-width: 1.5;" x1="7" x2="90" y1="454" y2="454"/><line style="stroke: #A80036; stroke-width: 1.5;" x1="7" x2="90" y1="462" y2="462"/><!--class Message--><rect fill="#FEFECE" filter="url(#fp01gcu)" height="48" style="stroke: #A80036; stroke-width: 1.5;" width="78" x="261.5" y="299"/><ellipse cx="276.5" cy="315" fill="#A9DCDF" rx="11" ry="11" style="stroke: #A80036; stroke-width: 1.0;"/><path d="M281.7031,319.5 L279.2656,319.5 L278.5,316.7656 L274.7188,316.7656 L273.9531,319.5 L271.5,319.5 L275.1719,308.2969 L278.0313,308.2969 L281.7031,319.5 Z M276.6094,309.8125 Q276.5313,310.1563 276.3594,310.8516 Q276.1875,311.5469 275.2344,314.9219 L277.9844,314.9219 Q277.0156,311.5 276.8438,310.8281 Q276.6719,310.1563 276.6094,309.8125 Z "/><text fill="#000000" font-family="sans-serif" font-size="12" font-style="italic" lengthAdjust="spacingAndGlyphs" textLength="46" x="290.5" y="319.6553">Message</text><line style="stroke: #A80036; stroke-width: 1.5;" x1="262.5" x2="338.5" y1="331" y2="331"/><line style="stroke: #A80036; stroke-width: 1.5;" x1="262.5" x2="338.5" y1="339" y2="339"/><!--class Attack--><rect fill="#FEFECE" filter="url(#fp01gcu)" height="48" style="stroke: #A80036; stroke-width: 1.5;" width="67" x="132" y="530"/><ellipse cx="147" cy="546" fill="#ADD1B2" rx="11" ry="11" style="stroke: #A80036; stroke-width: 1.0;"/><path d="M144.9063,545.8438 Q144.9063,547.7188 145.4844,548.7266 Q146.0625,549.7344 147.2188,549.7344 Q148.5625,549.7344 149.2188,547.7188 L151.4844,548.1406 Q150.375,551.6719 147.2031,551.6719 Q144.8594,551.6719 143.6406,550.1875 Q142.4219,548.7031 142.4219,545.8438 Q142.4219,540.125 147.125,540.125 Q148.6719,540.125 149.7109,540.9375 Q150.75,541.75 151.25,543.3594 L148.9844,543.9063 Q148.75,543.0313 148.2656,542.5391 Q147.7813,542.0469 147.1563,542.0469 Q144.9063,542.0469 144.9063,545.8438 Z "/><text fill="#000000" font-family="sans-serif" font-size="12" lengthAdjust="spacingAndGlyphs" textLength="35" x="161" y="550.6553">Attack</text><line style="stroke: #A80036; stroke-width: 1.5;" x1="133" x2="198" y1="562" y2="562"/><line style="stroke: #A80036; stroke-width: 1.5;" x1="133" x2="198" y1="570" y2="570"/><!--class Presence--><rect fill="#FEFECE" filter="url(#fp01gcu)" height="48" style="stroke: #A80036; stroke-width: 1.5;" width="84" x="287.5" y="530"/><ellipse cx="302.5" cy="546" fill="#ADD1B2" rx="11" ry="11" style="stroke: #A80036; stroke-width: 1.0;"/><path d="M300.4063,545.8438 Q300.4063,547.7188 300.9844,548.7266 Q301.5625,549.7344 302.7188,549.7344 Q304.0625,549.7344 304.7188,547.7188 L306.9844,548.1406 Q305.875,551.6719 302.7031,551.6719 Q300.3594,551.6719 299.1406,550.1875 Q297.9219,548.7031 297.9219,545.8438 Q297.9219,540.125 302.625,540.125 Q304.1719,540.125 305.2109,540.9375 Q306.25,541.75 306.75,543.3594 L304.4844,543.9063 Q304.25,543.0313 303.7656,542.5391 Q303.2813,542.0469 302.6563,542.0469 Q300.4063,542.0469 300.4063,545.8438 Z "/><text fill="#000000" font-family="sans-serif" font-size="12" lengthAdjust="spacingAndGlyphs" textLength="52" x="316.5" y="550.6553">Presence</text><line style="stroke: #A80036; stroke-width: 1.5;" x1="288.5" x2="370.5" y1="562" y2="562"/><line style="stroke: #A80036; stroke-width: 1.5;" x1="288.5" x2="370.5" y1="570" y2="570"/><path d="M165.5,382.314 C165.5,396.299 165.5,410.439 165.5,421.742 " fill="none" style="stroke: #A80036; stroke-width: 1.0;"/><polygon fill="none" points="158.5,382.285,165.5,362.285,172.5,382.285,158.5,382.285" style="stroke: #A80036; stroke-width: 1.0;"/><path d="M114.289,376.962 C99.1342,392.635 83.3162,408.993 70.9895,421.742 " fill="none" style="stroke: #A80036; stroke-width: 1.0;"/><polygon fill="none" points="109.546,371.797,128.48,362.285,119.61,381.529,109.546,371.797" style="stroke: #A80036; stroke-width: 1.0;"/><path d="M315.327,114.029 C311.19,172.062 305.06,258.039 302.15,298.862 " fill="none" style="stroke: #A80036; stroke-width: 1.0;"/><polygon fill="#FFFFFF" points="316.255,101.01,311.8385,106.7104,315.4018,112.9796,319.8183,107.2792,316.255,101.01" style="stroke: #A80036; stroke-width: 1.0;"/><path d="M250.309,224.279 C261.229,245.54 275.633,273.585 286.209,294.176 " fill="none" style="stroke: #A80036; stroke-width: 1.0;"/><polygon fill="#A80036" points="288.54,298.713,287.9872,288.8797,286.2561,294.2651,280.8706,292.534,288.54,298.713" style="stroke: #A80036; stroke-width: 1.0;"/><path d="M211.618,236.113 C203.374,251.466 194.128,268.685 186.091,283.652 " fill="none" style="stroke: #A80036; stroke-width: 1.0;"/><polygon fill="#A80036" points="217.973,224.279,211.6104,227.6727,212.2959,234.8512,218.6585,231.4574,217.973,224.279" style="stroke: #A80036; stroke-width: 1.0;"/><text fill="#000000" font-family="sans-serif" font-size="13" lengthAdjust="spacingAndGlyphs" textLength="7" x="207.1554" y="245.9212">1</text><text fill="#000000" font-family="sans-serif" font-size="13" lengthAdjust="spacingAndGlyphs" textLength="7" x="182.1353" y="272.0903">*</text><path d="M283.917,112.433 C273.568,128.991 262.658,146.447 253.729,160.734 " fill="none" style="stroke: #A80036; stroke-width: 1.0;"/><polygon fill="#A80036" points="290.96,101.164,284.388,104.1321,284.6001,111.3401,291.1721,108.372,290.96,101.164" style="stroke: #A80036; stroke-width: 1.0;"/><text fill="#000000" font-family="sans-serif" font-size="13" lengthAdjust="spacingAndGlyphs" textLength="7" x="279.4544" y="122.8702">1</text><text fill="#000000" font-family="sans-serif" font-size="13" lengthAdjust="spacingAndGlyphs" textLength="7" x="249.9731" y="149.3988">*</text><path d="M279.978,365.321 C264.897,394.936 243.462,435.518 222.5,470 C209.878,490.7624 194.158,513.4478 182.426,529.8468 " fill="none" style="stroke: #A80036; stroke-width: 1.0;"/><polygon fill="none" points="273.859,361.909,289.111,347.2,286.361,368.21,273.859,361.909" style="stroke: #A80036; stroke-width: 1.0;"/><path d="M305.965,367.155 C312.07,415.362 321.727,491.6176 326.552,529.7206 " fill="none" style="stroke: #A80036; stroke-width: 1.0;"/><polygon fill="none" points="299.008,367.939,303.44,347.218,312.898,366.18,299.008,367.939" style="stroke: #A80036; stroke-width: 1.0;"/><path d="M329.118,101.191 C338.262,147.131 351.361,220.108 356.5,284 C359.28,318.555 358.733,327.405 356.5,362 C353.382,410.301 349.357,422.086 342.5,470 C339.901,488.1607 336.718,508.5124 334.152,524.5179 " fill="none" style="stroke: #A80036; stroke-width: 1.0;"/><polygon fill="#A80036" points="333.307,529.7698,338.6855,521.5193,334.101,524.8333,330.787,520.2488,333.307,529.7698" style="stroke: #A80036; stroke-width: 1.0;"/><path d="M201.086,470 C227.108,486.8195 262.428,509.6485 289.44,527.1075 " fill="none" style="stroke: #A80036; stroke-width: 1.0;"/><polygon fill="#A80036" points="293.701,529.8617,288.314,521.6167,289.5019,527.1474,283.9711,528.3353,293.701,529.8617" style="stroke: #A80036; stroke-width: 1.0;"/><path d="M165.5,470 C165.5,486.003 165.5,507.4461 165.5,524.528 " fill="none" style="stroke: #A80036; stroke-width: 1.0;"/><polygon fill="#A80036" points="165.5,529.6784,169.5,520.6784,165.5,524.6784,161.5,520.6784,165.5,529.6784" style="stroke: #A80036; stroke-width: 1.0;"/><path d="M73.8873,470 C92.1595,486.5548 116.858,508.9314 136.006,526.2791 " fill="none" style="stroke: #A80036; stroke-width: 1.0;"/><polygon fill="#A80036" points="139.758,529.6784,135.774,520.6713,136.0526,526.3213,130.4026,526.5999,139.758,529.6784" style="stroke: #A80036; stroke-width: 1.0;"/></g></svg>