<?xml version="1.0" encoding="UTF-8" standalone="yes"?><svg xmlns="http://www.w3.org/2000/svg" xmlns:xlink="http://www.w3.org/1999/xlink" height="574px" style="width:396px;height:574px;" version="1.1" viewBox="0 0 396 574" width="396px"><defs><filter height="300%" id="f1" width="300%" x="-1" y="-1"><feGaussianBlur result="blurOut" stdDeviation="2.0"/><feColorMatrix in="blurOut" result="blurOut2" type="matrix" values="0 0 0 0 0 0 0 0 0 0 0 0 0 0 0 0 0 0 .4 0"/><feOffset dx="4.0" dy="4.0" in="blurOut2" result="blurOut3"/><feBlend in="SourceGraphic" in2="blurOut3" mode="normal"/></filter></defs><g><rect fill="#FEFECE" filter="url(#f1)" height="60.8047" style="stroke: #A80036; stroke-width: 1.5;" width="67" x="208.5" y="154"/><ellipse cx="223.5" cy="170" fill="#ADD1B2" rx="11" ry="11" style="stroke: #A80036; stroke-width: 1.0;"/><path d="M226.4688,175.6406 Q225.8906,175.9375 225.25,176.0859 Q224.6094,176.2344 223.9063,176.2344 Q221.4063,176.2344 220.0859,174.5859 Q218.7656,172.9375 218.7656,169.8125 Q218.7656,166.6875 220.0859,165.0313 Q221.4063,163.375 223.9063,163.375 Q224.6094,163.375 225.2578,163.5313 Q225.9063,163.6875 226.4688,163.9844 L226.4688,166.7031 Q225.8438,166.125 225.25,165.8516 Q224.6563,165.5781 224.0313,165.5781 Q222.6875,165.5781 222,166.6484 Q221.3125,167.7188 221.3125,169.8125 Q221.3125,171.9063 222,172.9766 Q222.6875,174.0469 224.0313,174.0469 Q224.6563,174.0469 225.25,173.7734 Q225.8438,173.5 226.4688,172.9219 L226.4688,175.6406 Z "/><text fill="#000000" font-family="sans-serif" font-size="12" lengthAdjust="spacingAndGlyphs" textLength="35" x="237.5" y="174.1543">Entity</text><line style="stroke: #A80036; stroke-width: 1.5;" x1="209.5" x2="274.5" y1="186" y2="186"/><line style="stroke: #A80036; stroke-width: 1.5;" x1="209.5" x2="274.5" y1="194" y2="194"/><ellipse cx="219.5" cy="205.9023" fill="#84BE84" rx="3" ry="3" style="stroke: #038048; stroke-width: 1.0;"/><text fill="#000000" font-family="sans-serif" font-size="11" lengthAdjust="spacingAndGlyphs" textLength="27" x="228.5" y="208.2104">tick()</text><rect fill="#FEFECE" filter="url(#f1)" height="73.6094" style="stroke: #A80036; stroke-width: 1.5;" width="116" x="116" y="275"/><ellipse cx="136.4" cy="291" fill="#A9DCDF" rx="11" ry="11" style="stroke: #A80036; stroke-width: 1.0;"/><path d="M136.5094,286.3438 L135.3531,291.4219 L137.6813,291.4219 L136.5094,286.3438 Z M135.025,284.1094 L138.0094,284.1094 L141.3688,296.5 L138.9156,296.5 L138.15,293.4375 L134.8688,293.4375 L134.1188,296.5 L131.6813,296.5 L135.025,284.1094 Z "/><text fill="#000000" font-family="sans-serif" font-size="12" font-style="italic" lengthAdjust="spacingAndGlyphs" textLength="72" x="151.6" y="295.1543">Component</text><line style="stroke: #A80036; stroke-width: 1.5;" x1="117" x2="231" y1="307" y2="307"/><ellipse cx="127" cy="318.9023" fill="none" rx="3" ry="3" style="stroke: #038048; stroke-width: 1.0;"/><text fill="#000000" font-family="sans-serif" font-size="11" lengthAdjust="spacingAndGlyphs" textLength="90" x="136" y="321.2104">messageQueue</text><line style="stroke: #A80036; stroke-width: 1.5;" x1="117" x2="231" y1="327.8047" y2="327.8047"/><ellipse cx="127" cy="339.707" fill="#84BE84" rx="3" ry="3" style="stroke: #038048; stroke-width: 1.0;"/><text fill="#000000" font-family="sans-serif" font-size="11" lengthAdjust="spacingAndGlyphs" textLength="27" x="136" y="342.0151">tick()</text><rect fill="#FEFECE" filter="url(#f1)" height="86.4141" style="stroke: #A80036; stroke-width: 1.5;" width="116" x="271" y="8"/><ellipse cx="307.6" cy="24" fill="#ADD1B2" rx="11" ry="11" style="stroke: #A80036; stroke-width: 1.0;"/><path d="M310.5688,29.6406 Q309.9906,29.9375 309.35,30.0859 Q308.7094,30.2344 308.0063,30.2344 Q305.5063,30.2344 304.1859,28.5859 Q302.8656,26.9375 302.8656,23.8125 Q302.8656,20.6875 304.1859,19.0313 Q305.5063,17.375 308.0063,17.375 Q308.7094,17.375 309.3578,17.5313 Q310.0063,17.6875 310.5688,17.9844 L310.5688,20.7031 Q309.9438,20.125 309.35,19.8516 Q308.7563,19.5781 308.1313,19.5781 Q306.7875,19.5781 306.1,20.6484 Q305.4125,21.7188 305.4125,23.8125 Q305.4125,25.9063 306.1,26.9766 Q306.7875,28.0469 308.1313,28.0469 Q308.7563,28.0469 309.35,27.7734 Q309.9438,27.5 310.5688,26.9219 L310.5688,29.6406 Z "/><text fill="#000000" font-family="sans-serif" font-size="12" lengthAdjust="spacingAndGlyphs" textLength="36" x="326.4" y="28.1543">Game</text><line style="stroke: #A80036; stroke-width: 1.5;" x1="272" x2="386" y1="40" y2="40"/><ellipse cx="282" cy="51.9023" fill="none" rx="3" ry="3" style="stroke: #038048; stroke-width: 1.0;"/><text fill="#000000" font-family="sans-serif" font-size="11" lengthAdjust="spacingAndGlyphs" textLength="42" x="291" y="54.2104">entities</text><ellipse cx="282" cy="64.707" fill="none" rx="3" ry="3" style="stroke: #038048; stroke-width: 1.0;"/><text fill="#000000" font-family="sans-serif" font-size="11" lengthAdjust="spacingAndGlyphs" textLength="90" x="291" y="67.0151">messageQueue</text><line style="stroke: #A80036; stroke-width: 1.5;" x1="272" x2="386" y1="73.6094" y2="73.6094"/><ellipse cx="282" cy="85.5117" fill="#84BE84" rx="3" ry="3" style="stroke: #038048; stroke-width: 1.0;"/><text fill="#000000" font-family="sans-serif" font-size="11" lengthAdjust="spacingAndGlyphs" textLength="27" x="291" y="87.8198">tick()</text><rect fill="#FEFECE" filter="url(#f1)" height="48" style="stroke: #A80036; stroke-width: 1.5;" width="85" x="131.5" y="409"/><ellipse cx="146.5" cy="425" fill="#ADD1B2" rx="11" ry="11" style="stroke: #A80036; stroke-width: 1.0;"/><path d="M149.4688,430.6406 Q148.8906,430.9375 148.25,431.0859 Q147.6094,431.2344 146.9063,431.2344 Q144.4063,431.2344 143.0859,429.5859 Q141.7656,427.9375 141.7656,424.8125 Q141.7656,421.6875 143.0859,420.0313 Q144.4063,418.375 146.9063,418.375 Q147.6094,418.375 148.2578,418.5313 Q148.9063,418.6875 149.4688,418.9844 L149.4688,421.7031 Q148.8438,421.125 148.25,420.8516 Q147.6563,420.5781 147.0313,420.5781 Q145.6875,420.5781 145,421.6484 Q144.3125,422.7188 144.3125,424.8125 Q144.3125,426.9063 145,427.9766 Q145.6875,429.0469 147.0313,429.0469 Q147.6563,429.0469 148.25,428.7734 Q148.8438,428.5 149.4688,427.9219 L149.4688,430.6406 Z "/><text fill="#000000" font-family="sans-serif" font-size="12" lengthAdjust="spacingAndGlyphs" textLength="53" x="160.5" y="429.1543">Attacker</text><line style="stroke: #A80036; stroke-width: 1.5;" x1="132.5" x2="215.5" y1="441" y2="441"/><line style="stroke: #A80036; stroke-width: 1.5;" x1="132.5" x2="215.5" y1="449" y2="449"/><rect fill="#FEFECE" filter="url(#f1)" height="48" style="stroke: #A80036; stroke-width: 1.5;" width="90" x="6" y="409"/><ellipse cx="21" cy="425" fill="#ADD1B2" rx="11" ry="11" style="stroke: #A80036; stroke-width: 1.0;"/><path d="M23.9688,430.6406 Q23.3906,430.9375 22.75,431.0859 Q22.1094,431.2344 21.4063,431.2344 Q18.9063,431.2344 17.5859,429.5859 Q16.2656,427.9375 16.2656,424.8125 Q16.2656,421.6875 17.5859,420.0313 Q18.9063,418.375 21.4063,418.375 Q22.1094,418.375 22.7578,418.5313 Q23.4063,418.6875 23.9688,418.9844 L23.9688,421.7031 Q23.3438,421.125 22.75,420.8516 Q22.1563,420.5781 21.5313,420.5781 Q20.1875,420.5781 19.5,421.6484 Q18.8125,422.7188 18.8125,424.8125 Q18.8125,426.9063 19.5,427.9766 Q20.1875,429.0469 21.5313,429.0469 Q22.1563,429.0469 22.75,428.7734 Q23.3438,428.5 23.9688,427.9219 L23.9688,430.6406 Z "/><text fill="#000000" font-family="sans-serif" font-size="12" lengthAdjust="spacingAndGlyphs" textLength="58" x="35" y="429.1543">Defender</text><line style="stroke: #A80036; stroke-width: 1.5;" x1="7" x2="95" y1="441" y2="441"/><line style="stroke: #A80036; stroke-width: 1.5;" x1="7" x2="95" y1="449" y2="449"/><rect fill="#FEFECE" filter="url(#f1)" height="48" style="stroke: #A80036; stroke-width: 1.5;" width="86" x="270" y="288"/><ellipse cx="285" cy="304" fill="#A9DCDF" rx="11" ry="11" style="stroke: #A80036; stroke-width: 1.0;"/><path d="M285.1094,299.3438 L283.9531,304.4219 L286.2813,304.4219 L285.1094,299.3438 Z M283.625,297.1094 L286.6094,297.1094 L289.9688,309.5 L287.5156,309.5 L286.75,306.4375 L283.4688,306.4375 L282.7188,309.5 L280.2813,309.5 L283.625,297.1094 Z "/><text fill="#000000" font-family="sans-serif" font-size="12" font-style="italic" lengthAdjust="spacingAndGlyphs" textLength="54" x="299" y="308.1543">Message</text><line style="stroke: #A80036; stroke-width: 1.5;" x1="271" x2="355" y1="320" y2="320"/><line style="stroke: #A80036; stroke-width: 1.5;" x1="271" x2="355" y1="328" y2="328"/><rect fill="#FEFECE" filter="url(#f1)" height="48" style="stroke: #A80036; stroke-width: 1.5;" width="72" x="138" y="517"/><ellipse cx="153" cy="533" fill="#ADD1B2" rx="11" ry="11" style="stroke: #A80036; stroke-width: 1.0;"/><path d="M155.9688,538.6406 Q155.3906,538.9375 154.75,539.0859 Q154.1094,539.2344 153.4063,539.2344 Q150.9063,539.2344 149.5859,537.5859 Q148.2656,535.9375 148.2656,532.8125 Q148.2656,529.6875 149.5859,528.0313 Q150.9063,526.375 153.4063,526.375 Q154.1094,526.375 154.7578,526.5313 Q155.4063,526.6875 155.9688,526.9844 L155.9688,529.7031 Q155.3438,529.125 154.75,528.8516 Q154.1563,528.5781 153.5313,528.5781 Q152.1875,528.5781 151.5,529.6484 Q150.8125,530.7188 150.8125,532.8125 Q150.8125,534.9063 151.5,535.9766 Q152.1875,537.0469 153.5313,537.0469 Q154.1563,537.0469 154.75,536.7734 Q155.3438,536.5 155.9688,535.9219 L155.9688,538.6406 Z "/><text fill="#000000" font-family="sans-serif" font-size="12" lengthAdjust="spacingAndGlyphs" textLength="40" x="167" y="537.1543">Attack</text><line style="stroke: #A80036; stroke-width: 1.5;" x1="139" x2="209" y1="549" y2="549"/><line style="stroke: #A80036; stroke-width: 1.5;" x1="139" x2="209" y1="557" y2="557"/><rect fill="#FEFECE" filter="url(#f1)" height="48" style="stroke: #A80036; stroke-width: 1.5;" width="91" x="295.5" y="517"/><ellipse cx="310.5" cy="533" fill="#ADD1B2" rx="11" ry="11" style="stroke: #A80036; stroke-width: 1.0;"/><path d="M313.4688,538.6406 Q312.8906,538.9375 312.25,539.0859 Q311.6094,539.2344 310.9063,539.2344 Q308.4063,539.2344 307.0859,537.5859 Q305.7656,535.9375 305.7656,532.8125 Q305.7656,529.6875 307.0859,528.0313 Q308.4063,526.375 310.9063,526.375 Q311.6094,526.375 312.2578,526.5313 Q312.9063,526.6875 313.4688,526.9844 L313.4688,529.7031 Q312.8438,529.125 312.25,528.8516 Q311.6563,528.5781 311.0313,528.5781 Q309.6875,528.5781 309,529.6484 Q308.3125,530.7188 308.3125,532.8125 Q308.3125,534.9063 309,535.9766 Q309.6875,537.0469 311.0313,537.0469 Q311.6563,537.0469 312.25,536.7734 Q312.8438,536.5 313.4688,535.9219 L313.4688,538.6406 Z "/><text fill="#000000" font-family="sans-serif" font-size="12" lengthAdjust="spacingAndGlyphs" textLength="59" x="324.5" y="537.1543">Presence</text><line style="stroke: #A80036; stroke-width: 1.5;" x1="296.5" x2="385.5" y1="549" y2="549"/><line style="stroke: #A80036; stroke-width: 1.5;" x1="296.5" x2="385.5" y1="557" y2="557"/><path d="M174,369.068 C174,383.123 174,397.434 174,408.85 " fill="none" style="stroke: #A80036; stroke-width: 1.0;"/><polygon fill="none" points="167,369.027,174,349.027,181,369.027,167,369.027" style="stroke: #A80036; stroke-width: 1.0;"/><path d="M122.355,362.966 C105.8829,378.902 88.4428,395.775 74.9277,408.85 " fill="none" style="stroke: #A80036; stroke-width: 1.0;"/><polygon fill="none" points="117.521,357.902,136.762,349.027,127.255,367.964,117.521,357.902" style="stroke: #A80036; stroke-width: 1.0;"/><path d="M325.575,107.449 C322.111,163.518 316.924,247.482 314.434,287.785 " fill="none" style="stroke: #A80036; stroke-width: 1.0;"/><polygon fill="none" points="326.394,94.189,322.0317,99.931,325.6542,106.1662,330.0165,100.4242,326.394,94.189" style="stroke: #A80036; stroke-width: 1.0;"/><path d="M258.826,215.242 C270.492,235.862 285.919,263.131 297.326,283.294 " fill="none" style="stroke: #A80036; stroke-width: 1.0;"/><polygon fill="#A80036" points="299.842,287.741,298.8938,277.9379,297.3809,283.3887,291.9301,281.8757,299.842,287.741" style="stroke: #A80036; stroke-width: 1.0;"/><path d="M219.457,227.106 C211.106,242.518 201.711,259.858 193.638,274.755 " fill="none" style="stroke: #A80036; stroke-width: 1.0;"/><polygon fill="#A80036" points="225.885,215.242,219.5098,218.6119,220.1685,225.7929,226.5437,222.423,225.885,215.242" style="stroke: #A80036; stroke-width: 1.0;"/><text fill="#000000" font-family="sans-serif" font-size="13" lengthAdjust="spacingAndGlyphs" textLength="8" x="213.9249" y="234.8701">1</text><text fill="#000000" font-family="sans-serif" font-size="13" lengthAdjust="spacingAndGlyphs" textLength="7" x="189.5126" y="263.8983">*</text><path d="M293.602,105.503 C282.713,121.962 271.122,139.483 261.689,153.74 " fill="none" style="stroke: #A80036; stroke-width: 1.0;"/><polygon fill="#A80036" points="300.994,94.331,294.3474,97.1278,294.3726,104.3389,301.0193,101.5421,300.994,94.331" style="stroke: #A80036; stroke-width: 1.0;"/><text fill="#000000" font-family="sans-serif" font-size="13" lengthAdjust="spacingAndGlyphs" textLength="8" x="287.893" y="114.4767">1</text><text fill="#000000" font-family="sans-serif" font-size="13" lengthAdjust="spacingAndGlyphs" textLength="7" x="258.028" y="142.9496">*</text><path d="M292.185,354.112 C276.966,383.348 255.338,423.255 234,457 C220.791,477.8891 204.237,500.5636 191.865,516.9263 " fill="none" style="stroke: #A80036; stroke-width: 1.0;"/><polygon fill="none" points="286.027,350.78,301.403,336.2,298.476,357.186,286.027,350.78" style="stroke: #A80036; stroke-width: 1.0;"/><path d="M318.317,356.102 C324.213,403.904 333.505,479.2387 338.154,516.9239 " fill="none" style="stroke: #A80036; stroke-width: 1.0;"/><polygon fill="none" points="311.34,356.722,315.839,336.015,325.235,355.008,311.34,356.722" style="stroke: #A80036; stroke-width: 1.0;"/><path d="M341.433,94.1 C356.957,151.481 380.606,257.575 373,349 C368.151,407.282 355.118,474.5438 347.261,511.6742 " fill="none" style="stroke: #A80036; stroke-width: 1.0;"/><polygon fill="#A80036" points="346.141,516.9291,351.9293,508.9607,347.1833,512.0389,344.1051,507.293,346.141,516.9291" style="stroke: #A80036; stroke-width: 1.0;"/><path d="M210.237,457 C236.734,473.8195 272.701,496.6485 300.207,514.1075 " fill="none" style="stroke: #A80036; stroke-width: 1.0;"/><polygon fill="#A80036" points="304.546,516.8617,299.0917,508.661,300.3248,514.1819,294.804,515.4149,304.546,516.8617" style="stroke: #A80036; stroke-width: 1.0;"/><path d="M174,457 C174,473.003 174,494.4461 174,511.528 " fill="none" style="stroke: #A80036; stroke-width: 1.0;"/><polygon fill="#A80036" points="174,516.6784,178,507.6784,174,511.6784,170,507.6784,174,516.6784" style="stroke: #A80036; stroke-width: 1.0;"/><path d="M77.6892,457 C96.8985,473.5548 122.864,495.9314 142.994,513.2791 " fill="none" style="stroke: #A80036; stroke-width: 1.0;"/><polygon fill="#A80036" points="146.938,516.6784,142.7317,507.7729,143.1505,513.4143,137.5091,513.833,146.938,516.6784" style="stroke: #A80036; stroke-width: 1.0;"/></g></svg>