<?xml version="1.0" encoding="UTF-8" standalone="no"?><svg xmlns="http://www.w3.org/2000/svg" xmlns:xlink="http://www.w3.org/1999/xlink" contentScriptType="application/ecmascript" contentStyleType="text/css" height="349px" preserveAspectRatio="none" style="width:134px;height:349px;" version="1.1" viewBox="0 0 134 349" width="134px" zoomAndPan="magnify"><defs><filter height="300%" id="f9nl43x" width="300%" x="-1" y="-1"><feGaussianBlur result="blurOut" stdDeviation="2.0"/><feColorMatrix in="blurOut" result="blurOut2" type="matrix" values="0 0 0 0 0 0 0 0 0 0 0 0 0 0 0 0 0 0 .4 0"/><feOffset dx="4.0" dy="4.0" in="blurOut2" result="blurOut3"/><feBlend in="SourceGraphic" in2="blurOut3" mode="normal"/></filter></defs><g><!--class Enemy--><rect fill="#FEFECE" filter="url(#f9nl43x)" height="62.98" style="stroke: #A80036; stroke-width: 1.5;" width="109" x="11" y="8"/><ellipse cx="43.55" cy="24" fill="#ADD1B2" rx="11" ry="11" style="stroke: #A80036; stroke-width: 1.0;"/><path d="M41.4563,23.8438 Q41.4563,25.7188 42.0344,26.7266 Q42.6125,27.7344 43.7688,27.7344 Q45.1125,27.7344 45.7688,25.7188 L48.0344,26.1406 Q46.925,29.6719 43.7531,29.6719 Q41.4094,29.6719 40.1906,28.1875 Q38.9719,26.7031 38.9719,23.8438 Q38.9719,18.125 43.675,18.125 Q45.2219,18.125 46.2609,18.9375 Q47.3,19.75 47.8,21.3594 L45.5344,21.9063 Q45.3,21.0313 44.8156,20.5391 Q44.3313,20.0469 43.7063,20.0469 Q41.4563,20.0469 41.4563,23.8438 Z "/><text fill="#000000" font-family="sans-serif" font-size="12" lengthAdjust="spacingAndGlyphs" textLength="38" x="61.45" y="28.6553">Enemy</text><line style="stroke: #A80036; stroke-width: 1.5;" x1="12" x2="119" y1="40" y2="40"/><rect fill="none" height="6" style="stroke: #C82930; stroke-width: 1.0;" width="6" x="19" y="49.99"/><text fill="#000000" font-family="sans-serif" font-size="11" lengthAdjust="spacingAndGlyphs" textLength="83" x="31" y="55.7573">Player objective</text><line style="stroke: #A80036; stroke-width: 1.5;" x1="12" x2="119" y1="62.98" y2="62.98"/><!--class Player--><rect fill="#FEFECE" filter="url(#f9nl43x)" height="62.98" style="stroke: #A80036; stroke-width: 1.5;" width="119" x="6" y="150"/><ellipse cx="44.4" cy="166" fill="#ADD1B2" rx="11" ry="11" style="stroke: #A80036; stroke-width: 1.0;"/><path d="M42.3063,165.8438 Q42.3063,167.7188 42.8844,168.7266 Q43.4625,169.7344 44.6188,169.7344 Q45.9625,169.7344 46.6188,167.7188 L48.8844,168.1406 Q47.775,171.6719 44.6031,171.6719 Q42.2594,171.6719 41.0406,170.1875 Q39.8219,168.7031 39.8219,165.8438 Q39.8219,160.125 44.525,160.125 Q46.0719,160.125 47.1109,160.9375 Q48.15,161.75 48.65,163.3594 L46.3844,163.9063 Q46.15,163.0313 45.6656,162.5391 Q45.1813,162.0469 44.5563,162.0469 Q42.3063,162.0469 42.3063,165.8438 Z "/><text fill="#000000" font-family="sans-serif" font-size="12" lengthAdjust="spacingAndGlyphs" textLength="35" x="63.6" y="170.6553">Player</text><line style="stroke: #A80036; stroke-width: 1.5;" x1="7" x2="124" y1="182" y2="182"/><rect fill="none" height="6" style="stroke: #C82930; stroke-width: 1.0;" width="6" x="14" y="191.99"/><text fill="#000000" font-family="sans-serif" font-size="11" lengthAdjust="spacingAndGlyphs" textLength="93" x="26" y="197.7573">Weapon objective</text><line style="stroke: #A80036; stroke-width: 1.5;" x1="7" x2="124" y1="204.98" y2="204.98"/><!--class Weapon--><rect fill="#FEFECE" filter="url(#f9nl43x)" height="48" style="stroke: #A80036; stroke-width: 1.5;" width="78" x="26.5" y="292"/><ellipse cx="41.5" cy="308" fill="#ADD1B2" rx="11" ry="11" style="stroke: #A80036; stroke-width: 1.0;"/><path d="M39.4063,307.8438 Q39.4063,309.7188 39.9844,310.7266 Q40.5625,311.7344 41.7188,311.7344 Q43.0625,311.7344 43.7188,309.7188 L45.9844,310.1406 Q44.875,313.6719 41.7031,313.6719 Q39.3594,313.6719 38.1406,312.1875 Q36.9219,310.7031 36.9219,307.8438 Q36.9219,302.125 41.625,302.125 Q43.1719,302.125 44.2109,302.9375 Q45.25,303.75 45.75,305.3594 L43.4844,305.9063 Q43.25,305.0313 42.7656,304.5391 Q42.2813,304.0469 41.6563,304.0469 Q39.4063,304.0469 39.4063,307.8438 Z "/><text fill="#000000" font-family="sans-serif" font-size="12" lengthAdjust="spacingAndGlyphs" textLength="46" x="55.5" y="312.6553">Weapon</text><line style="stroke: #A80036; stroke-width: 1.5;" x1="27.5" x2="103.5" y1="324" y2="324"/><line style="stroke: #A80036; stroke-width: 1.5;" x1="27.5" x2="103.5" y1="332" y2="332"/><path d="M65.5,213.231 C65.5,235.455 65.5,265.2485 65.5,286.8525 " fill="none" style="stroke: #A80036; stroke-width: 1.0;"/><polygon fill="#A80036" points="65.5,291.8824,69.5,282.8824,65.5,286.8824,61.5,282.8824,65.5,291.8824" style="stroke: #A80036; stroke-width: 1.0;"/><text fill="#000000" font-family="sans-serif" font-size="13" lengthAdjust="spacingAndGlyphs" textLength="22" x="66.5" y="257.895">uso</text><path d="M65.5,71.224 C65.5,92.925 65.5,122.072 65.5,144.806 " fill="none" style="stroke: #A80036; stroke-width: 1.0;"/><polygon fill="#A80036" points="65.5,149.848,69.5,140.848,65.5,144.848,61.5,140.848,65.5,149.848" style="stroke: #A80036; stroke-width: 1.0;"/><text fill="#000000" font-family="sans-serif" font-size="13" lengthAdjust="spacingAndGlyphs" textLength="22" x="66.5" y="115.895">uso</text></g></svg>