<?xml version="1.0" encoding="UTF-8" standalone="yes"?><svg xmlns="http://www.w3.org/2000/svg" xmlns:xlink="http://www.w3.org/1999/xlink" height="341px" style="width:139px;height:341px;" version="1.1" viewBox="0 0 139 341" width="139px"><defs><filter height="300%" id="f1" width="300%" x="-1" y="-1"><feGaussianBlur result="blurOut" stdDeviation="2.0"/><feColorMatrix in="blurOut" result="blurOut2" type="matrix" values="0 0 0 0 0 0 0 0 0 0 0 0 0 0 0 0 0 0 .4 0"/><feOffset dx="4.0" dy="4.0" in="blurOut2" result="blurOut3"/><feBlend in="SourceGraphic" in2="blurOut3" mode="normal"/></filter></defs><g><rect fill="#FEFECE" filter="url(#f1)" height="60.8047" style="stroke: #A80036; stroke-width: 1.5;" width="115" x="10.5" y="8"/><ellipse cx="44.4" cy="24" fill="#ADD1B2" rx="11" ry="11" style="stroke: #A80036; stroke-width: 1.0;"/><path d="M47.3688,29.6406 Q46.7906,29.9375 46.15,30.0859 Q45.5094,30.2344 44.8063,30.2344 Q42.3063,30.2344 40.9859,28.5859 Q39.6656,26.9375 39.6656,23.8125 Q39.6656,20.6875 40.9859,19.0313 Q42.3063,17.375 44.8063,17.375 Q45.5094,17.375 46.1578,17.5313 Q46.8063,17.6875 47.3688,17.9844 L47.3688,20.7031 Q46.7438,20.125 46.15,19.8516 Q45.5563,19.5781 44.9313,19.5781 Q43.5875,19.5781 42.9,20.6484 Q42.2125,21.7188 42.2125,23.8125 Q42.2125,25.9063 42.9,26.9766 Q43.5875,28.0469 44.9313,28.0469 Q45.5563,28.0469 46.15,27.7734 Q46.7438,27.5 47.3688,26.9219 L47.3688,29.6406 Z "/><text fill="#000000" font-family="sans-serif" font-size="12" lengthAdjust="spacingAndGlyphs" textLength="41" x="62.6" y="28.1543">Enemy</text><line style="stroke: #A80036; stroke-width: 1.5;" x1="11.5" x2="124.5" y1="40" y2="40"/><rect fill="none" height="6" style="stroke: #C82930; stroke-width: 1.0;" width="6" x="18.5" y="48.9023"/><text fill="#000000" font-family="sans-serif" font-size="11" lengthAdjust="spacingAndGlyphs" textLength="89" x="30.5" y="54.2104">Player objective</text><line style="stroke: #A80036; stroke-width: 1.5;" x1="11.5" x2="124.5" y1="60.8047" y2="60.8047"/><rect fill="#FEFECE" filter="url(#f1)" height="60.8047" style="stroke: #A80036; stroke-width: 1.5;" width="124" x="6" y="146"/><ellipse cx="45.3" cy="162" fill="#ADD1B2" rx="11" ry="11" style="stroke: #A80036; stroke-width: 1.0;"/><path d="M48.2688,167.6406 Q47.6906,167.9375 47.05,168.0859 Q46.4094,168.2344 45.7063,168.2344 Q43.2063,168.2344 41.8859,166.5859 Q40.5656,164.9375 40.5656,161.8125 Q40.5656,158.6875 41.8859,157.0313 Q43.2063,155.375 45.7063,155.375 Q46.4094,155.375 47.0578,155.5313 Q47.7063,155.6875 48.2688,155.9844 L48.2688,158.7031 Q47.6438,158.125 47.05,157.8516 Q46.4563,157.5781 45.8313,157.5781 Q44.4875,157.5781 43.8,158.6484 Q43.1125,159.7188 43.1125,161.8125 Q43.1125,163.9063 43.8,164.9766 Q44.4875,166.0469 45.8313,166.0469 Q46.4563,166.0469 47.05,165.7734 Q47.6438,165.5 48.2688,164.9219 L48.2688,167.6406 Z "/><text fill="#000000" font-family="sans-serif" font-size="12" lengthAdjust="spacingAndGlyphs" textLength="38" x="64.7" y="166.1543">Player</text><line style="stroke: #A80036; stroke-width: 1.5;" x1="7" x2="129" y1="178" y2="178"/><rect fill="none" height="6" style="stroke: #C82930; stroke-width: 1.0;" width="6" x="14" y="186.9023"/><text fill="#000000" font-family="sans-serif" font-size="11" lengthAdjust="spacingAndGlyphs" textLength="98" x="26" y="192.2104">Weapon objective</text><line style="stroke: #A80036; stroke-width: 1.5;" x1="7" x2="129" y1="198.8047" y2="198.8047"/><rect fill="#FEFECE" filter="url(#f1)" height="48" style="stroke: #A80036; stroke-width: 1.5;" width="83" x="26.5" y="284"/><ellipse cx="41.5" cy="300" fill="#ADD1B2" rx="11" ry="11" style="stroke: #A80036; stroke-width: 1.0;"/><path d="M44.4688,305.6406 Q43.8906,305.9375 43.25,306.0859 Q42.6094,306.2344 41.9063,306.2344 Q39.4063,306.2344 38.0859,304.5859 Q36.7656,302.9375 36.7656,299.8125 Q36.7656,296.6875 38.0859,295.0313 Q39.4063,293.375 41.9063,293.375 Q42.6094,293.375 43.2578,293.5313 Q43.9063,293.6875 44.4688,293.9844 L44.4688,296.7031 Q43.8438,296.125 43.25,295.8516 Q42.6563,295.5781 42.0313,295.5781 Q40.6875,295.5781 40,296.6484 Q39.3125,297.7188 39.3125,299.8125 Q39.3125,301.9063 40,302.9766 Q40.6875,304.0469 42.0313,304.0469 Q42.6563,304.0469 43.25,303.7734 Q43.8438,303.5 44.4688,302.9219 L44.4688,305.6406 Z "/><text fill="#000000" font-family="sans-serif" font-size="12" lengthAdjust="spacingAndGlyphs" textLength="51" x="55.5" y="304.1543">Weapon</text><line style="stroke: #A80036; stroke-width: 1.5;" x1="27.5" x2="108.5" y1="316" y2="316"/><line style="stroke: #A80036; stroke-width: 1.5;" x1="27.5" x2="108.5" y1="324" y2="324"/><path d="M68,207.21 C68,228.688 68,257.5266 68,278.678 " fill="none" style="stroke: #A80036; stroke-width: 1.0;"/><polygon fill="#A80036" points="68,283.8807,72,274.8807,68,278.8807,64,274.8807,68,283.8807" style="stroke: #A80036; stroke-width: 1.0;"/><text fill="#000000" font-family="sans-serif" font-size="13" lengthAdjust="spacingAndGlyphs" textLength="23" x="69" y="250.0669">uso</text><path d="M68,69.01 C68,89.984 68,118.243 68,140.379 " fill="none" style="stroke: #A80036; stroke-width: 1.0;"/><polygon fill="#A80036" points="68,145.578,72,136.578,68,140.578,64,136.578,68,145.578" style="stroke: #A80036; stroke-width: 1.0;"/><text fill="#000000" font-family="sans-serif" font-size="13" lengthAdjust="spacingAndGlyphs" textLength="23" x="69" y="112.0669">uso</text></g></svg>