<?xml version="1.0" encoding="UTF-8" standalone="no"?><svg xmlns="http://www.w3.org/2000/svg" xmlns:xlink="http://www.w3.org/1999/xlink" contentScriptType="application/ecmascript" contentStyleType="text/css" height="160px" preserveAspectRatio="none" style="width:266px;height:160px;" version="1.1" viewBox="0 0 266 160" width="266px" zoomAndPan="magnify"><defs><filter height="300%" id="fyk2qyg" width="300%" x="-1" y="-1"><feGaussianBlur result="blurOut" stdDeviation="2.0"/><feColorMatrix in="blurOut" result="blurOut2" type="matrix" values="0 0 0 0 0 0 0 0 0 0 0 0 0 0 0 0 0 0 .4 0"/><feOffset dx="4.0" dy="4.0" in="blurOut2" result="blurOut3"/><feBlend in="SourceGraphic" in2="blurOut3" mode="normal"/></filter></defs><g><!--class Weapon--><rect fill="#FEFECE" filter="url(#fyk2qyg)" height="32" style="stroke: #A80036; stroke-width: 1.5;" width="78" x="89" y="8"/><ellipse cx="104" cy="24" fill="#ADD1B2" rx="11" ry="11" style="stroke: #A80036; stroke-width: 1.0;"/><path d="M101.9063,23.8438 Q101.9063,25.7188 102.4844,26.7266 Q103.0625,27.7344 104.2188,27.7344 Q105.5625,27.7344 106.2188,25.7188 L108.4844,26.1406 Q107.375,29.6719 104.2031,29.6719 Q101.8594,29.6719 100.6406,28.1875 Q99.4219,26.7031 99.4219,23.8438 Q99.4219,18.125 104.125,18.125 Q105.6719,18.125 106.7109,18.9375 Q107.75,19.75 108.25,21.3594 L105.9844,21.9063 Q105.75,21.0313 105.2656,20.5391 Q104.7813,20.0469 104.1563,20.0469 Q101.9063,20.0469 101.9063,23.8438 Z "/><text fill="#000000" font-family="sans-serif" font-size="12" lengthAdjust="spacingAndGlyphs" textLength="46" x="118" y="28.6553">Weapon</text><!--class AttackPower--><rect fill="#FEFECE" filter="url(#fyk2qyg)" height="32" style="stroke: #A80036; stroke-width: 1.5;" width="102" x="6" y="119"/><ellipse cx="21" cy="135" fill="#ADD1B2" rx="11" ry="11" style="stroke: #A80036; stroke-width: 1.0;"/><path d="M18.9063,134.8438 Q18.9063,136.7188 19.4844,137.7266 Q20.0625,138.7344 21.2188,138.7344 Q22.5625,138.7344 23.2188,136.7188 L25.4844,137.1406 Q24.375,140.6719 21.2031,140.6719 Q18.8594,140.6719 17.6406,139.1875 Q16.4219,137.7031 16.4219,134.8438 Q16.4219,129.125 21.125,129.125 Q22.6719,129.125 23.7109,129.9375 Q24.75,130.75 25.25,132.3594 L22.9844,132.9063 Q22.75,132.0313 22.2656,131.5391 Q21.7813,131.0469 21.1563,131.0469 Q18.9063,131.0469 18.9063,134.8438 Z "/><text fill="#000000" font-family="sans-serif" font-size="12" lengthAdjust="spacingAndGlyphs" textLength="70" x="35" y="139.6553">AttackPower</text><!--class DefensePower--><rect fill="#FEFECE" filter="url(#fyk2qyg)" height="32" style="stroke: #A80036; stroke-width: 1.5;" width="114" x="143" y="119"/><ellipse cx="158" cy="135" fill="#ADD1B2" rx="11" ry="11" style="stroke: #A80036; stroke-width: 1.0;"/><path d="M155.9063,134.8438 Q155.9063,136.7188 156.4844,137.7266 Q157.0625,138.7344 158.2188,138.7344 Q159.5625,138.7344 160.2188,136.7188 L162.4844,137.1406 Q161.375,140.6719 158.2031,140.6719 Q155.8594,140.6719 154.6406,139.1875 Q153.4219,137.7031 153.4219,134.8438 Q153.4219,129.125 158.125,129.125 Q159.6719,129.125 160.7109,129.9375 Q161.75,130.75 162.25,132.3594 L159.9844,132.9063 Q159.75,132.0313 159.2656,131.5391 Q158.7813,131.0469 158.1563,131.0469 Q155.9063,131.0469 155.9063,134.8438 Z "/><text fill="#000000" font-family="sans-serif" font-size="12" lengthAdjust="spacingAndGlyphs" textLength="82" x="172" y="139.6553">DefensePower</text><path d="M110.876,51.2893 C97.0694,72.4849 78.1435,101.5402 66.7884,118.9727 " fill="none" style="stroke: #A80036; stroke-width: 1.0;"/><polygon fill="#A80036" points="118.128,40.156,111.5017,43.0006,111.5788,50.2113,118.2052,47.3667,118.128,40.156" style="stroke: #A80036; stroke-width: 1.0;"/><text fill="#000000" font-family="sans-serif" font-size="13" lengthAdjust="spacingAndGlyphs" textLength="50" x="98" y="84.895">parte de</text><path d="M145.365,51.2893 C159.366,72.4849 178.559,101.5402 190.074,118.9727 " fill="none" style="stroke: #A80036; stroke-width: 1.0;"/><polygon fill="#A80036" points="138.011,40.156,137.9807,47.367,144.6253,50.1685,144.6557,42.9575,138.011,40.156" style="stroke: #A80036; stroke-width: 1.0;"/><text fill="#000000" font-family="sans-serif" font-size="13" lengthAdjust="spacingAndGlyphs" textLength="50" x="169" y="84.895">parte de</text></g></svg>