<?xml version="1.0" encoding="UTF-8" standalone="yes"?><svg xmlns="http://www.w3.org/2000/svg" xmlns:xlink="http://www.w3.org/1999/xlink" height="158px" style="width:282px;height:158px;" version="1.1" viewBox="0 0 282 158" width="282px"><defs><filter height="300%" id="f1" width="300%" x="-1" y="-1"><feGaussianBlur result="blurOut" stdDeviation="2.0"/><feColorMatrix in="blurOut" result="blurOut2" type="matrix" values="0 0 0 0 0 0 0 0 0 0 0 0 0 0 0 0 0 0 .4 0"/><feOffset dx="4.0" dy="4.0" in="blurOut2" result="blurOut3"/><feBlend in="SourceGraphic" in2="blurOut3" mode="normal"/></filter></defs><g><rect fill="#FEFECE" filter="url(#f1)" height="32" style="stroke: #A80036; stroke-width: 1.5;" width="83" x="94.5" y="8"/><ellipse cx="109.5" cy="24" fill="#ADD1B2" rx="11" ry="11" style="stroke: #A80036; stroke-width: 1.0;"/><path d="M112.4688,29.6406 Q111.8906,29.9375 111.25,30.0859 Q110.6094,30.2344 109.9063,30.2344 Q107.4063,30.2344 106.0859,28.5859 Q104.7656,26.9375 104.7656,23.8125 Q104.7656,20.6875 106.0859,19.0313 Q107.4063,17.375 109.9063,17.375 Q110.6094,17.375 111.2578,17.5313 Q111.9063,17.6875 112.4688,17.9844 L112.4688,20.7031 Q111.8438,20.125 111.25,19.8516 Q110.6563,19.5781 110.0313,19.5781 Q108.6875,19.5781 108,20.6484 Q107.3125,21.7188 107.3125,23.8125 Q107.3125,25.9063 108,26.9766 Q108.6875,28.0469 110.0313,28.0469 Q110.6563,28.0469 111.25,27.7734 Q111.8438,27.5 112.4688,26.9219 L112.4688,29.6406 Z "/><text fill="#000000" font-family="sans-serif" font-size="12" lengthAdjust="spacingAndGlyphs" textLength="51" x="123.5" y="28.1543">Weapon</text><rect fill="#FEFECE" filter="url(#f1)" height="32" style="stroke: #A80036; stroke-width: 1.5;" width="110" x="6" y="117"/><ellipse cx="21" cy="133" fill="#ADD1B2" rx="11" ry="11" style="stroke: #A80036; stroke-width: 1.0;"/><path d="M23.9688,138.6406 Q23.3906,138.9375 22.75,139.0859 Q22.1094,139.2344 21.4063,139.2344 Q18.9063,139.2344 17.5859,137.5859 Q16.2656,135.9375 16.2656,132.8125 Q16.2656,129.6875 17.5859,128.0313 Q18.9063,126.375 21.4063,126.375 Q22.1094,126.375 22.7578,126.5313 Q23.4063,126.6875 23.9688,126.9844 L23.9688,129.7031 Q23.3438,129.125 22.75,128.8516 Q22.1563,128.5781 21.5313,128.5781 Q20.1875,128.5781 19.5,129.6484 Q18.8125,130.7188 18.8125,132.8125 Q18.8125,134.9063 19.5,135.9766 Q20.1875,137.0469 21.5313,137.0469 Q22.1563,137.0469 22.75,136.7734 Q23.3438,136.5 23.9688,135.9219 L23.9688,138.6406 Z "/><text fill="#000000" font-family="sans-serif" font-size="12" lengthAdjust="spacingAndGlyphs" textLength="78" x="35" y="137.1543">AttackPower</text><rect fill="#FEFECE" filter="url(#f1)" height="32" style="stroke: #A80036; stroke-width: 1.5;" width="122" x="151" y="117"/><ellipse cx="166" cy="133" fill="#ADD1B2" rx="11" ry="11" style="stroke: #A80036; stroke-width: 1.0;"/><path d="M168.9688,138.6406 Q168.3906,138.9375 167.75,139.0859 Q167.1094,139.2344 166.4063,139.2344 Q163.9063,139.2344 162.5859,137.5859 Q161.2656,135.9375 161.2656,132.8125 Q161.2656,129.6875 162.5859,128.0313 Q163.9063,126.375 166.4063,126.375 Q167.1094,126.375 167.7578,126.5313 Q168.4063,126.6875 168.9688,126.9844 L168.9688,129.7031 Q168.3438,129.125 167.75,128.8516 Q167.1563,128.5781 166.5313,128.5781 Q165.1875,128.5781 164.5,129.6484 Q163.8125,130.7188 163.8125,132.8125 Q163.8125,134.9063 164.5,135.9766 Q165.1875,137.0469 166.5313,137.0469 Q167.1563,137.0469 167.75,136.7734 Q168.3438,136.5 168.9688,135.9219 L168.9688,138.6406 Z "/><text fill="#000000" font-family="sans-serif" font-size="12" lengthAdjust="spacingAndGlyphs" textLength="90" x="180" y="137.1543">DefensePower</text><path d="M117.664,51.1592 C103.2579,71.7121 83.6914,99.627 71.7257,116.6979 " fill="none" style="stroke: #A80036; stroke-width: 1.0;"/><polygon fill="#A80036" points="125.254,40.33,118.5345,42.9468,118.3656,50.1559,125.0851,47.5391,125.254,40.33" style="stroke: #A80036; stroke-width: 1.0;"/><text fill="#000000" font-family="sans-serif" font-size="13" lengthAdjust="spacingAndGlyphs" textLength="54" x="104" y="83.0669">parte de</text><path d="M154.58,51.1592 C169.179,71.7121 189.006,99.627 201.131,116.6979 " fill="none" style="stroke: #A80036; stroke-width: 1.0;"/><polygon fill="#A80036" points="146.889,40.33,147.1026,47.5379,153.8382,50.1131,153.6246,42.9052,146.889,40.33" style="stroke: #A80036; stroke-width: 1.0;"/><text fill="#000000" font-family="sans-serif" font-size="13" lengthAdjust="spacingAndGlyphs" textLength="54" x="179" y="83.0669">parte de</text></g></svg>