<?xml version="1.0" encoding="UTF-8" standalone="no"?><svg xmlns="http://www.w3.org/2000/svg" xmlns:xlink="http://www.w3.org/1999/xlink" contentScriptType="application/ecmascript" contentStyleType="text/css" height="385px" preserveAspectRatio="none" style="width:93px;height:385px;" version="1.1" viewBox="0 0 93 385" width="93px" zoomAndPan="magnify"><defs><filter height="300%" id="fxzce3c" width="300%" x="-1" y="-1"><feGaussianBlur result="blurOut" stdDeviation="2.0"/><feColorMatrix in="blurOut" result="blurOut2" type="matrix" values="0 0 0 0 0 0 0 0 0 0 0 0 0 0 0 0 0 0 .4 0"/><feOffset dx="4.0" dy="4.0" in="blurOut2" result="blurOut3"/><feBlend in="SourceGraphic" in2="blurOut3" mode="normal"/></filter></defs><g><!--class Entity--><rect fill="#FEFECE" filter="url(#fxzce3c)" height="77.96" style="stroke: #A80036; stroke-width: 1.5;" width="62" x="14" y="8"/><ellipse cx="29" cy="24" fill="#A9DCDF" rx="11" ry="11" style="stroke: #A80036; stroke-width: 1.0;"/><path d="M34.2031,28.5 L31.7656,28.5 L31,25.7656 L27.2188,25.7656 L26.4531,28.5 L24,28.5 L27.6719,17.2969 L30.5313,17.2969 L34.2031,28.5 Z M29.1094,18.8125 Q29.0313,19.1563 28.8594,19.8516 Q28.6875,20.5469 27.7344,23.9219 L30.4844,23.9219 Q29.5156,20.5 29.3438,19.8281 Q29.1719,19.1563 29.1094,18.8125 Z "/><text fill="#000000" font-family="sans-serif" font-size="12" font-style="italic" lengthAdjust="spacingAndGlyphs" textLength="30" x="43" y="28.6553">Entity</text><line style="stroke: #A80036; stroke-width: 1.5;" x1="15" x2="75" y1="40" y2="40"/><rect fill="none" height="6" style="stroke: #C82930; stroke-width: 1.0;" width="6" x="22" y="49.99"/><text fill="#000000" font-family="sans-serif" font-size="11" lengthAdjust="spacingAndGlyphs" textLength="10" x="34" y="55.7573">id</text><line style="stroke: #A80036; stroke-width: 1.5;" x1="15" x2="75" y1="62.98" y2="62.98"/><ellipse cx="25" cy="75.97" fill="#84BE84" rx="3" ry="3" style="stroke: #038048; stroke-width: 1.0;"/><text fill="#000000" font-family="sans-serif" font-size="11" font-style="italic" lengthAdjust="spacingAndGlyphs" textLength="23" x="34" y="78.7373">tick()</text><!--class Movable--><rect fill="#FEFECE" filter="url(#fxzce3c)" height="107.9199" style="stroke: #A80036; stroke-width: 1.5;" width="78" x="6" y="146"/><ellipse cx="21" cy="162" fill="#A9DCDF" rx="11" ry="11" style="stroke: #A80036; stroke-width: 1.0;"/><path d="M26.2031,166.5 L23.7656,166.5 L23,163.7656 L19.2188,163.7656 L18.4531,166.5 L16,166.5 L19.6719,155.2969 L22.5313,155.2969 L26.2031,166.5 Z M21.1094,156.8125 Q21.0313,157.1563 20.8594,157.8516 Q20.6875,158.5469 19.7344,161.9219 L22.4844,161.9219 Q21.5156,158.5 21.3438,157.8281 Q21.1719,157.1563 21.1094,156.8125 Z "/><text fill="#000000" font-family="sans-serif" font-size="12" font-style="italic" lengthAdjust="spacingAndGlyphs" textLength="46" x="35" y="166.6553">Movable</text><line style="stroke: #A80036; stroke-width: 1.5;" x1="7" x2="83" y1="178" y2="178"/><rect fill="none" height="6" style="stroke: #C82930; stroke-width: 1.0;" width="6" x="14" y="187.99"/><text fill="#000000" font-family="sans-serif" font-size="11" lengthAdjust="spacingAndGlyphs" textLength="12" x="26" y="193.7573">vx</text><rect fill="none" height="6" style="stroke: #C82930; stroke-width: 1.0;" width="6" x="14" y="202.97"/><text fill="#000000" font-family="sans-serif" font-size="11" lengthAdjust="spacingAndGlyphs" textLength="12" x="26" y="208.7373">vy</text><rect fill="none" height="6" style="stroke: #C82930; stroke-width: 1.0;" width="6" x="14" y="217.95"/><text fill="#000000" font-family="sans-serif" font-size="11" lengthAdjust="spacingAndGlyphs" textLength="6" x="26" y="223.7173">x</text><rect fill="none" height="6" style="stroke: #C82930; stroke-width: 1.0;" width="6" x="14" y="232.9299"/><text fill="#000000" font-family="sans-serif" font-size="11" lengthAdjust="spacingAndGlyphs" textLength="6" x="26" y="238.6973">y</text><line style="stroke: #A80036; stroke-width: 1.5;" x1="7" x2="83" y1="245.9199" y2="245.9199"/><!--class Enemy--><rect fill="#FEFECE" filter="url(#fxzce3c)" height="62.98" style="stroke: #A80036; stroke-width: 1.5;" width="73" x="8.5" y="314"/><ellipse cx="25.75" cy="330" fill="#A9DCDF" rx="11" ry="11" style="stroke: #A80036; stroke-width: 1.0;"/><path d="M30.9531,334.5 L28.5156,334.5 L27.75,331.7656 L23.9688,331.7656 L23.2031,334.5 L20.75,334.5 L24.4219,323.2969 L27.2813,323.2969 L30.9531,334.5 Z M25.8594,324.8125 Q25.7813,325.1563 25.6094,325.8516 Q25.4375,326.5469 24.4844,329.9219 L27.2344,329.9219 Q26.2656,326.5 26.0938,325.8281 Q25.9219,325.1563 25.8594,324.8125 Z "/><text fill="#000000" font-family="sans-serif" font-size="12" font-style="italic" lengthAdjust="spacingAndGlyphs" textLength="36" x="40.25" y="334.6553">Enemy</text><line style="stroke: #A80036; stroke-width: 1.5;" x1="9.5" x2="80.5" y1="346" y2="346"/><rect fill="none" height="6" style="stroke: #C82930; stroke-width: 1.0;" width="6" x="16.5" y="355.99"/><text fill="#000000" font-family="sans-serif" font-size="11" lengthAdjust="spacingAndGlyphs" textLength="47" x="28.5" y="361.7573">objective</text><line style="stroke: #A80036; stroke-width: 1.5;" x1="9.5" x2="80.5" y1="368.98" y2="368.98"/><path d="M45,106.335 C45,119.323 45,133.027 45,145.796 " fill="none" style="stroke: #A80036; stroke-width: 1.0;"/><polygon fill="none" points="38.0001,106.104,45,86.104,52.0001,106.104,38.0001,106.104" style="stroke: #A80036; stroke-width: 1.0;"/><path d="M45,274.268 C45,288.2141 45,302.0837 45,313.7679 " fill="none" style="stroke: #A80036; stroke-width: 1.0;"/><polygon fill="none" points="38.0001,274.026,45,254.026,52.0001,274.026,38.0001,274.026" style="stroke: #A80036; stroke-width: 1.0;"/></g></svg>