<?xml version="1.0" encoding="UTF-8" standalone="no"?><svg xmlns="http://www.w3.org/2000/svg" xmlns:xlink="http://www.w3.org/1999/xlink" contentScriptType="application/ecmascript" contentStyleType="text/css" height="382px" preserveAspectRatio="none" style="width:95px;height:382px;" version="1.1" viewBox="0 0 95 382" width="95px" zoomAndPan="magnify"><defs><filter height="300%" id="f2wqiee" width="300%" x="-1" y="-1"><feGaussianBlur result="blurOut" stdDeviation="2.0"/><feColorMatrix in="blurOut" result="blurOut2" type="matrix" values="0 0 0 0 0 0 0 0 0 0 0 0 0 0 0 0 0 0 .4 0"/><feOffset dx="4.0" dy="4.0" in="blurOut2" result="blurOut3"/><feBlend in="SourceGraphic" in2="blurOut3" mode="normal"/></filter></defs><g><!--class Entity--><rect fill="#FEFECE" filter="url(#f2wqiee)" height="32" style="stroke: #A80036; stroke-width: 1.5;" width="63" x="14.5" y="8"/><ellipse cx="29.5" cy="24" fill="#ADD1B2" rx="11" ry="11" style="stroke: #A80036; stroke-width: 1.0;"/><path d="M27.4063,23.8438 Q27.4063,25.7188 27.9844,26.7266 Q28.5625,27.7344 29.7188,27.7344 Q31.0625,27.7344 31.7188,25.7188 L33.9844,26.1406 Q32.875,29.6719 29.7031,29.6719 Q27.3594,29.6719 26.1406,28.1875 Q24.9219,26.7031 24.9219,23.8438 Q24.9219,18.125 29.625,18.125 Q31.1719,18.125 32.2109,18.9375 Q33.25,19.75 33.75,21.3594 L31.4844,21.9063 Q31.25,21.0313 30.7656,20.5391 Q30.2813,20.0469 29.6563,20.0469 Q27.4063,20.0469 27.4063,23.8438 Z "/><text fill="#000000" font-family="sans-serif" font-size="12" lengthAdjust="spacingAndGlyphs" textLength="31" x="43.5" y="28.6553">Entity</text><!--class Movable--><rect fill="#FEFECE" filter="url(#f2wqiee)" height="32" style="stroke: #A80036; stroke-width: 1.5;" width="80" x="6" y="119"/><ellipse cx="21" cy="135" fill="#ADD1B2" rx="11" ry="11" style="stroke: #A80036; stroke-width: 1.0;"/><path d="M18.9063,134.8438 Q18.9063,136.7188 19.4844,137.7266 Q20.0625,138.7344 21.2188,138.7344 Q22.5625,138.7344 23.2188,136.7188 L25.4844,137.1406 Q24.375,140.6719 21.2031,140.6719 Q18.8594,140.6719 17.6406,139.1875 Q16.4219,137.7031 16.4219,134.8438 Q16.4219,129.125 21.125,129.125 Q22.6719,129.125 23.7109,129.9375 Q24.75,130.75 25.25,132.3594 L22.9844,132.9063 Q22.75,132.0313 22.2656,131.5391 Q21.7813,131.0469 21.1563,131.0469 Q18.9063,131.0469 18.9063,134.8438 Z "/><text fill="#000000" font-family="sans-serif" font-size="12" lengthAdjust="spacingAndGlyphs" textLength="48" x="35" y="139.6553">Movable</text><!--class Visible--><rect fill="#FEFECE" filter="url(#f2wqiee)" height="32" style="stroke: #A80036; stroke-width: 1.5;" width="68" x="12" y="230"/><ellipse cx="27" cy="246" fill="#ADD1B2" rx="11" ry="11" style="stroke: #A80036; stroke-width: 1.0;"/><path d="M24.9063,245.8438 Q24.9063,247.7188 25.4844,248.7266 Q26.0625,249.7344 27.2188,249.7344 Q28.5625,249.7344 29.2188,247.7188 L31.4844,248.1406 Q30.375,251.6719 27.2031,251.6719 Q24.8594,251.6719 23.6406,250.1875 Q22.4219,248.7031 22.4219,245.8438 Q22.4219,240.125 27.125,240.125 Q28.6719,240.125 29.7109,240.9375 Q30.75,241.75 31.25,243.3594 L28.9844,243.9063 Q28.75,243.0313 28.2656,242.5391 Q27.7813,242.0469 27.1563,242.0469 Q24.9063,242.0469 24.9063,245.8438 Z "/><text fill="#000000" font-family="sans-serif" font-size="12" lengthAdjust="spacingAndGlyphs" textLength="36" x="41" y="250.6553">Visible</text><!--class Player--><rect fill="#FEFECE" filter="url(#f2wqiee)" height="32" style="stroke: #A80036; stroke-width: 1.5;" width="67" x="12.5" y="341"/><ellipse cx="27.5" cy="357" fill="#ADD1B2" rx="11" ry="11" style="stroke: #A80036; stroke-width: 1.0;"/><path d="M25.4063,356.8438 Q25.4063,358.7188 25.9844,359.7266 Q26.5625,360.7344 27.7188,360.7344 Q29.0625,360.7344 29.7188,358.7188 L31.9844,359.1406 Q30.875,362.6719 27.7031,362.6719 Q25.3594,362.6719 24.1406,361.1875 Q22.9219,359.7031 22.9219,356.8438 Q22.9219,351.125 27.625,351.125 Q29.1719,351.125 30.2109,351.9375 Q31.25,352.75 31.75,354.3594 L29.4844,354.9063 Q29.25,354.0313 28.7656,353.5391 Q28.2813,353.0469 27.6563,353.0469 Q25.4063,353.0469 25.4063,356.8438 Z "/><text fill="#000000" font-family="sans-serif" font-size="12" lengthAdjust="spacingAndGlyphs" textLength="35" x="41.5" y="361.6553">Player</text><path d="M46,60.247 C46,80.112 46,103.892 46,118.973 " fill="none" style="stroke: #A80036; stroke-width: 1.0;"/><polygon fill="none" points="39.0001,60.156,46,40.156,53.0001,60.156,39.0001,60.156" style="stroke: #A80036; stroke-width: 1.0;"/><text fill="#000000" font-family="sans-serif" font-size="13" lengthAdjust="spacingAndGlyphs" textLength="33" x="47" y="84.895">es-un</text><path d="M46,171.247 C46,191.112 46,214.892 46,229.973 " fill="none" style="stroke: #A80036; stroke-width: 1.0;"/><polygon fill="none" points="39.0001,171.156,46,151.156,53.0001,171.156,39.0001,171.156" style="stroke: #A80036; stroke-width: 1.0;"/><text fill="#000000" font-family="sans-serif" font-size="13" lengthAdjust="spacingAndGlyphs" textLength="33" x="47" y="195.895">es-un</text><path d="M46,282.2473 C46,302.1116 46,325.8916 46,340.9727 " fill="none" style="stroke: #A80036; stroke-width: 1.0;"/><polygon fill="none" points="39.0001,282.156,46,262.156,53.0001,282.1559,39.0001,282.156" style="stroke: #A80036; stroke-width: 1.0;"/><text fill="#000000" font-family="sans-serif" font-size="13" lengthAdjust="spacingAndGlyphs" textLength="33" x="47" y="306.895">es-un</text></g></svg>