<?xml version="1.0" encoding="UTF-8" standalone="yes"?><svg xmlns="http://www.w3.org/2000/svg" xmlns:xlink="http://www.w3.org/1999/xlink" height="344px" style="width:222px;height:344px;" version="1.1" viewBox="0 0 222 344" width="222px"><defs><filter height="300%" id="f1" width="300%" x="-1" y="-1"><feGaussianBlur result="blurOut" stdDeviation="2.0"/><feColorMatrix in="blurOut" result="blurOut2" type="matrix" values="0 0 0 0 0 0 0 0 0 0 0 0 0 0 0 0 0 0 .4 0"/><feOffset dx="4.0" dy="4.0" in="blurOut2" result="blurOut3"/><feBlend in="SourceGraphic" in2="blurOut3" mode="normal"/></filter></defs><g><rect fill="#FEFECE" filter="url(#f1)" height="32" style="stroke: #A80036; stroke-width: 1.5;" width="67" x="104.5" y="8"/><ellipse cx="119.5" cy="24" fill="#ADD1B2" rx="11" ry="11" style="stroke: #A80036; stroke-width: 1.0;"/><path d="M122.4688,29.6406 Q121.8906,29.9375 121.25,30.0859 Q120.6094,30.2344 119.9063,30.2344 Q117.4063,30.2344 116.0859,28.5859 Q114.7656,26.9375 114.7656,23.8125 Q114.7656,20.6875 116.0859,19.0313 Q117.4063,17.375 119.9063,17.375 Q120.6094,17.375 121.2578,17.5313 Q121.9063,17.6875 122.4688,17.9844 L122.4688,20.7031 Q121.8438,20.125 121.25,19.8516 Q120.6563,19.5781 120.0313,19.5781 Q118.6875,19.5781 118,20.6484 Q117.3125,21.7188 117.3125,23.8125 Q117.3125,25.9063 118,26.9766 Q118.6875,28.0469 120.0313,28.0469 Q120.6563,28.0469 121.25,27.7734 Q121.8438,27.5 122.4688,26.9219 L122.4688,29.6406 Z "/><text fill="#000000" font-family="sans-serif" font-size="12" lengthAdjust="spacingAndGlyphs" textLength="35" x="133.5" y="28.1543">Entity</text><rect fill="#FEFECE" filter="url(#f1)" height="32" style="stroke: #A80036; stroke-width: 1.5;" width="83" x="35.5" y="101"/><ellipse cx="50.5" cy="117" fill="#ADD1B2" rx="11" ry="11" style="stroke: #A80036; stroke-width: 1.0;"/><path d="M53.4688,122.6406 Q52.8906,122.9375 52.25,123.0859 Q51.6094,123.2344 50.9063,123.2344 Q48.4063,123.2344 47.0859,121.5859 Q45.7656,119.9375 45.7656,116.8125 Q45.7656,113.6875 47.0859,112.0313 Q48.4063,110.375 50.9063,110.375 Q51.6094,110.375 52.2578,110.5313 Q52.9063,110.6875 53.4688,110.9844 L53.4688,113.7031 Q52.8438,113.125 52.25,112.8516 Q51.6563,112.5781 51.0313,112.5781 Q49.6875,112.5781 49,113.6484 Q48.3125,114.7188 48.3125,116.8125 Q48.3125,118.9063 49,119.9766 Q49.6875,121.0469 51.0313,121.0469 Q51.6563,121.0469 52.25,120.7734 Q52.8438,120.5 53.4688,119.9219 L53.4688,122.6406 Z "/><text fill="#000000" font-family="sans-serif" font-size="12" lengthAdjust="spacingAndGlyphs" textLength="51" x="64.5" y="121.1543">Movable</text><rect fill="#FEFECE" filter="url(#f1)" height="32" style="stroke: #A80036; stroke-width: 1.5;" width="72" x="6" y="210"/><ellipse cx="21" cy="226" fill="#ADD1B2" rx="11" ry="11" style="stroke: #A80036; stroke-width: 1.0;"/><path d="M23.9688,231.6406 Q23.3906,231.9375 22.75,232.0859 Q22.1094,232.2344 21.4063,232.2344 Q18.9063,232.2344 17.5859,230.5859 Q16.2656,228.9375 16.2656,225.8125 Q16.2656,222.6875 17.5859,221.0313 Q18.9063,219.375 21.4063,219.375 Q22.1094,219.375 22.7578,219.5313 Q23.4063,219.6875 23.9688,219.9844 L23.9688,222.7031 Q23.3438,222.125 22.75,221.8516 Q22.1563,221.5781 21.5313,221.5781 Q20.1875,221.5781 19.5,222.6484 Q18.8125,223.7188 18.8125,225.8125 Q18.8125,227.9063 19.5,228.9766 Q20.1875,230.0469 21.5313,230.0469 Q22.1563,230.0469 22.75,229.7734 Q23.3438,229.5 23.9688,228.9219 L23.9688,231.6406 Z "/><text fill="#000000" font-family="sans-serif" font-size="12" lengthAdjust="spacingAndGlyphs" textLength="40" x="35" y="230.1543">Visible</text><rect fill="#FEFECE" filter="url(#f1)" height="32" style="stroke: #A80036; stroke-width: 1.5;" width="70" x="77" y="303"/><ellipse cx="92" cy="319" fill="#ADD1B2" rx="11" ry="11" style="stroke: #A80036; stroke-width: 1.0;"/><path d="M94.9688,324.6406 Q94.3906,324.9375 93.75,325.0859 Q93.1094,325.2344 92.4063,325.2344 Q89.9063,325.2344 88.5859,323.5859 Q87.2656,321.9375 87.2656,318.8125 Q87.2656,315.6875 88.5859,314.0313 Q89.9063,312.375 92.4063,312.375 Q93.1094,312.375 93.7578,312.5313 Q94.4063,312.6875 94.9688,312.9844 L94.9688,315.7031 Q94.3438,315.125 93.75,314.8516 Q93.1563,314.5781 92.5313,314.5781 Q91.1875,314.5781 90.5,315.6484 Q89.8125,316.7188 89.8125,318.8125 Q89.8125,320.9063 90.5,321.9766 Q91.1875,323.0469 92.5313,323.0469 Q93.1563,323.0469 93.75,322.7734 Q94.3438,322.5 94.9688,321.9219 L94.9688,324.6406 Z "/><text fill="#000000" font-family="sans-serif" font-size="12" lengthAdjust="spacingAndGlyphs" textLength="38" x="106" y="323.1543">Player</text><rect fill="#FEFECE" filter="url(#f1)" height="32" style="stroke: #A80036; stroke-width: 1.5;" width="100" x="113" y="210"/><ellipse cx="128" cy="226" fill="#ADD1B2" rx="11" ry="11" style="stroke: #A80036; stroke-width: 1.0;"/><path d="M130.9688,231.6406 Q130.3906,231.9375 129.75,232.0859 Q129.1094,232.2344 128.4063,232.2344 Q125.9063,232.2344 124.5859,230.5859 Q123.2656,228.9375 123.2656,225.8125 Q123.2656,222.6875 124.5859,221.0313 Q125.9063,219.375 128.4063,219.375 Q129.1094,219.375 129.7578,219.5313 Q130.4063,219.6875 130.9688,219.9844 L130.9688,222.7031 Q130.3438,222.125 129.75,221.8516 Q129.1563,221.5781 128.5313,221.5781 Q127.1875,221.5781 126.5,222.6484 Q125.8125,223.7188 125.8125,225.8125 Q125.8125,227.9063 126.5,228.9766 Q127.1875,230.0469 128.5313,230.0469 Q129.1563,230.0469 129.75,229.7734 Q130.3438,229.5 130.9688,228.9219 L130.9688,231.6406 Z "/><text fill="#000000" font-family="sans-serif" font-size="12" lengthAdjust="spacingAndGlyphs" textLength="68" x="142" y="230.1543">NoMovable</text><path d="M116.724,56.739 C106.665,71.746 95.1275,88.957 87.0879,100.951 " fill="none" style="stroke: #A80036; stroke-width: 1.0;"/><polygon fill="none" points="110.976,52.742,127.927,40.027,122.605,60.537,110.976,52.742" style="stroke: #A80036; stroke-width: 1.0;"/><path d="M65.7072,152.524 C59.4022,171.799 51.8621,194.85 47.0053,209.698 " fill="none" style="stroke: #A80036; stroke-width: 1.0;"/><polygon fill="none" points="59.1143,150.163,71.9854,133.33,72.4205,154.516,59.1143,150.163" style="stroke: #A80036; stroke-width: 1.0;"/><path d="M66.035,258.2455 C77.6671,273.3673 91.0966,290.8256 100.4238,302.9509 " fill="none" style="stroke: #A80036; stroke-width: 1.0;"/><polygon fill="none" points="60.205,262.1473,53.5591,242.0268,71.3017,253.6113,60.205,262.1473" style="stroke: #A80036; stroke-width: 1.0;"/><path d="M142.377,60.016 C147.894,104.151 157.134,178.075 161.099,209.793 " fill="none" style="stroke: #A80036; stroke-width: 1.0;"/><polygon fill="none" points="135.414,60.746,139.879,40.033,149.306,59.01,135.414,60.746" style="stroke: #A80036; stroke-width: 1.0;"/><path d="M144.656,259.732 C136.379,274.5002 127.008,291.221 120.434,302.9509 " fill="none" style="stroke: #A80036; stroke-width: 1.0;"/><polygon fill="none" points="138.694,256.0514,154.578,242.0268,150.907,262.8959,138.694,256.0514" style="stroke: #A80036; stroke-width: 1.0;"/><path d="M79.9934,137.992 C82.7217,150.966 87.7901,167.687 97,180 C105.1398,190.882 116.719,200.027 127.911,207.17 " fill="none" style="stroke: #A80036; stroke-width: 1.0;"/><polygon fill="#A80036" points="132.339,209.908,126.7863,201.7737,128.0858,207.2792,122.5803,208.5788,132.339,209.908" style="stroke: #A80036; stroke-width: 1.0;"/><polygon fill="#A80036" points="79.0265,133.042,76.8261,142.6419,79.9851,137.9493,84.6777,141.1082,79.0265,133.042" style="stroke: #A80036; stroke-width: 1.0;"/><text fill="#000000" font-family="sans-serif" font-size="13" lengthAdjust="spacingAndGlyphs" textLength="47" x="98" y="176.0669">ERROR!</text></g></svg>