<?xml version="1.0" encoding="UTF-8" standalone="no"?><svg xmlns="http://www.w3.org/2000/svg" xmlns:xlink="http://www.w3.org/1999/xlink" contentScriptType="application/ecmascript" contentStyleType="text/css" height="346px" preserveAspectRatio="none" style="width:214px;height:346px;" version="1.1" viewBox="0 0 214 346" width="214px" zoomAndPan="magnify"><defs><filter height="300%" id="ftyai85" width="300%" x="-1" y="-1"><feGaussianBlur result="blurOut" stdDeviation="2.0"/><feColorMatrix in="blurOut" result="blurOut2" type="matrix" values="0 0 0 0 0 0 0 0 0 0 0 0 0 0 0 0 0 0 .4 0"/><feOffset dx="4.0" dy="4.0" in="blurOut2" result="blurOut3"/><feBlend in="SourceGraphic" in2="blurOut3" mode="normal"/></filter></defs><g><!--class Entity--><rect fill="#FEFECE" filter="url(#ftyai85)" height="32" style="stroke: #A80036; stroke-width: 1.5;" width="63" x="102.5" y="8"/><ellipse cx="117.5" cy="24" fill="#ADD1B2" rx="11" ry="11" style="stroke: #A80036; stroke-width: 1.0;"/><path d="M115.4063,23.8438 Q115.4063,25.7188 115.9844,26.7266 Q116.5625,27.7344 117.7188,27.7344 Q119.0625,27.7344 119.7188,25.7188 L121.9844,26.1406 Q120.875,29.6719 117.7031,29.6719 Q115.3594,29.6719 114.1406,28.1875 Q112.9219,26.7031 112.9219,23.8438 Q112.9219,18.125 117.625,18.125 Q119.1719,18.125 120.2109,18.9375 Q121.25,19.75 121.75,21.3594 L119.4844,21.9063 Q119.25,21.0313 118.7656,20.5391 Q118.2813,20.0469 117.6563,20.0469 Q115.4063,20.0469 115.4063,23.8438 Z "/><text fill="#000000" font-family="sans-serif" font-size="12" lengthAdjust="spacingAndGlyphs" textLength="31" x="131.5" y="28.6553">Entity</text><!--class Movable--><rect fill="#FEFECE" filter="url(#ftyai85)" height="32" style="stroke: #A80036; stroke-width: 1.5;" width="80" x="35" y="101"/><ellipse cx="50" cy="117" fill="#ADD1B2" rx="11" ry="11" style="stroke: #A80036; stroke-width: 1.0;"/><path d="M47.9063,116.8438 Q47.9063,118.7188 48.4844,119.7266 Q49.0625,120.7344 50.2188,120.7344 Q51.5625,120.7344 52.2188,118.7188 L54.4844,119.1406 Q53.375,122.6719 50.2031,122.6719 Q47.8594,122.6719 46.6406,121.1875 Q45.4219,119.7031 45.4219,116.8438 Q45.4219,111.125 50.125,111.125 Q51.6719,111.125 52.7109,111.9375 Q53.75,112.75 54.25,114.3594 L51.9844,114.9063 Q51.75,114.0313 51.2656,113.5391 Q50.7813,113.0469 50.1563,113.0469 Q47.9063,113.0469 47.9063,116.8438 Z "/><text fill="#000000" font-family="sans-serif" font-size="12" lengthAdjust="spacingAndGlyphs" textLength="48" x="64" y="121.6553">Movable</text><!--class Visible--><rect fill="#FEFECE" filter="url(#ftyai85)" height="32" style="stroke: #A80036; stroke-width: 1.5;" width="68" x="6" y="212"/><ellipse cx="21" cy="228" fill="#ADD1B2" rx="11" ry="11" style="stroke: #A80036; stroke-width: 1.0;"/><path d="M18.9063,227.8438 Q18.9063,229.7188 19.4844,230.7266 Q20.0625,231.7344 21.2188,231.7344 Q22.5625,231.7344 23.2188,229.7188 L25.4844,230.1406 Q24.375,233.6719 21.2031,233.6719 Q18.8594,233.6719 17.6406,232.1875 Q16.4219,230.7031 16.4219,227.8438 Q16.4219,222.125 21.125,222.125 Q22.6719,222.125 23.7109,222.9375 Q24.75,223.75 25.25,225.3594 L22.9844,225.9063 Q22.75,225.0313 22.2656,224.5391 Q21.7813,224.0469 21.1563,224.0469 Q18.9063,224.0469 18.9063,227.8438 Z "/><text fill="#000000" font-family="sans-serif" font-size="12" lengthAdjust="spacingAndGlyphs" textLength="36" x="35" y="232.6553">Visible</text><!--class Player--><rect fill="#FEFECE" filter="url(#ftyai85)" height="32" style="stroke: #A80036; stroke-width: 1.5;" width="67" x="74.5" y="305"/><ellipse cx="89.5" cy="321" fill="#ADD1B2" rx="11" ry="11" style="stroke: #A80036; stroke-width: 1.0;"/><path d="M87.4063,320.8438 Q87.4063,322.7188 87.9844,323.7266 Q88.5625,324.7344 89.7188,324.7344 Q91.0625,324.7344 91.7188,322.7188 L93.9844,323.1406 Q92.875,326.6719 89.7031,326.6719 Q87.3594,326.6719 86.1406,325.1875 Q84.9219,323.7031 84.9219,320.8438 Q84.9219,315.125 89.625,315.125 Q91.1719,315.125 92.2109,315.9375 Q93.25,316.75 93.75,318.3594 L91.4844,318.9063 Q91.25,318.0313 90.7656,317.5391 Q90.2813,317.0469 89.6563,317.0469 Q87.4063,317.0469 87.4063,320.8438 Z "/><text fill="#000000" font-family="sans-serif" font-size="12" lengthAdjust="spacingAndGlyphs" textLength="35" x="103.5" y="325.6553">Player</text><!--class NoMovable--><rect fill="#FEFECE" filter="url(#ftyai85)" height="32" style="stroke: #A80036; stroke-width: 1.5;" width="96" x="109" y="212"/><ellipse cx="124" cy="228" fill="#ADD1B2" rx="11" ry="11" style="stroke: #A80036; stroke-width: 1.0;"/><path d="M121.9063,227.8438 Q121.9063,229.7188 122.4844,230.7266 Q123.0625,231.7344 124.2188,231.7344 Q125.5625,231.7344 126.2188,229.7188 L128.4844,230.1406 Q127.375,233.6719 124.2031,233.6719 Q121.8594,233.6719 120.6406,232.1875 Q119.4219,230.7031 119.4219,227.8438 Q119.4219,222.125 124.125,222.125 Q125.6719,222.125 126.7109,222.9375 Q127.75,223.75 128.25,225.3594 L125.9844,225.9063 Q125.75,225.0313 125.2656,224.5391 Q124.7813,224.0469 124.1563,224.0469 Q121.9063,224.0469 121.9063,227.8438 Z "/><text fill="#000000" font-family="sans-serif" font-size="12" lengthAdjust="spacingAndGlyphs" textLength="64" x="138" y="232.6553">NoMovable</text><path d="M113.1,57.235 C103.4472,72.124 92.4477,89.089 84.7571,100.951 " fill="none" style="stroke: #A80036; stroke-width: 1.0;"/><polygon fill="none" points="107.503,53,124.257,40.027,119.251,60.616,107.503,53" style="stroke: #A80036; stroke-width: 1.0;"/><path d="M63.9897,152.289 C57.5506,172.342 49.746,196.648 44.8253,211.973 " fill="none" style="stroke: #A80036; stroke-width: 1.0;"/><polygon fill="none" points="57.354,150.058,70.1334,133.156,70.6836,154.338,57.354,150.058" style="stroke: #A80036; stroke-width: 1.0;"/><path d="M63.3483,260.2455 C74.6481,275.3673 87.6939,292.8256 96.7545,304.9509 " fill="none" style="stroke: #A80036; stroke-width: 1.0;"/><polygon fill="none" points="57.5933,264.2381,51.2288,244.0268,68.8081,255.8578,57.5933,264.2381" style="stroke: #A80036; stroke-width: 1.0;"/><path d="M137.998,60.116 C143.085,104.791 151.646,179.976 155.283,211.917 " fill="none" style="stroke: #A80036; stroke-width: 1.0;"/><polygon fill="none" points="131.036,60.846,135.729,40.183,144.946,59.262,131.036,60.846" style="stroke: #A80036; stroke-width: 1.0;"/><path d="M139.375,261.732 C131.423,276.5002 122.419,293.221 116.103,304.9509 " fill="none" style="stroke: #A80036; stroke-width: 1.0;"/><polygon fill="none" points="133.263,258.3175,148.909,244.0268,145.59,264.955,133.263,258.3175" style="stroke: #A80036; stroke-width: 1.0;"/><path d="M77.9253,138.282 C80.6342,151.671 85.7068,169.063 95,182 C102.7407,192.776 113.863,201.987 124.557,209.216 " fill="none" style="stroke: #A80036; stroke-width: 1.0;"/><polygon fill="#A80036" points="128.784,211.989,123.4525,203.708,124.6032,209.2466,119.0646,210.3972,128.784,211.989" style="stroke: #A80036; stroke-width: 1.0;"/><polygon fill="#A80036" points="76.9672,133.182,74.697,142.7657,77.89,138.0961,82.5596,141.2891,76.9672,133.182" style="stroke: #A80036; stroke-width: 1.0;"/><text fill="#000000" font-family="sans-serif" font-size="13" lengthAdjust="spacingAndGlyphs" textLength="45" x="96" y="177.895">ERROR!</text></g></svg>