<?xml version="1.0" encoding="UTF-8" standalone="yes"?><svg xmlns="http://www.w3.org/2000/svg" xmlns:xlink="http://www.w3.org/1999/xlink" height="370px" style="width:98px;height:370px;" version="1.1" viewBox="0 0 98 370" width="98px"><defs><filter height="300%" id="f1" width="300%" x="-1" y="-1"><feGaussianBlur result="blurOut" stdDeviation="2.0"/><feColorMatrix in="blurOut" result="blurOut2" type="matrix" values="0 0 0 0 0 0 0 0 0 0 0 0 0 0 0 0 0 0 .4 0"/><feOffset dx="4.0" dy="4.0" in="blurOut2" result="blurOut3"/><feBlend in="SourceGraphic" in2="blurOut3" mode="normal"/></filter></defs><g><rect fill="#FEFECE" filter="url(#f1)" height="73.6094" style="stroke: #A80036; stroke-width: 1.5;" width="68" x="13.5" y="8"/><ellipse cx="28.5" cy="24" fill="#A9DCDF" rx="11" ry="11" style="stroke: #A80036; stroke-width: 1.0;"/><path d="M28.6094,19.3438 L27.4531,24.4219 L29.7813,24.4219 L28.6094,19.3438 Z M27.125,17.1094 L30.1094,17.1094 L33.4688,29.5 L31.0156,29.5 L30.25,26.4375 L26.9688,26.4375 L26.2188,29.5 L23.7813,29.5 L27.125,17.1094 Z "/><text fill="#000000" font-family="sans-serif" font-size="12" font-style="italic" lengthAdjust="spacingAndGlyphs" textLength="36" x="42.5" y="28.1543">Entity</text><line style="stroke: #A80036; stroke-width: 1.5;" x1="14.5" x2="80.5" y1="40" y2="40"/><rect fill="none" height="6" style="stroke: #C82930; stroke-width: 1.0;" width="6" x="21.5" y="48.9023"/><text fill="#000000" font-family="sans-serif" font-size="11" lengthAdjust="spacingAndGlyphs" textLength="10" x="33.5" y="54.2104">id</text><line style="stroke: #A80036; stroke-width: 1.5;" x1="14.5" x2="80.5" y1="60.8047" y2="60.8047"/><text fill="#000000" font-family="sans-serif" font-size="11" font-style="italic" lengthAdjust="spacingAndGlyphs" textLength="27" x="19.5" y="75.0151">tick()</text><rect fill="#FEFECE" filter="url(#f1)" height="99.2188" style="stroke: #A80036; stroke-width: 1.5;" width="83" x="6" y="142"/><ellipse cx="21" cy="158" fill="#A9DCDF" rx="11" ry="11" style="stroke: #A80036; stroke-width: 1.0;"/><path d="M21.1094,153.3438 L19.9531,158.4219 L22.2813,158.4219 L21.1094,153.3438 Z M19.625,151.1094 L22.6094,151.1094 L25.9688,163.5 L23.5156,163.5 L22.75,160.4375 L19.4688,160.4375 L18.7188,163.5 L16.2813,163.5 L19.625,151.1094 Z "/><text fill="#000000" font-family="sans-serif" font-size="12" font-style="italic" lengthAdjust="spacingAndGlyphs" textLength="51" x="35" y="162.1543">Movable</text><line style="stroke: #A80036; stroke-width: 1.5;" x1="7" x2="88" y1="174" y2="174"/><rect fill="none" height="6" style="stroke: #C82930; stroke-width: 1.0;" width="6" x="14" y="182.9023"/><text fill="#000000" font-family="sans-serif" font-size="11" lengthAdjust="spacingAndGlyphs" textLength="12" x="26" y="188.2104">vx</text><rect fill="none" height="6" style="stroke: #C82930; stroke-width: 1.0;" width="6" x="14" y="195.707"/><text fill="#000000" font-family="sans-serif" font-size="11" lengthAdjust="spacingAndGlyphs" textLength="12" x="26" y="201.0151">vy</text><rect fill="none" height="6" style="stroke: #C82930; stroke-width: 1.0;" width="6" x="14" y="208.5117"/><text fill="#000000" font-family="sans-serif" font-size="11" lengthAdjust="spacingAndGlyphs" textLength="6" x="26" y="213.8198">x</text><rect fill="none" height="6" style="stroke: #C82930; stroke-width: 1.0;" width="6" x="14" y="221.3164"/><text fill="#000000" font-family="sans-serif" font-size="11" lengthAdjust="spacingAndGlyphs" textLength="6" x="26" y="226.6245">y</text><line style="stroke: #A80036; stroke-width: 1.5;" x1="7" x2="88" y1="233.2188" y2="233.2188"/><rect fill="#FEFECE" filter="url(#f1)" height="60.8047" style="stroke: #A80036; stroke-width: 1.5;" width="76" x="9.5" y="301"/><ellipse cx="25.4" cy="317" fill="#A9DCDF" rx="11" ry="11" style="stroke: #A80036; stroke-width: 1.0;"/><path d="M25.5094,312.3438 L24.3531,317.4219 L26.6813,317.4219 L25.5094,312.3438 Z M24.025,310.1094 L27.0094,310.1094 L30.3688,322.5 L27.9156,322.5 L27.15,319.4375 L23.8688,319.4375 L23.1188,322.5 L20.6813,322.5 L24.025,310.1094 Z "/><text fill="#000000" font-family="sans-serif" font-size="12" font-style="italic" lengthAdjust="spacingAndGlyphs" textLength="42" x="39.6" y="321.1543">Enemy</text><line style="stroke: #A80036; stroke-width: 1.5;" x1="10.5" x2="84.5" y1="333" y2="333"/><rect fill="none" height="6" style="stroke: #C82930; stroke-width: 1.0;" width="6" x="17.5" y="341.9023"/><text fill="#000000" font-family="sans-serif" font-size="11" lengthAdjust="spacingAndGlyphs" textLength="50" x="29.5" y="347.2104">objective</text><line style="stroke: #A80036; stroke-width: 1.5;" x1="10.5" x2="84.5" y1="353.8047" y2="353.8047"/><path d="M47.5,102.351 C47.5,115.378 47.5,129.131 47.5,141.799 " fill="none" style="stroke: #A80036; stroke-width: 1.0;"/><polygon fill="none" points="40.5001,102.091,47.5,82.091,54.5001,102.091,40.5001,102.091" style="stroke: #A80036; stroke-width: 1.0;"/><path d="M47.5,261.244 C47.5,275.1428 47.5,289.0553 47.5,300.726 " fill="none" style="stroke: #A80036; stroke-width: 1.0;"/><polygon fill="none" points="40.5001,261.154,47.5,241.154,54.5001,261.154,40.5001,261.154" style="stroke: #A80036; stroke-width: 1.0;"/></g></svg>