<?xml version="1.0" encoding="UTF-8" standalone="no"?><svg xmlns="http://www.w3.org/2000/svg" xmlns:xlink="http://www.w3.org/1999/xlink" contentScriptType="application/ecmascript" contentStyleType="text/css" height="417px" preserveAspectRatio="none" style="width:419px;height:417px;" version="1.1" viewBox="0 0 419 417" width="419px" zoomAndPan="magnify"><defs><filter height="300%" id="f3txnp8" width="300%" x="-1" y="-1"><feGaussianBlur result="blurOut" stdDeviation="2.0"/><feColorMatrix in="blurOut" result="blurOut2" type="matrix" values="0 0 0 0 0 0 0 0 0 0 0 0 0 0 0 0 0 0 .4 0"/><feOffset dx="4.0" dy="4.0" in="blurOut2" result="blurOut3"/><feBlend in="SourceGraphic" in2="blurOut3" mode="normal"/></filter></defs><g><!--class Manager--><rect fill="#FEFECE" filter="url(#f3txnp8)" height="32" style="stroke: #A80036; stroke-width: 1.5;" width="81" x="153.4972" y="192"/><ellipse cx="168.4972" cy="208" fill="#A9DCDF" rx="11" ry="11" style="stroke: #A80036; stroke-width: 1.0;"/><path d="M173.7003,212.5 L171.2628,212.5 L170.4972,209.7656 L166.716,209.7656 L165.9503,212.5 L163.4972,212.5 L167.1691,201.2969 L170.0285,201.2969 L173.7003,212.5 Z M168.6066,202.8125 Q168.5285,203.1563 168.3566,203.8516 Q168.1847,204.5469 167.2316,207.9219 L169.9816,207.9219 Q169.0128,204.5 168.841,203.8281 Q168.6691,203.1563 168.6066,202.8125 Z "/><text fill="#000000" font-family="sans-serif" font-size="12" font-style="italic" lengthAdjust="spacingAndGlyphs" textLength="49" x="182.4972" y="212.6553">Manager</text><!--class Component--><rect fill="#FEFECE" filter="url(#f3txnp8)" height="32" style="stroke: #A80036; stroke-width: 1.5;" width="95" x="6.4972" y="284"/><ellipse cx="21.4972" cy="300" fill="#A9DCDF" rx="11" ry="11" style="stroke: #A80036; stroke-width: 1.0;"/><path d="M26.7003,304.5 L24.2628,304.5 L23.4972,301.7656 L19.716,301.7656 L18.9503,304.5 L16.4972,304.5 L20.1691,293.2969 L23.0285,293.2969 L26.7003,304.5 Z M21.6066,294.8125 Q21.5285,295.1563 21.3566,295.8516 Q21.1847,296.5469 20.2316,299.9219 L22.9816,299.9219 Q22.0128,296.5 21.841,295.8281 Q21.6691,295.1563 21.6066,294.8125 Z "/><text fill="#000000" font-family="sans-serif" font-size="12" font-style="italic" lengthAdjust="spacingAndGlyphs" textLength="63" x="35.4972" y="304.6553">Component</text><!--class PhysicsManager--><rect fill="#FEFECE" filter="url(#f3txnp8)" height="32" style="stroke: #A80036; stroke-width: 1.5;" width="124" x="286.9972" y="284"/><ellipse cx="301.9972" cy="300" fill="#ADD1B2" rx="11" ry="11" style="stroke: #A80036; stroke-width: 1.0;"/><path d="M299.9035,299.8438 Q299.9035,301.7188 300.4816,302.7266 Q301.0597,303.7344 302.216,303.7344 Q303.5597,303.7344 304.216,301.7188 L306.4816,302.1406 Q305.3722,305.6719 302.2003,305.6719 Q299.8566,305.6719 298.6378,304.1875 Q297.4191,302.7031 297.4191,299.8438 Q297.4191,294.125 302.1222,294.125 Q303.6691,294.125 304.7081,294.9375 Q305.7472,295.75 306.2472,297.3594 L303.9816,297.9063 Q303.7472,297.0313 303.2628,296.5391 Q302.7785,296.0469 302.1535,296.0469 Q299.9035,296.0469 299.9035,299.8438 Z "/><text fill="#000000" font-family="sans-serif" font-size="12" lengthAdjust="spacingAndGlyphs" textLength="92" x="315.9972" y="304.6553">PhysicsManager</text><!--class AudioManager--><rect fill="#FEFECE" filter="url(#f3txnp8)" height="32" style="stroke: #A80036; stroke-width: 1.5;" width="115" x="136.4972" y="284"/><ellipse cx="151.4972" cy="300" fill="#ADD1B2" rx="11" ry="11" style="stroke: #A80036; stroke-width: 1.0;"/><path d="M149.4035,299.8438 Q149.4035,301.7188 149.9816,302.7266 Q150.5597,303.7344 151.716,303.7344 Q153.0597,303.7344 153.716,301.7188 L155.9816,302.1406 Q154.8722,305.6719 151.7003,305.6719 Q149.3566,305.6719 148.1378,304.1875 Q146.9191,302.7031 146.9191,299.8438 Q146.9191,294.125 151.6222,294.125 Q153.1691,294.125 154.2081,294.9375 Q155.2472,295.75 155.7472,297.3594 L153.4816,297.9063 Q153.2472,297.0313 152.7628,296.5391 Q152.2785,296.0469 151.6535,296.0469 Q149.4035,296.0469 149.4035,299.8438 Z "/><text fill="#000000" font-family="sans-serif" font-size="12" lengthAdjust="spacingAndGlyphs" textLength="83" x="165.4972" y="304.6553">AudioManager</text><!--class Game--><rect fill="#FEFECE" filter="url(#f3txnp8)" height="32" style="stroke: #A80036; stroke-width: 1.5;" width="66" x="95.9972" y="8"/><ellipse cx="110.9972" cy="24" fill="#ADD1B2" rx="11" ry="11" style="stroke: #A80036; stroke-width: 1.0;"/><path d="M108.9034,23.8438 Q108.9034,25.7188 109.4816,26.7266 Q110.0597,27.7344 111.2159,27.7344 Q112.5597,27.7344 113.2159,25.7188 L115.4816,26.1406 Q114.3722,29.6719 111.2003,29.6719 Q108.8566,29.6719 107.6378,28.1875 Q106.4191,26.7031 106.4191,23.8438 Q106.4191,18.125 111.1222,18.125 Q112.6691,18.125 113.7081,18.9375 Q114.7472,19.75 115.2472,21.3594 L112.9816,21.9063 Q112.7472,21.0313 112.2628,20.5391 Q111.7784,20.0469 111.1534,20.0469 Q108.9034,20.0469 108.9034,23.8438 Z "/><text fill="#000000" font-family="sans-serif" font-size="12" lengthAdjust="spacingAndGlyphs" textLength="34" x="124.9972" y="28.6553">Game</text><!--class Scenario--><rect fill="#FEFECE" filter="url(#f3txnp8)" height="32" style="stroke: #A80036; stroke-width: 1.5;" width="81" x="30.4972" y="100"/><ellipse cx="45.4972" cy="116" fill="#ADD1B2" rx="11" ry="11" style="stroke: #A80036; stroke-width: 1.0;"/><path d="M43.4035,115.8438 Q43.4035,117.7188 43.9816,118.7266 Q44.5597,119.7344 45.716,119.7344 Q47.0597,119.7344 47.716,117.7188 L49.9816,118.1406 Q48.8722,121.6719 45.7003,121.6719 Q43.3566,121.6719 42.1378,120.1875 Q40.9191,118.7031 40.9191,115.8438 Q40.9191,110.125 45.6222,110.125 Q47.1691,110.125 48.2081,110.9375 Q49.2472,111.75 49.7472,113.3594 L47.4816,113.9063 Q47.2472,113.0313 46.7628,112.5391 Q46.2785,112.0469 45.6535,112.0469 Q43.4035,112.0469 43.4035,115.8438 Z "/><text fill="#000000" font-family="sans-serif" font-size="12" lengthAdjust="spacingAndGlyphs" textLength="49" x="59.4972" y="120.6553">Scenario</text><!--class Entity--><rect fill="#FEFECE" filter="url(#f3txnp8)" height="32" style="stroke: #A80036; stroke-width: 1.5;" width="63" x="28.4972" y="192"/><ellipse cx="43.4972" cy="208" fill="#ADD1B2" rx="11" ry="11" style="stroke: #A80036; stroke-width: 1.0;"/><path d="M41.4035,207.8438 Q41.4035,209.7188 41.9816,210.7266 Q42.5597,211.7344 43.716,211.7344 Q45.0597,211.7344 45.716,209.7188 L47.9816,210.1406 Q46.8722,213.6719 43.7003,213.6719 Q41.3566,213.6719 40.1378,212.1875 Q38.9191,210.7031 38.9191,207.8438 Q38.9191,202.125 43.6222,202.125 Q45.1691,202.125 46.2081,202.9375 Q47.2472,203.75 47.7472,205.3594 L45.4816,205.9063 Q45.2472,205.0313 44.7628,204.5391 Q44.2785,204.0469 43.6535,204.0469 Q41.4035,204.0469 41.4035,207.8438 Z "/><text fill="#000000" font-family="sans-serif" font-size="12" lengthAdjust="spacingAndGlyphs" textLength="31" x="57.4972" y="212.6553">Entity</text><!--class PhysicsComponent--><rect fill="#FEFECE" filter="url(#f3txnp8)" height="32" style="stroke: #A80036; stroke-width: 1.5;" width="138" x="247.9972" y="376"/><ellipse cx="262.9972" cy="392" fill="#ADD1B2" rx="11" ry="11" style="stroke: #A80036; stroke-width: 1.0;"/><path d="M260.9035,391.8438 Q260.9035,393.7188 261.4816,394.7266 Q262.0597,395.7344 263.216,395.7344 Q264.5597,395.7344 265.216,393.7188 L267.4816,394.1406 Q266.3722,397.6719 263.2003,397.6719 Q260.8566,397.6719 259.6378,396.1875 Q258.4191,394.7031 258.4191,391.8438 Q258.4191,386.125 263.1222,386.125 Q264.6691,386.125 265.7081,386.9375 Q266.7472,387.75 267.2472,389.3594 L264.9816,389.9063 Q264.7472,389.0313 264.2628,388.5391 Q263.7785,388.0469 263.1535,388.0469 Q260.9035,388.0469 260.9035,391.8438 Z "/><text fill="#000000" font-family="sans-serif" font-size="12" lengthAdjust="spacingAndGlyphs" textLength="106" x="276.9972" y="396.6553">PhysicsComponent</text><!--class AudioComponent--><rect fill="#FEFECE" filter="url(#f3txnp8)" height="32" style="stroke: #A80036; stroke-width: 1.5;" width="129" x="52.4972" y="376"/><ellipse cx="67.4972" cy="392" fill="#ADD1B2" rx="11" ry="11" style="stroke: #A80036; stroke-width: 1.0;"/><path d="M65.4034,391.8438 Q65.4034,393.7188 65.9816,394.7266 Q66.5597,395.7344 67.7159,395.7344 Q69.0597,395.7344 69.7159,393.7188 L71.9816,394.1406 Q70.8722,397.6719 67.7003,397.6719 Q65.3566,397.6719 64.1378,396.1875 Q62.9191,394.7031 62.9191,391.8438 Q62.9191,386.125 67.6222,386.125 Q69.1691,386.125 70.2081,386.9375 Q71.2472,387.75 71.7472,389.3594 L69.4816,389.9063 Q69.2472,389.0313 68.7628,388.5391 Q68.2784,388.0469 67.6534,388.0469 Q65.4034,388.0469 65.4034,391.8438 Z "/><text fill="#000000" font-family="sans-serif" font-size="12" lengthAdjust="spacingAndGlyphs" textLength="97" x="81.4972" y="396.6553">AudioComponent</text><path d="M237.6192,234.329 C265.1142,250.294 299.6942,270.372 322.9692,283.887 " fill="none" style="stroke: #A80036; stroke-width: 1.0;"/><polygon fill="none" points="233.7212,240.16,219.9412,224.064,240.7512,228.053,233.7212,240.16" style="stroke: #A80036; stroke-width: 1.0;"/><path d="M193.9972,244.615 C193.9972,258.31 193.9972,273.22 193.9972,283.958 " fill="none" style="stroke: #A80036; stroke-width: 1.0;"/><polygon fill="none" points="186.9972,244.267,193.9972,224.267,200.9972,244.267,186.9972,244.267" style="stroke: #A80036; stroke-width: 1.0;"/><path d="M138.8502,52.588 C152.7692,91.561 177.7082,161.391 188.6282,191.967 " fill="none" style="stroke: #A80036; stroke-width: 1.0;"/><polygon fill="#A80036" points="134.4272,40.204,132.6787,47.1999,138.464,51.5046,140.2125,44.5087,134.4272,40.204" style="stroke: #A80036; stroke-width: 1.0;"/><text fill="#000000" font-family="sans-serif" font-size="13" lengthAdjust="spacingAndGlyphs" textLength="7" x="128.0183" y="61.7724">1</text><text fill="#000000" font-family="sans-serif" font-size="13" lengthAdjust="spacingAndGlyphs" textLength="7" x="178.4686" y="180.2475">*</text><path d="M111.9422,51.465 C101.7593,67.266 89.1955,86.761 80.6908,99.958 " fill="none" style="stroke: #A80036; stroke-width: 1.0;"/><polygon fill="#A80036" points="119.1582,40.267,112.546,43.1442,112.6587,50.3545,119.2709,47.4772,119.1582,40.267" style="stroke: #A80036; stroke-width: 1.0;"/><path d="M67.5334,145.34 C65.6457,160.785 63.3853,179.279 61.8356,191.958 " fill="none" style="stroke: #A80036; stroke-width: 1.0;"/><polygon fill="#A80036" points="69.1312,132.267,64.4328,137.7374,67.6754,144.1784,72.3737,138.708,69.1312,132.267" style="stroke: #A80036; stroke-width: 1.0;"/><text fill="#000000" font-family="sans-serif" font-size="13" lengthAdjust="spacingAndGlyphs" textLength="7" x="60.4879" y="153.8547">1</text><text fill="#000000" font-family="sans-serif" font-size="13" lengthAdjust="spacingAndGlyphs" textLength="34" x="22.4343" y="180.2353">many</text><path d="M58.1079,237.34 C57.0782,252.785 55.8453,271.279 55,283.958 " fill="none" style="stroke: #A80036; stroke-width: 1.0;"/><polygon fill="#A80036" points="58.9794,224.267,54.5894,229.9878,58.1816,236.2405,62.5717,230.5197,58.9794,224.267" style="stroke: #A80036; stroke-width: 1.0;"/><text fill="#000000" font-family="sans-serif" font-size="13" lengthAdjust="spacingAndGlyphs" textLength="7" x="50.5958" y="245.8547">1</text><text fill="#000000" font-family="sans-serif" font-size="13" lengthAdjust="spacingAndGlyphs" textLength="34" x="15.301" y="272.2353">many</text><path d="M117.1522,322.6121 C165.2382,339.0672 230.2082,361.3004 272.8332,375.8869 " fill="none" style="stroke: #A80036; stroke-width: 1.0;"/><polygon fill="none" points="114.6742,329.1624,98.0175,316.064,119.2062,315.9165,114.6742,329.1624" style="stroke: #A80036; stroke-width: 1.0;"/><path d="M76.1824,332.6931 C86.4754,347.3974 98.2264,364.1845 106.4679,375.9582 " fill="none" style="stroke: #A80036; stroke-width: 1.0;"/><polygon fill="none" points="70.419,336.6662,64.6843,316.2673,81.8882,328.6377,70.419,336.6662" style="stroke: #A80036; stroke-width: 1.0;"/><path d="M343.5692,316.2673 C338.2042,331.3565 329.9682,354.5188 324.0882,371.0552 " fill="none" style="stroke: #A80036; stroke-width: 1.0;"/><polygon fill="#A80036" points="322.3452,375.9582,329.1291,368.8183,324.0202,371.2471,321.5914,366.1382,322.3452,375.9582" style="stroke: #A80036; stroke-width: 1.0;"/><path d="M180.9352,316.2673 C167.8032,331.6167 147.5232,355.3199 133.3342,371.9046 " fill="none" style="stroke: #A80036; stroke-width: 1.0;"/><polygon fill="#A80036" points="129.8662,375.9582,138.7569,371.7208,133.1171,372.1593,132.6786,366.5194,129.8662,375.9582" style="stroke: #A80036; stroke-width: 1.0;"/></g></svg>