<?xml version="1.0" encoding="UTF-8" standalone="yes"?><svg xmlns="http://www.w3.org/2000/svg" xmlns:xlink="http://www.w3.org/1999/xlink" height="417px" style="width:444px;height:417px;" version="1.1" viewBox="0 0 444 417" width="444px"><defs><filter height="300%" id="f1" width="300%" x="-1" y="-1"><feGaussianBlur result="blurOut" stdDeviation="2.0"/><feColorMatrix in="blurOut" result="blurOut2" type="matrix" values="0 0 0 0 0 0 0 0 0 0 0 0 0 0 0 0 0 0 .4 0"/><feOffset dx="4.0" dy="4.0" in="blurOut2" result="blurOut3"/><feBlend in="SourceGraphic" in2="blurOut3" mode="normal"/></filter></defs><g><rect fill="#FEFECE" filter="url(#f1)" height="32" style="stroke: #A80036; stroke-width: 1.5;" width="87" x="162.5" y="192"/><ellipse cx="177.5" cy="208" fill="#A9DCDF" rx="11" ry="11" style="stroke: #A80036; stroke-width: 1.0;"/><path d="M177.6094,203.3438 L176.4531,208.4219 L178.7813,208.4219 L177.6094,203.3438 Z M176.125,201.1094 L179.1094,201.1094 L182.4688,213.5 L180.0156,213.5 L179.25,210.4375 L175.9688,210.4375 L175.2188,213.5 L172.7813,213.5 L176.125,201.1094 Z "/><text fill="#000000" font-family="sans-serif" font-size="12" font-style="italic" lengthAdjust="spacingAndGlyphs" textLength="55" x="191.5" y="212.1543">Manager</text><rect fill="#FEFECE" filter="url(#f1)" height="32" style="stroke: #A80036; stroke-width: 1.5;" width="104" x="6" y="284"/><ellipse cx="21" cy="300" fill="#A9DCDF" rx="11" ry="11" style="stroke: #A80036; stroke-width: 1.0;"/><path d="M21.1094,295.3438 L19.9531,300.4219 L22.2813,300.4219 L21.1094,295.3438 Z M19.625,293.1094 L22.6094,293.1094 L25.9688,305.5 L23.5156,305.5 L22.75,302.4375 L19.4688,302.4375 L18.7188,305.5 L16.2813,305.5 L19.625,293.1094 Z "/><text fill="#000000" font-family="sans-serif" font-size="12" font-style="italic" lengthAdjust="spacingAndGlyphs" textLength="72" x="35" y="304.1543">Component</text><rect fill="#FEFECE" filter="url(#f1)" height="32" style="stroke: #A80036; stroke-width: 1.5;" width="133" x="302.5" y="284"/><ellipse cx="317.5" cy="300" fill="#ADD1B2" rx="11" ry="11" style="stroke: #A80036; stroke-width: 1.0;"/><path d="M320.4688,305.6406 Q319.8906,305.9375 319.25,306.0859 Q318.6094,306.2344 317.9063,306.2344 Q315.4063,306.2344 314.0859,304.5859 Q312.7656,302.9375 312.7656,299.8125 Q312.7656,296.6875 314.0859,295.0313 Q315.4063,293.375 317.9063,293.375 Q318.6094,293.375 319.2578,293.5313 Q319.9063,293.6875 320.4688,293.9844 L320.4688,296.7031 Q319.8438,296.125 319.25,295.8516 Q318.6563,295.5781 318.0313,295.5781 Q316.6875,295.5781 316,296.6484 Q315.3125,297.7188 315.3125,299.8125 Q315.3125,301.9063 316,302.9766 Q316.6875,304.0469 318.0313,304.0469 Q318.6563,304.0469 319.25,303.7734 Q319.8438,303.5 320.4688,302.9219 L320.4688,305.6406 Z "/><text fill="#000000" font-family="sans-serif" font-size="12" lengthAdjust="spacingAndGlyphs" textLength="101" x="331.5" y="304.1543">PhysicsManager</text><rect fill="#FEFECE" filter="url(#f1)" height="32" style="stroke: #A80036; stroke-width: 1.5;" width="122" x="145" y="284"/><ellipse cx="160" cy="300" fill="#ADD1B2" rx="11" ry="11" style="stroke: #A80036; stroke-width: 1.0;"/><path d="M162.9688,305.6406 Q162.3906,305.9375 161.75,306.0859 Q161.1094,306.2344 160.4063,306.2344 Q157.9063,306.2344 156.5859,304.5859 Q155.2656,302.9375 155.2656,299.8125 Q155.2656,296.6875 156.5859,295.0313 Q157.9063,293.375 160.4063,293.375 Q161.1094,293.375 161.7578,293.5313 Q162.4063,293.6875 162.9688,293.9844 L162.9688,296.7031 Q162.3438,296.125 161.75,295.8516 Q161.1563,295.5781 160.5313,295.5781 Q159.1875,295.5781 158.5,296.6484 Q157.8125,297.7188 157.8125,299.8125 Q157.8125,301.9063 158.5,302.9766 Q159.1875,304.0469 160.5313,304.0469 Q161.1563,304.0469 161.75,303.7734 Q162.3438,303.5 162.9688,302.9219 L162.9688,305.6406 Z "/><text fill="#000000" font-family="sans-serif" font-size="12" lengthAdjust="spacingAndGlyphs" textLength="90" x="174" y="304.1543">AudioManager</text><rect fill="#FEFECE" filter="url(#f1)" height="32" style="stroke: #A80036; stroke-width: 1.5;" width="68" x="104" y="8"/><ellipse cx="119" cy="24" fill="#ADD1B2" rx="11" ry="11" style="stroke: #A80036; stroke-width: 1.0;"/><path d="M121.9688,29.6406 Q121.3906,29.9375 120.75,30.0859 Q120.1094,30.2344 119.4063,30.2344 Q116.9063,30.2344 115.5859,28.5859 Q114.2656,26.9375 114.2656,23.8125 Q114.2656,20.6875 115.5859,19.0313 Q116.9063,17.375 119.4063,17.375 Q120.1094,17.375 120.7578,17.5313 Q121.4063,17.6875 121.9688,17.9844 L121.9688,20.7031 Q121.3438,20.125 120.75,19.8516 Q120.1563,19.5781 119.5313,19.5781 Q118.1875,19.5781 117.5,20.6484 Q116.8125,21.7188 116.8125,23.8125 Q116.8125,25.9063 117.5,26.9766 Q118.1875,28.0469 119.5313,28.0469 Q120.1563,28.0469 120.75,27.7734 Q121.3438,27.5 121.9688,26.9219 L121.9688,29.6406 Z "/><text fill="#000000" font-family="sans-serif" font-size="12" lengthAdjust="spacingAndGlyphs" textLength="36" x="133" y="28.1543">Game</text><rect fill="#FEFECE" filter="url(#f1)" height="32" style="stroke: #A80036; stroke-width: 1.5;" width="87" x="33.5" y="100"/><ellipse cx="48.5" cy="116" fill="#ADD1B2" rx="11" ry="11" style="stroke: #A80036; stroke-width: 1.0;"/><path d="M51.4688,121.6406 Q50.8906,121.9375 50.25,122.0859 Q49.6094,122.2344 48.9063,122.2344 Q46.4063,122.2344 45.0859,120.5859 Q43.7656,118.9375 43.7656,115.8125 Q43.7656,112.6875 45.0859,111.0313 Q46.4063,109.375 48.9063,109.375 Q49.6094,109.375 50.2578,109.5313 Q50.9063,109.6875 51.4688,109.9844 L51.4688,112.7031 Q50.8438,112.125 50.25,111.8516 Q49.6563,111.5781 49.0313,111.5781 Q47.6875,111.5781 47,112.6484 Q46.3125,113.7188 46.3125,115.8125 Q46.3125,117.9063 47,118.9766 Q47.6875,120.0469 49.0313,120.0469 Q49.6563,120.0469 50.25,119.7734 Q50.8438,119.5 51.4688,118.9219 L51.4688,121.6406 Z "/><text fill="#000000" font-family="sans-serif" font-size="12" lengthAdjust="spacingAndGlyphs" textLength="55" x="62.5" y="120.1543">Scenario</text><rect fill="#FEFECE" filter="url(#f1)" height="32" style="stroke: #A80036; stroke-width: 1.5;" width="67" x="30.5" y="192"/><ellipse cx="45.5" cy="208" fill="#ADD1B2" rx="11" ry="11" style="stroke: #A80036; stroke-width: 1.0;"/><path d="M48.4688,213.6406 Q47.8906,213.9375 47.25,214.0859 Q46.6094,214.2344 45.9063,214.2344 Q43.4063,214.2344 42.0859,212.5859 Q40.7656,210.9375 40.7656,207.8125 Q40.7656,204.6875 42.0859,203.0313 Q43.4063,201.375 45.9063,201.375 Q46.6094,201.375 47.2578,201.5313 Q47.9063,201.6875 48.4688,201.9844 L48.4688,204.7031 Q47.8438,204.125 47.25,203.8516 Q46.6563,203.5781 46.0313,203.5781 Q44.6875,203.5781 44,204.6484 Q43.3125,205.7188 43.3125,207.8125 Q43.3125,209.9063 44,210.9766 Q44.6875,212.0469 46.0313,212.0469 Q46.6563,212.0469 47.25,211.7734 Q47.8438,211.5 48.4688,210.9219 L48.4688,213.6406 Z "/><text fill="#000000" font-family="sans-serif" font-size="12" lengthAdjust="spacingAndGlyphs" textLength="35" x="59.5" y="212.1543">Entity</text><rect fill="#FEFECE" filter="url(#f1)" height="32" style="stroke: #A80036; stroke-width: 1.5;" width="150" x="261" y="376"/><ellipse cx="276" cy="392" fill="#ADD1B2" rx="11" ry="11" style="stroke: #A80036; stroke-width: 1.0;"/><path d="M278.9688,397.6406 Q278.3906,397.9375 277.75,398.0859 Q277.1094,398.2344 276.4063,398.2344 Q273.9063,398.2344 272.5859,396.5859 Q271.2656,394.9375 271.2656,391.8125 Q271.2656,388.6875 272.5859,387.0313 Q273.9063,385.375 276.4063,385.375 Q277.1094,385.375 277.7578,385.5313 Q278.4063,385.6875 278.9688,385.9844 L278.9688,388.7031 Q278.3438,388.125 277.75,387.8516 Q277.1563,387.5781 276.5313,387.5781 Q275.1875,387.5781 274.5,388.6484 Q273.8125,389.7188 273.8125,391.8125 Q273.8125,393.9063 274.5,394.9766 Q275.1875,396.0469 276.5313,396.0469 Q277.1563,396.0469 277.75,395.7734 Q278.3438,395.5 278.9688,394.9219 L278.9688,397.6406 Z "/><text fill="#000000" font-family="sans-serif" font-size="12" lengthAdjust="spacingAndGlyphs" textLength="118" x="290" y="396.1543">PhysicsComponent</text><rect fill="#FEFECE" filter="url(#f1)" height="32" style="stroke: #A80036; stroke-width: 1.5;" width="139" x="53.5" y="376"/><ellipse cx="68.5" cy="392" fill="#ADD1B2" rx="11" ry="11" style="stroke: #A80036; stroke-width: 1.0;"/><path d="M71.4688,397.6406 Q70.8906,397.9375 70.25,398.0859 Q69.6094,398.2344 68.9063,398.2344 Q66.4063,398.2344 65.0859,396.5859 Q63.7656,394.9375 63.7656,391.8125 Q63.7656,388.6875 65.0859,387.0313 Q66.4063,385.375 68.9063,385.375 Q69.6094,385.375 70.2578,385.5313 Q70.9063,385.6875 71.4688,385.9844 L71.4688,388.7031 Q70.8438,388.125 70.25,387.8516 Q69.6563,387.5781 69.0313,387.5781 Q67.6875,387.5781 67,388.6484 Q66.3125,389.7188 66.3125,391.8125 Q66.3125,393.9063 67,394.9766 Q67.6875,396.0469 69.0313,396.0469 Q69.6563,396.0469 70.25,395.7734 Q70.8438,395.5 71.4688,394.9219 L71.4688,397.6406 Z "/><text fill="#000000" font-family="sans-serif" font-size="12" lengthAdjust="spacingAndGlyphs" textLength="107" x="82.5" y="396.1543">AudioComponent</text><path d="M251.041,233.869 C280.088,249.907 316.917,270.243 341.628,283.887 " fill="none" style="stroke: #A80036; stroke-width: 1.0;"/><polygon fill="none" points="247.407,239.859,233.283,224.064,254.175,227.603,247.407,239.859" style="stroke: #A80036; stroke-width: 1.0;"/><path d="M206,244.615 C206,258.31 206,273.22 206,283.958 " fill="none" style="stroke: #A80036; stroke-width: 1.0;"/><polygon fill="none" points="199,244.267,206,224.267,213,244.267,199,244.267" style="stroke: #A80036; stroke-width: 1.0;"/><path d="M148.307,52.588 C162.869,91.561 188.959,161.391 200.383,191.967 " fill="none" style="stroke: #A80036; stroke-width: 1.0;"/><polygon fill="#A80036" points="143.681,40.204,142.0338,47.2245,147.8808,51.4451,149.5279,44.4246,143.681,40.204" style="stroke: #A80036; stroke-width: 1.0;"/><text fill="#000000" font-family="sans-serif" font-size="13" lengthAdjust="spacingAndGlyphs" textLength="8" x="136.2378" y="60.1448">1</text><text fill="#000000" font-family="sans-serif" font-size="13" lengthAdjust="spacingAndGlyphs" textLength="7" x="190.249" y="180.9673">*</text><path d="M120.063,51.465 C109.353,67.266 96.1396,86.761 87.195,99.958 " fill="none" style="stroke: #A80036; stroke-width: 1.0;"/><polygon fill="#A80036" points="127.652,40.267,120.9747,42.9899,120.92,50.2008,127.5973,47.4779,127.652,40.267" style="stroke: #A80036; stroke-width: 1.0;"/><path d="M72.9064,145.34 C70.6755,160.785 68.0042,179.279 66.1727,191.958 " fill="none" style="stroke: #A80036; stroke-width: 1.0;"/><polygon fill="#A80036" points="74.7947,132.267,69.978,137.6335,73.0791,144.1437,77.8958,138.7772,74.7947,132.267" style="stroke: #A80036; stroke-width: 1.0;"/><text fill="#000000" font-family="sans-serif" font-size="13" lengthAdjust="spacingAndGlyphs" textLength="8" x="64.8168" y="151.9308">1</text><text fill="#000000" font-family="sans-serif" font-size="13" lengthAdjust="spacingAndGlyphs" textLength="36" x="24.7321" y="180.9552">many</text><path d="M62.1107,237.34 C61.081,252.785 59.8481,271.279 59.0028,283.958 " fill="none" style="stroke: #A80036; stroke-width: 1.0;"/><polygon fill="#A80036" points="62.9822,224.267,58.5922,229.9878,62.1844,236.2405,66.5745,230.5197,62.9822,224.267" style="stroke: #A80036; stroke-width: 1.0;"/><text fill="#000000" font-family="sans-serif" font-size="13" lengthAdjust="spacingAndGlyphs" textLength="8" x="53.3828" y="243.9308">1</text><text fill="#000000" font-family="sans-serif" font-size="13" lengthAdjust="spacingAndGlyphs" textLength="36" x="17.16" y="272.9552">many</text><path d="M123.741,322.2831 C174.667,338.7697 243.96,361.203 289.317,375.8869 " fill="none" style="stroke: #A80036; stroke-width: 1.0;"/><polygon fill="none" points="121.403,328.8838,104.5309,316.064,125.715,315.5644,121.403,328.8838" style="stroke: #A80036; stroke-width: 1.0;"/><path d="M80.8895,332.6931 C91.5092,347.3974 103.6333,364.1845 112.136,375.9582 " fill="none" style="stroke: #A80036; stroke-width: 1.0;"/><polygon fill="none" points="75.0615,336.5793,69.0264,316.2673,86.411,328.3824,75.0615,336.5793" style="stroke: #A80036; stroke-width: 1.0;"/><path d="M363.402,316.2673 C357.869,331.3565 349.376,354.5188 343.313,371.0552 " fill="none" style="stroke: #A80036; stroke-width: 1.0;"/><polygon fill="#A80036" points="341.515,375.9582,348.3691,368.8856,343.2364,371.2639,340.8581,366.1313,341.515,375.9582" style="stroke: #A80036; stroke-width: 1.0;"/><path d="M191.92,316.2673 C177.765,331.6167 155.905,355.3199 140.61,371.9046 " fill="none" style="stroke: #A80036; stroke-width: 1.0;"/><polygon fill="#A80036" points="136.872,375.9582,145.9139,372.0538,140.2616,372.2826,140.0328,366.6303,136.872,375.9582" style="stroke: #A80036; stroke-width: 1.0;"/></g></svg>