<?xml version="1.0" encoding="UTF-8" standalone="yes"?><svg xmlns="http://www.w3.org/2000/svg" xmlns:xlink="http://www.w3.org/1999/xlink" height="437px" style="width:257px;height:437px;" version="1.1" viewBox="0 0 257 437" width="257px"><defs><filter height="300%" id="f1" width="300%" x="-1" y="-1"><feGaussianBlur result="blurOut" stdDeviation="2.0"/><feColorMatrix in="blurOut" result="blurOut2" type="matrix" values="0 0 0 0 0 0 0 0 0 0 0 0 0 0 0 0 0 0 .4 0"/><feOffset dx="4.0" dy="4.0" in="blurOut2" result="blurOut3"/><feBlend in="SourceGraphic" in2="blurOut3" mode="normal"/></filter></defs><g><rect fill="#FEFECE" filter="url(#f1)" height="32" style="stroke: #A80036; stroke-width: 1.5;" width="68" x="180" y="101"/><ellipse cx="195" cy="117" fill="#A9DCDF" rx="11" ry="11" style="stroke: #A80036; stroke-width: 1.0;"/><path d="M195.1094,112.3438 L193.9531,117.4219 L196.2813,117.4219 L195.1094,112.3438 Z M193.625,110.1094 L196.6094,110.1094 L199.9688,122.5 L197.5156,122.5 L196.75,119.4375 L193.4688,119.4375 L192.7188,122.5 L190.2813,122.5 L193.625,110.1094 Z "/><text fill="#000000" font-family="sans-serif" font-size="12" font-style="italic" lengthAdjust="spacingAndGlyphs" textLength="36" x="209" y="121.1543">Entity</text><rect fill="#FEFECE" filter="url(#f1)" height="32" style="stroke: #A80036; stroke-width: 1.5;" width="83" x="101.5" y="194"/><ellipse cx="116.5" cy="210" fill="#A9DCDF" rx="11" ry="11" style="stroke: #A80036; stroke-width: 1.0;"/><path d="M116.6094,205.3438 L115.4531,210.4219 L117.7813,210.4219 L116.6094,205.3438 Z M115.125,203.1094 L118.1094,203.1094 L121.4688,215.5 L119.0156,215.5 L118.25,212.4375 L114.9688,212.4375 L114.2188,215.5 L111.7813,215.5 L115.125,203.1094 Z "/><text fill="#000000" font-family="sans-serif" font-size="12" font-style="italic" lengthAdjust="spacingAndGlyphs" textLength="51" x="130.5" y="214.1543">Movable</text><rect fill="#FEFECE" filter="url(#f1)" height="32" style="stroke: #A80036; stroke-width: 1.5;" width="83" x="121.5" y="396"/><ellipse cx="136.5" cy="412" fill="#ADD1B2" rx="11" ry="11" style="stroke: #A80036; stroke-width: 1.0;"/><path d="M139.4688,417.6406 Q138.8906,417.9375 138.25,418.0859 Q137.6094,418.2344 136.9063,418.2344 Q134.4063,418.2344 133.0859,416.5859 Q131.7656,414.9375 131.7656,411.8125 Q131.7656,408.6875 133.0859,407.0313 Q134.4063,405.375 136.9063,405.375 Q137.6094,405.375 138.2578,405.5313 Q138.9063,405.6875 139.4688,405.9844 L139.4688,408.7031 Q138.8438,408.125 138.25,407.8516 Q137.6563,407.5781 137.0313,407.5781 Q135.6875,407.5781 135,408.6484 Q134.3125,409.7188 134.3125,411.8125 Q134.3125,413.9063 135,414.9766 Q135.6875,416.0469 137.0313,416.0469 Q137.6563,416.0469 138.25,415.7734 Q138.8438,415.5 139.4688,414.9219 L139.4688,417.6406 Z "/><text fill="#000000" font-family="sans-serif" font-size="12" lengthAdjust="spacingAndGlyphs" textLength="51" x="150.5" y="416.1543">Weapon</text><rect fill="#FEFECE" filter="url(#f1)" height="32" style="stroke: #A80036; stroke-width: 1.5;" width="70" x="6" y="287"/><ellipse cx="21" cy="303" fill="#ADD1B2" rx="11" ry="11" style="stroke: #A80036; stroke-width: 1.0;"/><path d="M23.9688,308.6406 Q23.3906,308.9375 22.75,309.0859 Q22.1094,309.2344 21.4063,309.2344 Q18.9063,309.2344 17.5859,307.5859 Q16.2656,305.9375 16.2656,302.8125 Q16.2656,299.6875 17.5859,298.0313 Q18.9063,296.375 21.4063,296.375 Q22.1094,296.375 22.7578,296.5313 Q23.4063,296.6875 23.9688,296.9844 L23.9688,299.7031 Q23.3438,299.125 22.75,298.8516 Q22.1563,298.5781 21.5313,298.5781 Q20.1875,298.5781 19.5,299.6484 Q18.8125,300.7188 18.8125,302.8125 Q18.8125,304.9063 19.5,305.9766 Q20.1875,307.0469 21.5313,307.0469 Q22.1563,307.0469 22.75,306.7734 Q23.3438,306.5 23.9688,305.9219 L23.9688,308.6406 Z "/><text fill="#000000" font-family="sans-serif" font-size="12" lengthAdjust="spacingAndGlyphs" textLength="38" x="35" y="307.1543">Player</text><rect fill="#FEFECE" filter="url(#f1)" height="32" style="stroke: #A80036; stroke-width: 1.5;" width="73" x="111.5" y="287"/><ellipse cx="126.5" cy="303" fill="#ADD1B2" rx="11" ry="11" style="stroke: #A80036; stroke-width: 1.0;"/><path d="M129.4688,308.6406 Q128.8906,308.9375 128.25,309.0859 Q127.6094,309.2344 126.9063,309.2344 Q124.4063,309.2344 123.0859,307.5859 Q121.7656,305.9375 121.7656,302.8125 Q121.7656,299.6875 123.0859,298.0313 Q124.4063,296.375 126.9063,296.375 Q127.6094,296.375 128.2578,296.5313 Q128.9063,296.6875 129.4688,296.9844 L129.4688,299.7031 Q128.8438,299.125 128.25,298.8516 Q127.6563,298.5781 127.0313,298.5781 Q125.6875,298.5781 125,299.6484 Q124.3125,300.7188 124.3125,302.8125 Q124.3125,304.9063 125,305.9766 Q125.6875,307.0469 127.0313,307.0469 Q127.6563,307.0469 128.25,306.7734 Q128.8438,306.5 129.4688,305.9219 L129.4688,308.6406 Z "/><text fill="#000000" font-family="sans-serif" font-size="12" lengthAdjust="spacingAndGlyphs" textLength="41" x="140.5" y="307.1543">Enemy</text><rect fill="#FEFECE" filter="url(#f1)" height="32" style="stroke: #A80036; stroke-width: 1.5;" width="68" x="180" y="8"/><ellipse cx="195" cy="24" fill="#ADD1B2" rx="11" ry="11" style="stroke: #A80036; stroke-width: 1.0;"/><path d="M197.9688,29.6406 Q197.3906,29.9375 196.75,30.0859 Q196.1094,30.2344 195.4063,30.2344 Q192.9063,30.2344 191.5859,28.5859 Q190.2656,26.9375 190.2656,23.8125 Q190.2656,20.6875 191.5859,19.0313 Q192.9063,17.375 195.4063,17.375 Q196.1094,17.375 196.7578,17.5313 Q197.4063,17.6875 197.9688,17.9844 L197.9688,20.7031 Q197.3438,20.125 196.75,19.8516 Q196.1563,19.5781 195.5313,19.5781 Q194.1875,19.5781 193.5,20.6484 Q192.8125,21.7188 192.8125,23.8125 Q192.8125,25.9063 193.5,26.9766 Q194.1875,28.0469 195.5313,28.0469 Q196.1563,28.0469 196.75,27.7734 Q197.3438,27.5 197.9688,26.9219 L197.9688,29.6406 Z "/><text fill="#000000" font-family="sans-serif" font-size="12" lengthAdjust="spacingAndGlyphs" textLength="36" x="209" y="28.1543">Game</text><path d="M189.622,149.246 C177.823,164.367 164.202,181.826 154.742,193.951 " fill="none" style="stroke: #A80036; stroke-width: 1.0;"/><polygon fill="none" points="184.454,144.489,202.276,133.027,195.492,153.101,184.454,144.489" style="stroke: #A80036; stroke-width: 1.0;"/><path d="M218.105,153.28 C222.436,202.739 225.219,294.628 197,366 C192.68,376.927 184.939,387.4976 177.934,395.645 " fill="none" style="stroke: #A80036; stroke-width: 1.0;"/><polygon fill="none" points="211.126,153.834,216.049,133.224,225.053,152.406,211.126,153.834" style="stroke: #A80036; stroke-width: 1.0;"/><path d="M110.987,239.56 C93.389,255.261 72.2717,274.101 57.8682,286.951 " fill="none" style="stroke: #A80036; stroke-width: 1.0;"/><polygon fill="none" points="106.573,234.118,126.157,226.027,115.893,244.565,106.573,234.118" style="stroke: #A80036; stroke-width: 1.0;"/><path d="M144.936,246.238 C145.712,260.363 146.565,275.88 147.173,286.951 " fill="none" style="stroke: #A80036; stroke-width: 1.0;"/><polygon fill="none" points="137.934,246.381,143.826,226.027,151.912,245.613,137.934,246.381" style="stroke: #A80036; stroke-width: 1.0;"/><path d="M214,53.319 C214,69.067 214,88.035 214,100.951 " fill="none" style="stroke: #A80036; stroke-width: 1.0;"/><polygon fill="#A80036" points="214,40.027,210,46.027,214,52.027,218,46.027,214,40.027" style="stroke: #A80036; stroke-width: 1.0;"/><text fill="#000000" font-family="sans-serif" font-size="13" lengthAdjust="spacingAndGlyphs" textLength="8" x="204.625" y="60.2041">1</text><text fill="#000000" font-family="sans-serif" font-size="13" lengthAdjust="spacingAndGlyphs" textLength="7" x="205.7969" y="89.9458">*</text><path d="M68.0299,327.707 C91.7924,348.5474 125.652,378.2438 145.867,395.9733 " fill="none" style="stroke: #A80036; stroke-width: 1.0;"/><polygon fill="none" points="58.2209,319.104,60.0941,326.0675,67.2425,327.0167,65.3693,320.0531,58.2209,319.104" style="stroke: #A80036; stroke-width: 1.0;"/><text fill="#000000" font-family="sans-serif" font-size="13" lengthAdjust="spacingAndGlyphs" textLength="77" x="111" y="362.0669">aggregation</text></g></svg>