<?xml version="1.0" encoding="UTF-8" standalone="no"?><svg xmlns="http://www.w3.org/2000/svg" xmlns:xlink="http://www.w3.org/1999/xlink" contentScriptType="application/ecmascript" contentStyleType="text/css" height="439px" preserveAspectRatio="none" style="width:250px;height:439px;" version="1.1" viewBox="0 0 250 439" width="250px" zoomAndPan="magnify"><defs><filter height="300%" id="fd28d75" width="300%" x="-1" y="-1"><feGaussianBlur result="blurOut" stdDeviation="2.0"/><feColorMatrix in="blurOut" result="blurOut2" type="matrix" values="0 0 0 0 0 0 0 0 0 0 0 0 0 0 0 0 0 0 .4 0"/><feOffset dx="4.0" dy="4.0" in="blurOut2" result="blurOut3"/><feBlend in="SourceGraphic" in2="blurOut3" mode="normal"/></filter></defs><g><!--class Entity--><rect fill="#FEFECE" filter="url(#fd28d75)" height="32" style="stroke: #A80036; stroke-width: 1.5;" width="62" x="177.5" y="101"/><ellipse cx="192.5" cy="117" fill="#A9DCDF" rx="11" ry="11" style="stroke: #A80036; stroke-width: 1.0;"/><path d="M197.7031,121.5 L195.2656,121.5 L194.5,118.7656 L190.7188,118.7656 L189.9531,121.5 L187.5,121.5 L191.1719,110.2969 L194.0313,110.2969 L197.7031,121.5 Z M192.6094,111.8125 Q192.5313,112.1563 192.3594,112.8516 Q192.1875,113.5469 191.2344,116.9219 L193.9844,116.9219 Q193.0156,113.5 192.8438,112.8281 Q192.6719,112.1563 192.6094,111.8125 Z "/><text fill="#000000" font-family="sans-serif" font-size="12" font-style="italic" lengthAdjust="spacingAndGlyphs" textLength="30" x="206.5" y="121.6553">Entity</text><!--class Movable--><rect fill="#FEFECE" filter="url(#fd28d75)" height="32" style="stroke: #A80036; stroke-width: 1.5;" width="78" x="100.5" y="194"/><ellipse cx="115.5" cy="210" fill="#A9DCDF" rx="11" ry="11" style="stroke: #A80036; stroke-width: 1.0;"/><path d="M120.7031,214.5 L118.2656,214.5 L117.5,211.7656 L113.7188,211.7656 L112.9531,214.5 L110.5,214.5 L114.1719,203.2969 L117.0313,203.2969 L120.7031,214.5 Z M115.6094,204.8125 Q115.5313,205.1563 115.3594,205.8516 Q115.1875,206.5469 114.2344,209.9219 L116.9844,209.9219 Q116.0156,206.5 115.8438,205.8281 Q115.6719,205.1563 115.6094,204.8125 Z "/><text fill="#000000" font-family="sans-serif" font-size="12" font-style="italic" lengthAdjust="spacingAndGlyphs" textLength="46" x="129.5" y="214.6553">Movable</text><!--class Weapon--><rect fill="#FEFECE" filter="url(#fd28d75)" height="32" style="stroke: #A80036; stroke-width: 1.5;" width="78" x="119.5" y="398"/><ellipse cx="134.5" cy="414" fill="#ADD1B2" rx="11" ry="11" style="stroke: #A80036; stroke-width: 1.0;"/><path d="M132.4063,413.8438 Q132.4063,415.7188 132.9844,416.7266 Q133.5625,417.7344 134.7188,417.7344 Q136.0625,417.7344 136.7188,415.7188 L138.9844,416.1406 Q137.875,419.6719 134.7031,419.6719 Q132.3594,419.6719 131.1406,418.1875 Q129.9219,416.7031 129.9219,413.8438 Q129.9219,408.125 134.625,408.125 Q136.1719,408.125 137.2109,408.9375 Q138.25,409.75 138.75,411.3594 L136.4844,411.9063 Q136.25,411.0313 135.7656,410.5391 Q135.2813,410.0469 134.6563,410.0469 Q132.4063,410.0469 132.4063,413.8438 Z "/><text fill="#000000" font-family="sans-serif" font-size="12" lengthAdjust="spacingAndGlyphs" textLength="46" x="148.5" y="418.6553">Weapon</text><!--class Player--><rect fill="#FEFECE" filter="url(#fd28d75)" height="32" style="stroke: #A80036; stroke-width: 1.5;" width="67" x="6" y="287"/><ellipse cx="21" cy="303" fill="#ADD1B2" rx="11" ry="11" style="stroke: #A80036; stroke-width: 1.0;"/><path d="M18.9063,302.8438 Q18.9063,304.7188 19.4844,305.7266 Q20.0625,306.7344 21.2188,306.7344 Q22.5625,306.7344 23.2188,304.7188 L25.4844,305.1406 Q24.375,308.6719 21.2031,308.6719 Q18.8594,308.6719 17.6406,307.1875 Q16.4219,305.7031 16.4219,302.8438 Q16.4219,297.125 21.125,297.125 Q22.6719,297.125 23.7109,297.9375 Q24.75,298.75 25.25,300.3594 L22.9844,300.9063 Q22.75,300.0313 22.2656,299.5391 Q21.7813,299.0469 21.1563,299.0469 Q18.9063,299.0469 18.9063,302.8438 Z "/><text fill="#000000" font-family="sans-serif" font-size="12" lengthAdjust="spacingAndGlyphs" textLength="35" x="35" y="307.6553">Player</text><!--class Enemy--><rect fill="#FEFECE" filter="url(#fd28d75)" height="32" style="stroke: #A80036; stroke-width: 1.5;" width="70" x="108.5" y="287"/><ellipse cx="123.5" cy="303" fill="#ADD1B2" rx="11" ry="11" style="stroke: #A80036; stroke-width: 1.0;"/><path d="M121.4063,302.8438 Q121.4063,304.7188 121.9844,305.7266 Q122.5625,306.7344 123.7188,306.7344 Q125.0625,306.7344 125.7188,304.7188 L127.9844,305.1406 Q126.875,308.6719 123.7031,308.6719 Q121.3594,308.6719 120.1406,307.1875 Q118.9219,305.7031 118.9219,302.8438 Q118.9219,297.125 123.625,297.125 Q125.1719,297.125 126.2109,297.9375 Q127.25,298.75 127.75,300.3594 L125.4844,300.9063 Q125.25,300.0313 124.7656,299.5391 Q124.2813,299.0469 123.6563,299.0469 Q121.4063,299.0469 121.4063,302.8438 Z "/><text fill="#000000" font-family="sans-serif" font-size="12" lengthAdjust="spacingAndGlyphs" textLength="38" x="137.5" y="307.6553">Enemy</text><!--class Game--><rect fill="#FEFECE" filter="url(#fd28d75)" height="32" style="stroke: #A80036; stroke-width: 1.5;" width="66" x="175.5" y="8"/><ellipse cx="190.5" cy="24" fill="#ADD1B2" rx="11" ry="11" style="stroke: #A80036; stroke-width: 1.0;"/><path d="M188.4063,23.8438 Q188.4063,25.7188 188.9844,26.7266 Q189.5625,27.7344 190.7188,27.7344 Q192.0625,27.7344 192.7188,25.7188 L194.9844,26.1406 Q193.875,29.6719 190.7031,29.6719 Q188.3594,29.6719 187.1406,28.1875 Q185.9219,26.7031 185.9219,23.8438 Q185.9219,18.125 190.625,18.125 Q192.1719,18.125 193.2109,18.9375 Q194.25,19.75 194.75,21.3594 L192.4844,21.9063 Q192.25,21.0313 191.7656,20.5391 Q191.2813,20.0469 190.6563,20.0469 Q188.4063,20.0469 188.4063,23.8438 Z "/><text fill="#000000" font-family="sans-serif" font-size="12" lengthAdjust="spacingAndGlyphs" textLength="34" x="204.5" y="28.6553">Game</text><path d="M184.808,149.246 C173.342,164.367 160.105,181.826 150.911,193.951 " fill="none" style="stroke: #A80036; stroke-width: 1.0;"/><polygon fill="none" points="179.444,144.734,197.106,133.027,190.6,153.193,179.444,144.734" style="stroke: #A80036; stroke-width: 1.0;"/><path d="M212.113,153.431 C215.83,203.13 217.755,295.573 190.5,368 C186.381,378.9461 178.92,389.6792 172.238,397.9164 " fill="none" style="stroke: #A80036; stroke-width: 1.0;"/><polygon fill="none" points="205.121,153.825,210.321,133.284,219.066,152.585,205.121,153.825" style="stroke: #A80036; stroke-width: 1.0;"/><path d="M108.115,239.56 C90.8618,255.261 70.1586,274.101 56.0375,286.951 " fill="none" style="stroke: #A80036; stroke-width: 1.0;"/><polygon fill="none" points="103.4836,234.31,122.987,226.027,112.906,244.665,103.4836,234.31" style="stroke: #A80036; stroke-width: 1.0;"/><path d="M141.049,246.238 C141.67,260.363 142.352,275.88 142.839,286.951 " fill="none" style="stroke: #A80036; stroke-width: 1.0;"/><polygon fill="none" points="134.046,246.315,140.161,226.027,148.032,245.7,134.046,246.315" style="stroke: #A80036; stroke-width: 1.0;"/><path d="M208.5,53.319 C208.5,69.067 208.5,88.035 208.5,100.951 " fill="none" style="stroke: #A80036; stroke-width: 1.0;"/><polygon fill="#A80036" points="208.5,40.027,204.5,46.027,208.5,52.027,212.5,46.027,208.5,40.027" style="stroke: #A80036; stroke-width: 1.0;"/><text fill="#000000" font-family="sans-serif" font-size="13" lengthAdjust="spacingAndGlyphs" textLength="7" x="200.3844" y="61.8521">1</text><text fill="#000000" font-family="sans-serif" font-size="13" lengthAdjust="spacingAndGlyphs" textLength="7" x="200.2531" y="89.2258">*</text><path d="M65.6548,327.957 C88.9632,349.3066 122.354,379.8915 142.094,397.9727 " fill="none" style="stroke: #A80036; stroke-width: 1.0;"/><polygon fill="#FFFFFF" points="56.0464,319.156,57.7688,326.1584,64.895,327.2617,63.1726,320.2593,56.0464,319.156" style="stroke: #A80036; stroke-width: 1.0;"/><text fill="#000000" font-family="sans-serif" font-size="13" lengthAdjust="spacingAndGlyphs" textLength="74" x="107.5" y="363.895">aggregation</text></g></svg>