<?xml version="1.0" encoding="UTF-8" standalone="no"?>
<!DOCTYPE svg PUBLIC "-//W3C//DTD SVG 1.1//EN"
 "http://www.w3.org/Graphics/SVG/1.1/DTD/svg11.dtd">
<!-- Generated by graphviz version 2.38.0 (20140413.2041)
 -->
<!-- Title: %3 Pages: 1 -->
<svg width="751pt" height="77pt"
 viewBox="0.00 0.00 750.59 77.50" xmlns="http://www.w3.org/2000/svg" xmlns:xlink="http://www.w3.org/1999/xlink">
<g id="graph0" class="graph" transform="scale(1 1) rotate(0) translate(4 73.5)">
<title>%3</title>
<!-- compilador -->
<g id="node1" class="node"><title>compilador</title>
<ellipse fill="none" stroke="black" cx="355.345" cy="-18.5" rx="51.1914" ry="18"/>
<text text-anchor="middle" x="355.345" y="-14.8" font-family="Times,serif" font-size="14.00">compilador</text>
</g>
<!-- compilador&#45;&gt;compilador -->
<g id="edge2" class="edge"><title>compilador&#45;&gt;compilador</title>
<path fill="none" stroke="black" d="M329.445,-34.416C322.689,-44.6504 331.322,-54.5 355.345,-54.5 371.111,-54.5 380.248,-50.2581 382.758,-44.4494"/>
<polygon fill="black" stroke="black" points="386.197,-43.7828 381.246,-34.416 379.275,-44.826 386.197,-43.7828"/>
<text text-anchor="middle" x="355.345" y="-58.3" font-family="Times,serif" font-size="14.00">(2) todo se transforma en código máquina</text>
</g>
<!-- processor -->
<g id="node2" class="node"><title>processor</title>
<ellipse fill="none" stroke="black" cx="661.087" cy="-18.5" rx="49.2915" ry="18"/>
<text text-anchor="middle" x="661.087" y="-14.8" font-family="Times,serif" font-size="14.00">procesador</text>
</g>
<!-- compilador&#45;&gt;processor -->
<g id="edge3" class="edge"><title>compilador&#45;&gt;processor</title>
<path fill="none" stroke="black" d="M406.843,-18.5C460.361,-18.5 544.788,-18.5 601.272,-18.5"/>
<polygon fill="black" stroke="black" points="601.479,-22.0001 611.479,-18.5 601.479,-15.0001 601.479,-22.0001"/>
<text text-anchor="middle" x="509.191" y="-22.3" font-family="Times,serif" font-size="14.00">(3) todo se envía al procesador</text>
</g>
<!-- processor&#45;&gt;processor -->
<g id="edge4" class="edge"><title>processor&#45;&gt;processor</title>
<path fill="none" stroke="black" d="M635.44,-34.0414C628.221,-44.4087 636.77,-54.5 661.087,-54.5 677.044,-54.5 686.211,-50.154 688.588,-44.2362"/>
<polygon fill="black" stroke="black" points="691.966,-43.2533 686.733,-34.0414 685.08,-44.5065 691.966,-43.2533"/>
<text text-anchor="middle" x="661.087" y="-58.3" font-family="Times,serif" font-size="14.00">(4) el procesador ejecuta todo</text>
</g>
<!-- program -->
<g id="node3" class="node"><title>program</title>
<polygon fill="none" stroke="black" points="0,-0.5 0,-36.5 106,-36.5 106,-0.5 0,-0.5"/>
<text text-anchor="middle" x="13" y="-14.8" font-family="Times,serif" font-size="14.00">A</text>
<polyline fill="none" stroke="black" points="26,-0.5 26,-36.5 "/>
<text text-anchor="middle" x="39" y="-14.8" font-family="Times,serif" font-size="14.00">B</text>
<polyline fill="none" stroke="black" points="52,-0.5 52,-36.5 "/>
<text text-anchor="middle" x="65" y="-14.8" font-family="Times,serif" font-size="14.00">C</text>
<polyline fill="none" stroke="black" points="78,-0.5 78,-36.5 "/>
<text text-anchor="middle" x="92" y="-14.8" font-family="Times,serif" font-size="14.00">...</text>
</g>
<!-- program&#45;&gt;compilador -->
<g id="edge1" class="edge"><title>program&#45;&gt;compilador</title>
<path fill="none" stroke="black" d="M106.316,-18.5C158.421,-18.5 238.363,-18.5 293.328,-18.5"/>
<polygon fill="black" stroke="black" points="293.63,-22.0001 303.63,-18.5 293.629,-15.0001 293.63,-22.0001"/>
<text text-anchor="middle" x="205" y="-22.3" font-family="Times,serif" font-size="14.00">(1) todo el programa se envía</text>
</g>
</g>
</svg>
