<?xml version="1.0" encoding="UTF-8" standalone="no"?>
<!DOCTYPE svg PUBLIC "-//W3C//DTD SVG 1.1//EN"
 "http://www.w3.org/Graphics/SVG/1.1/DTD/svg11.dtd">
<!-- Generated by graphviz version 2.38.0 (20140413.2041)
 -->
<!-- Title: %3 Pages: 1 -->
<svg width="774pt" height="78pt"
 viewBox="0.00 0.00 774.44 77.50" xmlns="http://www.w3.org/2000/svg" xmlns:xlink="http://www.w3.org/1999/xlink">
<g id="graph0" class="graph" transform="scale(1 1) rotate(0) translate(4 73.5)">
<title>%3</title>
<polygon fill="white" stroke="none" points="-4,4 -4,-73.5 770.436,-73.5 770.436,4 -4,4"/>
<!-- compilador -->
<g id="node1" class="node"><title>compilador</title>
<ellipse fill="none" stroke="black" cx="365.295" cy="-18.5" rx="53.0913" ry="18"/>
<text text-anchor="middle" x="365.295" y="-14.8" font-family="Times,serif" font-size="14.00">compilador</text>
</g>
<!-- compilador&#45;&gt;compilador -->
<g id="edge2" class="edge"><title>compilador&#45;&gt;compilador</title>
<path fill="none" stroke="black" d="M338.704,-34.416C331.768,-44.6504 340.631,-54.5 365.295,-54.5 381.481,-54.5 390.862,-50.2581 393.439,-44.4494"/>
<polygon fill="black" stroke="black" points="396.874,-43.7632 391.886,-34.416 389.957,-44.8336 396.874,-43.7632"/>
<text text-anchor="middle" x="365.295" y="-58.3" font-family="Times,serif" font-size="14.00">(2) todo se transforma en código máquina</text>
</g>
<!-- processor -->
<g id="node2" class="node"><title>processor</title>
<ellipse fill="none" stroke="black" cx="681.936" cy="-18.5" rx="51.1914" ry="18"/>
<text text-anchor="middle" x="681.936" y="-14.8" font-family="Times,serif" font-size="14.00">procesador</text>
</g>
<!-- compilador&#45;&gt;processor -->
<g id="edge3" class="edge"><title>compilador&#45;&gt;processor</title>
<path fill="none" stroke="black" d="M418.605,-18.5C474.159,-18.5 561.863,-18.5 620.374,-18.5"/>
<polygon fill="black" stroke="black" points="620.585,-22.0001 630.585,-18.5 620.585,-15.0001 620.585,-22.0001"/>
<text text-anchor="middle" x="524.591" y="-22.3" font-family="Times,serif" font-size="14.00">(3) todo se envía al procesador</text>
</g>
<!-- processor&#45;&gt;processor -->
<g id="edge4" class="edge"><title>processor&#45;&gt;processor</title>
<path fill="none" stroke="black" d="M655.264,-34.0414C647.756,-44.4087 656.647,-54.5 681.936,-54.5 698.532,-54.5 708.066,-50.154 710.537,-44.2362"/>
<polygon fill="black" stroke="black" points="713.906,-43.2163 708.608,-34.0414 707.029,-44.5179 713.906,-43.2163"/>
<text text-anchor="middle" x="681.936" y="-58.3" font-family="Times,serif" font-size="14.00">(4) el procesador ejecuta todo</text>
</g>
<!-- program -->
<g id="node3" class="node"><title>program</title>
<polygon fill="none" stroke="black" points="0,-0.5 0,-36.5 107,-36.5 107,-0.5 0,-0.5"/>
<text text-anchor="middle" x="13.5" y="-14.8" font-family="Times,serif" font-size="14.00">A</text>
<polyline fill="none" stroke="black" points="27,-0.5 27,-36.5 "/>
<text text-anchor="middle" x="40" y="-14.8" font-family="Times,serif" font-size="14.00">B</text>
<polyline fill="none" stroke="black" points="53,-0.5 53,-36.5 "/>
<text text-anchor="middle" x="66" y="-14.8" font-family="Times,serif" font-size="14.00">C</text>
<polyline fill="none" stroke="black" points="79,-0.5 79,-36.5 "/>
<text text-anchor="middle" x="93" y="-14.8" font-family="Times,serif" font-size="14.00">...</text>
</g>
<!-- program&#45;&gt;compilador -->
<g id="edge1" class="edge"><title>program&#45;&gt;compilador</title>
<path fill="none" stroke="black" d="M107.053,-18.5C160.875,-18.5 244.537,-18.5 301.739,-18.5"/>
<polygon fill="black" stroke="black" points="301.744,-22.0001 311.744,-18.5 301.744,-15.0001 301.744,-22.0001"/>
<text text-anchor="middle" x="209.5" y="-22.3" font-family="Times,serif" font-size="14.00">(1) todo el programa se envía</text>
</g>
</g>
</svg>
