<?xml version="1.0" encoding="UTF-8" standalone="no"?>
<!DOCTYPE svg PUBLIC "-//W3C//DTD SVG 1.1//EN"
 "http://www.w3.org/Graphics/SVG/1.1/DTD/svg11.dtd">
<!-- Generated by graphviz version 2.38.0 (20140413.2041)
 -->
<!-- Title: %3 Pages: 1 -->
<svg width="635pt" height="143pt"
 viewBox="0.00 0.00 634.68 143.19" xmlns="http://www.w3.org/2000/svg" xmlns:xlink="http://www.w3.org/1999/xlink">
<g id="graph0" class="graph" transform="scale(1 1) rotate(0) translate(4 139.19)">
<title>%3</title>
<!-- interpreter -->
<g id="node1" class="node"><title>interpreter</title>
<ellipse fill="none" stroke="black" cx="279.496" cy="-62.1903" rx="45.4919" ry="18"/>
<text text-anchor="middle" x="279.496" y="-58.4903" font-family="Times,serif" font-size="14.00">intérprete</text>
</g>
<!-- interpreter&#45;&gt;interpreter -->
<g id="edge3" class="edge"><title>interpreter&#45;&gt;interpreter</title>
<path fill="none" stroke="black" d="M260.512,-78.8543C256.293,-88.8153 262.621,-98.1903 279.496,-98.1903 290.307,-98.1903 296.789,-94.3428 298.942,-88.9585"/>
<polygon fill="black" stroke="black" points="302.433,-88.684 298.48,-78.8543 295.441,-89.0038 302.433,-88.684"/>
<text text-anchor="middle" x="279.496" y="-101.99" font-family="Times,serif" font-size="14.00">(2) A se transforma en M</text>
</g>
<!-- processor -->
<g id="node2" class="node"><title>processor</title>
<ellipse fill="none" stroke="black" cx="575.337" cy="-62.1903" rx="51.1914" ry="18"/>
<text text-anchor="middle" x="575.337" y="-58.4903" font-family="Times,serif" font-size="14.00">procesador</text>
</g>
<!-- interpreter&#45;&gt;processor -->
<g id="edge4" class="edge"><title>interpreter&#45;&gt;processor</title>
<path fill="none" stroke="black" d="M325.124,-62.1903C375.454,-62.1903 457.579,-62.1903 513.696,-62.1903"/>
<polygon fill="black" stroke="black" points="513.858,-65.6904 523.858,-62.1903 513.858,-58.6904 513.858,-65.6904"/>
<text text-anchor="middle" x="424.492" y="-65.9903" font-family="Times,serif" font-size="14.00">(3) M se envía al procesador</text>
</g>
<!-- program -->
<g id="node3" class="node"><title>program</title>
<polygon fill="none" stroke="black" points="0,-44.1903 0,-80.1903 107,-80.1903 107,-44.1903 0,-44.1903"/>
<text text-anchor="middle" x="13.5" y="-58.4903" font-family="Times,serif" font-size="14.00">A</text>
<polyline fill="none" stroke="black" points="27,-44.1903 27,-80.1903 "/>
<text text-anchor="middle" x="40" y="-58.4903" font-family="Times,serif" font-size="14.00">B</text>
<polyline fill="none" stroke="black" points="53,-44.1903 53,-80.1903 "/>
<text text-anchor="middle" x="66" y="-58.4903" font-family="Times,serif" font-size="14.00">C</text>
<polyline fill="none" stroke="black" points="79,-44.1903 79,-80.1903 "/>
<text text-anchor="middle" x="93" y="-58.4903" font-family="Times,serif" font-size="14.00">...</text>
</g>
<!-- program&#45;&gt;interpreter -->
<g id="edge1" class="edge"><title>program:f1&#45;&gt;interpreter</title>
<path fill="none" stroke="black" d="M13.5,-81.1903C13.5,-171.131 167.247,-113.032 240.523,-80.2352"/>
<polygon fill="black" stroke="black" points="242.225,-83.3063 249.885,-75.9864 239.332,-76.932 242.225,-83.3063"/>
<text text-anchor="middle" x="170.5" y="-123.99" font-family="Times,serif" font-size="14.00">(1) A se envía</text>
</g>
<!-- program&#45;&gt;interpreter -->
<g id="edge2" class="edge"><title>program:f2&#45;&gt;interpreter</title>
<path fill="none" stroke="black" d="M39.5,-43.1903C39.5,36.5508 173.345,-13.6975 240.709,-44.037"/>
<polygon fill="black" stroke="black" points="239.592,-47.3748 250.141,-48.351 242.503,-41.0089 239.592,-47.3748"/>
<text text-anchor="middle" x="170.5" y="-36.9903" font-family="Times,serif" font-size="14.00">(4) B se envía...</text>
</g>
</g>
</svg>
