<?xml version="1.0" encoding="UTF-8" standalone="no"?>
<!DOCTYPE svg PUBLIC "-//W3C//DTD SVG 1.1//EN"
 "http://www.w3.org/Graphics/SVG/1.1/DTD/svg11.dtd">
<!-- Generated by graphviz version 2.38.0 (20140413.2041)
 -->
<!-- Title: %3 Pages: 1 -->
<svg width="618pt" height="141pt"
 viewBox="0.00 0.00 618.18 141.25" xmlns="http://www.w3.org/2000/svg" xmlns:xlink="http://www.w3.org/1999/xlink">
<g id="graph0" class="graph" transform="scale(1 1) rotate(0) translate(4 137.248)">
<title>%3</title>
<!-- interpreter -->
<g id="node1" class="node"><title>interpreter</title>
<ellipse fill="none" stroke="black" cx="274.196" cy="-61.2481" rx="44.393" ry="18"/>
<text text-anchor="middle" x="274.196" y="-57.5481" font-family="Times,serif" font-size="14.00">intérprete</text>
</g>
<!-- interpreter&#45;&gt;interpreter -->
<g id="edge3" class="edge"><title>interpreter&#45;&gt;interpreter</title>
<path fill="none" stroke="black" d="M255.563,-77.9122C251.423,-87.8731 257.634,-97.2481 274.196,-97.2481 284.806,-97.2481 291.168,-93.4006 293.282,-88.0164"/>
<polygon fill="black" stroke="black" points="296.774,-87.7452 292.829,-77.9122 289.781,-88.059 296.774,-87.7452"/>
<text text-anchor="middle" x="274.196" y="-101.048" font-family="Times,serif" font-size="14.00">(2) A se transforma en M</text>
</g>
<!-- processor -->
<g id="node2" class="node"><title>processor</title>
<ellipse fill="none" stroke="black" cx="560.788" cy="-61.2481" rx="49.2915" ry="18"/>
<text text-anchor="middle" x="560.788" y="-57.5481" font-family="Times,serif" font-size="14.00">procesador</text>
</g>
<!-- interpreter&#45;&gt;processor -->
<g id="edge4" class="edge"><title>interpreter&#45;&gt;processor</title>
<path fill="none" stroke="black" d="M318.419,-61.2481C367.21,-61.2481 446.852,-61.2481 501.206,-61.2481"/>
<polygon fill="black" stroke="black" points="501.385,-64.7482 511.385,-61.2481 501.385,-57.7482 501.385,-64.7482"/>
<text text-anchor="middle" x="414.892" y="-65.0481" font-family="Times,serif" font-size="14.00">(3) M se envía al procesador</text>
</g>
<!-- program -->
<g id="node3" class="node"><title>program</title>
<polygon fill="none" stroke="black" points="0,-43.2481 0,-79.2481 106,-79.2481 106,-43.2481 0,-43.2481"/>
<text text-anchor="middle" x="13" y="-57.5481" font-family="Times,serif" font-size="14.00">A</text>
<polyline fill="none" stroke="black" points="26,-43.2481 26,-79.2481 "/>
<text text-anchor="middle" x="39" y="-57.5481" font-family="Times,serif" font-size="14.00">B</text>
<polyline fill="none" stroke="black" points="52,-43.2481 52,-79.2481 "/>
<text text-anchor="middle" x="65" y="-57.5481" font-family="Times,serif" font-size="14.00">C</text>
<polyline fill="none" stroke="black" points="78,-43.2481 78,-79.2481 "/>
<text text-anchor="middle" x="92" y="-57.5481" font-family="Times,serif" font-size="14.00">...</text>
</g>
<!-- program&#45;&gt;interpreter -->
<g id="edge1" class="edge"><title>program:f1&#45;&gt;interpreter</title>
<path fill="none" stroke="black" d="M13,-80.2481C13,-168.459 163.592,-111.458 235.646,-79.136"/>
<polygon fill="black" stroke="black" points="237.202,-82.2733 244.855,-74.947 234.303,-75.9015 237.202,-82.2733"/>
<text text-anchor="middle" x="168" y="-122.048" font-family="Times,serif" font-size="14.00">(1) A se envía</text>
</g>
<!-- program&#45;&gt;interpreter -->
<g id="edge2" class="edge"><title>program:f2&#45;&gt;interpreter</title>
<path fill="none" stroke="black" d="M39,-42.2481C39,35.7072 169.505,-13.311 235.674,-43.1741"/>
<polygon fill="black" stroke="black" points="234.398,-46.4392 244.947,-47.4238 237.314,-40.0756 234.398,-46.4392"/>
<text text-anchor="middle" x="168" y="-37.0481" font-family="Times,serif" font-size="14.00">(4) B se envía...</text>
</g>
</g>
</svg>
