<?xml version="1.0" encoding="UTF-8" standalone="no"?>
<!DOCTYPE svg PUBLIC "-//W3C//DTD SVG 1.1//EN"
 "http://www.w3.org/Graphics/SVG/1.1/DTD/svg11.dtd">
<!-- Generated by graphviz version 2.38.0 (20140413.2041)
 -->
<!-- Title: %3 Pages: 1 -->
<svg width="586pt" height="116pt"
 viewBox="0.00 0.00 586.28 116.00" xmlns="http://www.w3.org/2000/svg" xmlns:xlink="http://www.w3.org/1999/xlink">
<g id="graph0" class="graph" transform="scale(1 1) rotate(0) translate(4 112)">
<title>%3</title>
<!-- processor -->
<g id="node1" class="node"><title>processor</title>
<polygon fill="none" stroke="black" points="564.278,-36 485.278,-36 485.278,-0 564.278,-0 564.278,-36"/>
<text text-anchor="middle" x="524.778" y="-14.3" font-family="Times,serif" font-size="14.00">procesador</text>
</g>
<!-- vm -->
<g id="node2" class="node"><title>vm</title>
<polygon fill="none" stroke="black" points="578.278,-108 471.278,-108 471.278,-72 578.278,-72 578.278,-108"/>
<text text-anchor="middle" x="524.778" y="-86.3" font-family="Times,serif" font-size="14.00">máquina virtual</text>
</g>
<!-- vm&#45;&gt;processor -->
<g id="edge4" class="edge"><title>vm&#45;&gt;processor</title>
<path fill="none" stroke="black" d="M524.778,-71.5867C524.778,-63.9407 524.778,-54.8916 524.778,-46.4274"/>
<polygon fill="black" stroke="black" points="528.278,-46.1686 524.778,-36.1686 521.278,-46.1687 528.278,-46.1686"/>
<text text-anchor="middle" x="514.278" y="-50.3" font-family="Times,serif" font-size="14.00">ejecuta programa en</text>
</g>
<!-- compile -->
<g id="node3" class="node"><title>compile</title>
<ellipse fill="none" stroke="black" cx="300.884" cy="-31" rx="62.2891" ry="18"/>
<text text-anchor="middle" x="300.884" y="-27.3" font-family="Times,serif" font-size="14.00">código objeto</text>
</g>
<!-- compile&#45;&gt;processor -->
<g id="edge2" class="edge"><title>compile&#45;&gt;processor</title>
<path fill="none" stroke="black" d="M362.224,-27.4649C397.544,-25.3956 441.572,-22.8162 474.741,-20.8729"/>
<polygon fill="black" stroke="black" points="475.325,-24.3448 485.104,-20.2658 474.916,-17.3567 475.325,-24.3448"/>
<text text-anchor="middle" x="417.278" y="-30.8" font-family="Times,serif" font-size="14.00">ejecutado en</text>
</g>
<!-- source -->
<g id="node4" class="node"><title>source</title>
<ellipse fill="none" stroke="black" cx="61.7445" cy="-65" rx="61.99" ry="18"/>
<text text-anchor="middle" x="61.7445" y="-61.3" font-family="Times,serif" font-size="14.00">código fuente</text>
</g>
<!-- source&#45;&gt;vm -->
<g id="edge3" class="edge"><title>source&#45;&gt;vm</title>
<path fill="none" stroke="black" d="M119.913,-71.1928C127.17,-71.8656 134.5,-72.49 141.489,-73 253.816,-81.1967 385.017,-85.9924 460.838,-88.2971"/>
<polygon fill="black" stroke="black" points="461.061,-91.8052 471.161,-88.6058 461.27,-84.8083 461.061,-91.8052"/>
<text text-anchor="middle" x="300.884" y="-88.8" font-family="Times,serif" font-size="14.00">interpretado por</text>
</g>
<!-- source&#45;&gt;compile -->
<g id="edge1" class="edge"><title>source&#45;&gt;compile</title>
<path fill="none" stroke="black" d="M117.447,-57.157C152.33,-52.1557 197.725,-45.6471 234.505,-40.3737"/>
<polygon fill="black" stroke="black" points="235.233,-43.8052 244.635,-38.9213 234.239,-36.8761 235.233,-43.8052"/>
<text text-anchor="middle" x="180.989" y="-57.8" font-family="Times,serif" font-size="14.00">compilado en</text>
</g>
</g>
</svg>
