<?xml version="1.0" encoding="UTF-8" standalone="no"?>
<!DOCTYPE svg PUBLIC "-//W3C//DTD SVG 1.1//EN"
 "http://www.w3.org/Graphics/SVG/1.1/DTD/svg11.dtd">
<!-- Generated by graphviz version 2.38.0 (20140413.2041)
 -->
<!-- Title: %3 Pages: 1 -->
<svg width="564pt" height="116pt"
 viewBox="0.00 0.00 563.58 116.00" xmlns="http://www.w3.org/2000/svg" xmlns:xlink="http://www.w3.org/1999/xlink">
<g id="graph0" class="graph" transform="scale(1 1) rotate(0) translate(4 112)">
<title>%3</title>
<!-- processor -->
<g id="node1" class="node"><title>processor</title>
<polygon fill="none" stroke="black" points="542.079,-36 466.079,-36 466.079,-0 542.079,-0 542.079,-36"/>
<text text-anchor="middle" x="504.079" y="-14.3" font-family="Times,serif" font-size="14.00">procesador</text>
</g>
<!-- vm -->
<g id="node2" class="node"><title>vm</title>
<polygon fill="none" stroke="black" points="555.579,-108 452.579,-108 452.579,-72 555.579,-72 555.579,-108"/>
<text text-anchor="middle" x="504.079" y="-86.3" font-family="Times,serif" font-size="14.00">máquina virtual</text>
</g>
<!-- vm&#45;&gt;processor -->
<g id="edge4" class="edge"><title>vm&#45;&gt;processor</title>
<path fill="none" stroke="black" d="M504.079,-71.5867C504.079,-63.9407 504.079,-54.8916 504.079,-46.4274"/>
<polygon fill="black" stroke="black" points="507.579,-46.1686 504.079,-36.1686 500.579,-46.1687 507.579,-46.1686"/>
<text text-anchor="middle" x="493.579" y="-50.3" font-family="Times,serif" font-size="14.00">ejecuta programa en</text>
</g>
<!-- compile -->
<g id="node3" class="node"><title>compile</title>
<ellipse fill="none" stroke="black" cx="288.434" cy="-31" rx="59.2899" ry="18"/>
<text text-anchor="middle" x="288.434" y="-27.3" font-family="Times,serif" font-size="14.00">código objeto</text>
</g>
<!-- compile&#45;&gt;processor -->
<g id="edge2" class="edge"><title>compile&#45;&gt;processor</title>
<path fill="none" stroke="black" d="M346.687,-27.5162C380.816,-25.4396 423.618,-22.8351 455.813,-20.8761"/>
<polygon fill="black" stroke="black" points="456.1,-24.3652 465.869,-20.2642 455.675,-17.3781 456.1,-24.3652"/>
<text text-anchor="middle" x="400.079" y="-30.8" font-family="Times,serif" font-size="14.00">ejecutado en</text>
</g>
<!-- source -->
<g id="node4" class="node"><title>source</title>
<ellipse fill="none" stroke="black" cx="59.1448" cy="-65" rx="59.2899" ry="18"/>
<text text-anchor="middle" x="59.1448" y="-61.3" font-family="Times,serif" font-size="14.00">código fuente</text>
</g>
<!-- source&#45;&gt;vm -->
<g id="edge3" class="edge"><title>source&#45;&gt;vm</title>
<path fill="none" stroke="black" d="M115.011,-71.1507C122.163,-71.839 129.397,-72.4787 136.29,-73 243.678,-81.1229 369.068,-85.9284 441.931,-88.2573"/>
<polygon fill="black" stroke="black" points="442.187,-91.767 452.292,-88.5831 442.407,-84.7705 442.187,-91.767"/>
<text text-anchor="middle" x="288.434" y="-88.8" font-family="Times,serif" font-size="14.00">interpretado por</text>
</g>
<!-- source&#45;&gt;compile -->
<g id="edge1" class="edge"><title>source&#45;&gt;compile</title>
<path fill="none" stroke="black" d="M112.575,-57.157C145.985,-52.1592 189.457,-45.6563 224.697,-40.3848"/>
<polygon fill="black" stroke="black" points="225.502,-43.8033 234.875,-38.8623 224.467,-36.8804 225.502,-43.8033"/>
<text text-anchor="middle" x="173.79" y="-57.8" font-family="Times,serif" font-size="14.00">compilado en</text>
</g>
</g>
</svg>
