<?xml version="1.0" encoding="UTF-8" standalone="no"?>
<!DOCTYPE svg PUBLIC "-//W3C//DTD SVG 1.1//EN"
 "http://www.w3.org/Graphics/SVG/1.1/DTD/svg11.dtd">
<!-- Generated by graphviz version 2.38.0 (20140413.2041)
 -->
<!-- Title: %3 Pages: 1 -->
<svg width="1053pt" height="98pt"
 viewBox="0.00 0.00 1052.93 98.00" xmlns="http://www.w3.org/2000/svg" xmlns:xlink="http://www.w3.org/1999/xlink">
<g id="graph0" class="graph" transform="scale(1 1) rotate(0) translate(4 94)">
<title>%3</title>
<!-- pull -->
<g id="node1" class="node"><title>pull</title>
<ellipse fill="none" stroke="black" cx="164.689" cy="-18" rx="37.8943" ry="18"/>
<text text-anchor="middle" x="164.689" y="-14.3" font-family="Times,serif" font-size="14.00">git pull</text>
</g>
<!-- merge -->
<g id="node2" class="node"><title>merge</title>
<ellipse fill="none" stroke="black" cx="298.18" cy="-18" rx="33.5952" ry="18"/>
<text text-anchor="middle" x="298.18" y="-14.3" font-family="Times,serif" font-size="14.00">merge</text>
</g>
<!-- pull&#45;&gt;merge -->
<g id="edge2" class="edge"><title>pull&#45;&gt;merge</title>
<path fill="none" stroke="black" d="M202.666,-18C218.644,-18 237.446,-18 254.054,-18"/>
<polygon fill="black" stroke="black" points="254.067,-21.5001 264.067,-18 254.067,-14.5001 254.067,-21.5001"/>
</g>
<!-- editar -->
<g id="node8" class="node"><title>editar</title>
<ellipse fill="none" stroke="black" cx="425.172" cy="-45" rx="31.3957" ry="18"/>
<text text-anchor="middle" x="425.172" y="-41.3" font-family="Times,serif" font-size="14.00">editar</text>
</g>
<!-- merge&#45;&gt;editar -->
<g id="edge3" class="edge"><title>merge&#45;&gt;editar</title>
<path fill="none" stroke="black" d="M329.756,-24.6049C346.63,-28.25 367.748,-32.8117 385.73,-36.6961"/>
<polygon fill="black" stroke="black" points="385.111,-40.143 395.625,-38.8334 386.589,-33.3008 385.111,-40.143"/>
</g>
<!-- commit -->
<g id="node3" class="node"><title>commit</title>
<ellipse fill="none" stroke="black" cx="875.691" cy="-45" rx="51.1914" ry="18"/>
<text text-anchor="middle" x="875.691" y="-41.3" font-family="Times,serif" font-size="14.00">git commit</text>
</g>
<!-- push -->
<g id="node4" class="node"><title>push</title>
<ellipse fill="none" stroke="black" cx="1003.98" cy="-45" rx="40.8928" ry="18"/>
<text text-anchor="middle" x="1003.98" y="-41.3" font-family="Times,serif" font-size="14.00">git push</text>
</g>
<!-- commit&#45;&gt;push -->
<g id="edge8" class="edge"><title>commit&#45;&gt;push</title>
<path fill="none" stroke="black" d="M927.331,-45C935.723,-45 944.421,-45 952.801,-45"/>
<polygon fill="black" stroke="black" points="952.823,-48.5001 962.823,-45 952.823,-41.5001 952.823,-48.5001"/>
</g>
<!-- gulp -->
<g id="node5" class="node"><title>gulp</title>
<ellipse fill="none" stroke="black" cx="298.18" cy="-72" rx="59.5901" ry="18"/>
<text text-anchor="middle" x="298.18" y="-68.3" font-family="Times,serif" font-size="14.00">arrancar gulp</text>
</g>
<!-- gulp&#45;&gt;editar -->
<g id="edge9" class="edge"><title>gulp&#45;&gt;editar</title>
<path fill="none" stroke="black" d="M347.148,-61.6383C359.948,-58.8732 373.61,-55.9221 385.819,-53.2847"/>
<polygon fill="black" stroke="black" points="386.647,-56.6868 395.682,-51.1542 385.169,-49.8446 386.647,-56.6868"/>
</g>
<!-- tests -->
<g id="node6" class="node"><title>tests</title>
<ellipse fill="none" stroke="black" cx="693.454" cy="-45" rx="94.7833" ry="18"/>
<text text-anchor="middle" x="693.454" y="-41.3" font-family="Times,serif" font-size="14.00">pasar tests automáticos</text>
</g>
<!-- tests&#45;&gt;commit -->
<g id="edge7" class="edge"><title>tests&#45;&gt;commit</title>
<path fill="none" stroke="black" d="M788.532,-45C797.174,-45 805.768,-45 813.994,-45"/>
<polygon fill="black" stroke="black" points="814.193,-48.5001 824.193,-45 814.193,-41.5001 814.193,-48.5001"/>
</g>
<!-- planificar -->
<g id="node7" class="node"><title>planificar</title>
<ellipse fill="none" stroke="black" cx="45.496" cy="-18" rx="45.4919" ry="18"/>
<text text-anchor="middle" x="45.496" y="-14.3" font-family="Times,serif" font-size="14.00">planificar</text>
</g>
<!-- planificar&#45;&gt;pull -->
<g id="edge1" class="edge"><title>planificar&#45;&gt;pull</title>
<path fill="none" stroke="black" d="M91.1358,-18C99.5054,-18 108.278,-18 116.716,-18"/>
<polygon fill="black" stroke="black" points="116.793,-21.5001 126.793,-18 116.793,-14.5001 116.793,-21.5001"/>
</g>
<!-- probar -->
<g id="node9" class="node"><title>probar</title>
<ellipse fill="none" stroke="black" cx="527.466" cy="-45" rx="35.194" ry="18"/>
<text text-anchor="middle" x="527.466" y="-41.3" font-family="Times,serif" font-size="14.00">probar</text>
</g>
<!-- editar&#45;&gt;probar -->
<g id="edge4" class="edge"><title>editar&#45;&gt;probar</title>
<path fill="none" stroke="black" d="M454.644,-38.8449C463.842,-38.3075 474.245,-38.1342 484.22,-38.325"/>
<polygon fill="black" stroke="black" points="484.283,-41.8288 494.392,-38.6558 484.511,-34.8325 484.283,-41.8288"/>
</g>
<!-- probar&#45;&gt;tests -->
<g id="edge6" class="edge"><title>probar&#45;&gt;tests</title>
<path fill="none" stroke="black" d="M562.843,-45C570.554,-45 579.125,-45 588.081,-45"/>
<polygon fill="black" stroke="black" points="588.332,-48.5001 598.332,-45 588.332,-41.5001 588.332,-48.5001"/>
</g>
<!-- probar&#45;&gt;editar -->
<g id="edge5" class="edge"><title>probar&#45;&gt;editar</title>
<path fill="none" stroke="black" d="M494.392,-51.3442C485.011,-51.7834 474.656,-51.8661 464.908,-51.5922"/>
<polygon fill="black" stroke="black" points="464.784,-48.0838 454.644,-51.1551 464.486,-55.0775 464.784,-48.0838"/>
</g>
</g>
</svg>
