<?xml version="1.0" encoding="UTF-8" standalone="no"?>
<!DOCTYPE svg PUBLIC "-//W3C//DTD SVG 1.1//EN"
 "http://www.w3.org/Graphics/SVG/1.1/DTD/svg11.dtd">
<!-- Generated by graphviz version 2.38.0 (20140413.2041)
 -->
<!-- Title: %3 Pages: 1 -->
<svg width="634pt" height="67pt"
 viewBox="0.00 0.00 634.26 67.00" xmlns="http://www.w3.org/2000/svg" xmlns:xlink="http://www.w3.org/1999/xlink">
<g id="graph0" class="graph" transform="scale(1 1) rotate(0) translate(4 63)">
<title>%3</title>
<!-- switch1 -->
<g id="node1" class="node"><title>switch1</title>
<ellipse fill="none" stroke="black" cx="69.5438" cy="-18" rx="69.5877" ry="18"/>
<text text-anchor="middle" x="69.5438" y="-14.3" font-family="Times,serif" font-size="14.00">cambiar ventana</text>
</g>
<!-- probar -->
<g id="node5" class="node"><title>probar</title>
<ellipse fill="none" stroke="black" cx="208.885" cy="-41" rx="33.5952" ry="18"/>
<text text-anchor="middle" x="208.885" y="-37.3" font-family="Times,serif" font-size="14.00">probar</text>
</g>
<!-- switch1&#45;&gt;probar -->
<g id="edge3" class="edge"><title>switch1&#45;&gt;probar</title>
<path fill="none" stroke="black" d="M128.391,-27.6874C141.091,-29.8144 154.299,-32.0262 166.216,-34.0219"/>
<polygon fill="black" stroke="black" points="165.87,-37.5127 176.311,-35.7125 167.027,-30.6088 165.87,-37.5127"/>
</g>
<!-- switch2 -->
<g id="node2" class="node"><title>switch2</title>
<ellipse fill="none" stroke="black" cx="348.225" cy="-41" rx="69.5877" ry="18"/>
<text text-anchor="middle" x="348.225" y="-37.3" font-family="Times,serif" font-size="14.00">cambiar ventana</text>
</g>
<!-- editar -->
<g id="node3" class="node"><title>editar</title>
<ellipse fill="none" stroke="black" cx="484.317" cy="-41" rx="30.5947" ry="18"/>
<text text-anchor="middle" x="484.317" y="-37.3" font-family="Times,serif" font-size="14.00">editar</text>
</g>
<!-- switch2&#45;&gt;editar -->
<g id="edge5" class="edge"><title>switch2&#45;&gt;editar</title>
<path fill="none" stroke="black" d="M417.842,-41C426.624,-41 435.369,-41 443.475,-41"/>
<polygon fill="black" stroke="black" points="443.713,-44.5001 453.713,-41 443.713,-37.5001 443.713,-44.5001"/>
</g>
<!-- guardar -->
<g id="node4" class="node"><title>guardar</title>
<ellipse fill="none" stroke="black" cx="588.561" cy="-18" rx="37.8943" ry="18"/>
<text text-anchor="middle" x="588.561" y="-14.3" font-family="Times,serif" font-size="14.00">guardar</text>
</g>
<!-- editar&#45;&gt;guardar -->
<g id="edge1" class="edge"><title>editar&#45;&gt;guardar</title>
<path fill="none" stroke="black" d="M512.985,-34.7759C522.576,-32.6184 533.573,-30.1446 544.123,-27.7713"/>
<polygon fill="black" stroke="black" points="545.053,-31.1497 554.041,-25.5403 543.517,-24.3204 545.053,-31.1497"/>
</g>
<!-- guardar&#45;&gt;switch1 -->
<g id="edge2" class="edge"><title>guardar&#45;&gt;switch1</title>
<path fill="none" stroke="black" d="M550.967,-15.593C539.422,-14.9393 526.615,-14.323 514.864,-14 363.909,-9.85014 326.072,-11.1126 175.088,-14 166.445,-14.1653 157.403,-14.4073 148.409,-14.6919"/>
<polygon fill="black" stroke="black" points="148.176,-11.1977 138.298,-15.0295 148.409,-18.1938 148.176,-11.1977"/>
</g>
<!-- probar&#45;&gt;switch2 -->
<g id="edge4" class="edge"><title>probar&#45;&gt;switch2</title>
<path fill="none" stroke="black" d="M242.781,-41C250.623,-41 259.328,-41 268.271,-41"/>
<polygon fill="black" stroke="black" points="268.436,-44.5001 278.436,-41 268.436,-37.5001 268.436,-44.5001"/>
</g>
</g>
</svg>
