<?xml version="1.0" encoding="UTF-8" standalone="no"?>
<!DOCTYPE svg PUBLIC "-//W3C//DTD SVG 1.1//EN"
 "http://www.w3.org/Graphics/SVG/1.1/DTD/svg11.dtd">
<!-- Generated by graphviz version 2.38.0 (20140413.2041)
 -->
<!-- Title: %3 Pages: 1 -->
<svg width="649pt" height="67pt"
 viewBox="0.00 0.00 648.56 67.00" xmlns="http://www.w3.org/2000/svg" xmlns:xlink="http://www.w3.org/1999/xlink">
<g id="graph0" class="graph" transform="scale(1 1) rotate(0) translate(4 63)">
<title>%3</title>
<!-- switch1 -->
<g id="node1" class="node"><title>switch1</title>
<ellipse fill="none" stroke="black" cx="71.4937" cy="-18" rx="71.4873" ry="18"/>
<text text-anchor="middle" x="71.4937" y="-14.3" font-family="Times,serif" font-size="14.00">cambiar ventana</text>
</g>
<!-- probar -->
<g id="node5" class="node"><title>probar</title>
<ellipse fill="none" stroke="black" cx="214.084" cy="-41" rx="35.194" ry="18"/>
<text text-anchor="middle" x="214.084" y="-37.3" font-family="Times,serif" font-size="14.00">probar</text>
</g>
<!-- switch1&#45;&gt;probar -->
<g id="edge3" class="edge"><title>switch1&#45;&gt;probar</title>
<path fill="none" stroke="black" d="M132.117,-27.7541C144.851,-29.8374 158.064,-31.9989 170.031,-33.9567"/>
<polygon fill="black" stroke="black" points="169.749,-37.457 180.183,-35.6175 170.879,-30.5488 169.749,-37.457"/>
</g>
<!-- switch2 -->
<g id="node2" class="node"><title>switch2</title>
<ellipse fill="none" stroke="black" cx="356.675" cy="-41" rx="71.4873" ry="18"/>
<text text-anchor="middle" x="356.675" y="-37.3" font-family="Times,serif" font-size="14.00">cambiar ventana</text>
</g>
<!-- editar -->
<g id="node3" class="node"><title>editar</title>
<ellipse fill="none" stroke="black" cx="495.366" cy="-41" rx="31.3957" ry="18"/>
<text text-anchor="middle" x="495.366" y="-37.3" font-family="Times,serif" font-size="14.00">editar</text>
</g>
<!-- switch2&#45;&gt;editar -->
<g id="edge5" class="edge"><title>switch2&#45;&gt;editar</title>
<path fill="none" stroke="black" d="M428.423,-41C437.119,-41 445.764,-41 453.793,-41"/>
<polygon fill="black" stroke="black" points="453.945,-44.5001 463.945,-41 453.945,-37.5001 453.945,-44.5001"/>
</g>
<!-- guardar -->
<g id="node4" class="node"><title>guardar</title>
<ellipse fill="none" stroke="black" cx="601.559" cy="-18" rx="38.9931" ry="18"/>
<text text-anchor="middle" x="601.559" y="-14.3" font-family="Times,serif" font-size="14.00">guardar</text>
</g>
<!-- editar&#45;&gt;guardar -->
<g id="edge1" class="edge"><title>editar&#45;&gt;guardar</title>
<path fill="none" stroke="black" d="M524.837,-34.7151C534.517,-32.5783 545.578,-30.1368 556.2,-27.792"/>
<polygon fill="black" stroke="black" points="557.179,-31.1602 566.19,-25.5868 555.67,-24.3247 557.179,-31.1602"/>
</g>
<!-- guardar&#45;&gt;switch1 -->
<g id="edge2" class="edge"><title>guardar&#45;&gt;switch1</title>
<path fill="none" stroke="black" d="M562.551,-15.5509C550.999,-14.9129 538.266,-14.3161 526.563,-14 372.141,-9.82929 333.438,-11.1004 178.987,-14 170.318,-14.1627 161.255,-14.4 152.231,-14.6789"/>
<polygon fill="black" stroke="black" points="151.964,-11.1857 142.084,-15.0098 152.192,-18.1819 151.964,-11.1857"/>
</g>
<!-- probar&#45;&gt;switch2 -->
<g id="edge4" class="edge"><title>probar&#45;&gt;switch2</title>
<path fill="none" stroke="black" d="M249.477,-41C257.332,-41 266.005,-41 274.908,-41"/>
<polygon fill="black" stroke="black" points="275.025,-44.5001 285.025,-41 275.025,-37.5001 275.025,-44.5001"/>
</g>
</g>
</svg>
