<?xml version="1.0" encoding="UTF-8" standalone="no"?>
<!DOCTYPE svg PUBLIC "-//W3C//DTD SVG 1.1//EN"
 "http://www.w3.org/Graphics/SVG/1.1/DTD/svg11.dtd">
<!-- Generated by graphviz version 2.38.0 (20140413.2041)
 -->
<!-- Title: %3 Pages: 1 -->
<svg width="759pt" height="126pt"
 viewBox="0.00 0.00 758.65 126.00" xmlns="http://www.w3.org/2000/svg" xmlns:xlink="http://www.w3.org/1999/xlink">
<g id="graph0" class="graph" transform="scale(1 1) rotate(0) translate(4 122)">
<title>%3</title>
<!-- switch1 -->
<g id="node1" class="node"><title>switch1</title>
<ellipse fill="none" stroke="black" cx="69.5438" cy="-23" rx="69.5877" ry="18"/>
<text text-anchor="middle" x="69.5438" y="-19.3" font-family="Times,serif" font-size="14.00">cambiar ventana</text>
</g>
<!-- recargar -->
<g id="node5" class="node"><title>recargar</title>
<ellipse fill="none" stroke="black" cx="214.734" cy="-46" rx="39.7935" ry="18"/>
<text text-anchor="middle" x="214.734" y="-42.3" font-family="Times,serif" font-size="14.00">recargar</text>
</g>
<!-- switch1&#45;&gt;recargar -->
<g id="edge3" class="edge"><title>switch1&#45;&gt;recargar</title>
<path fill="none" stroke="black" d="M129.198,-32.4213C141.869,-34.4567 155.1,-36.5818 167.23,-38.5303"/>
<polygon fill="black" stroke="black" points="166.696,-41.9893 177.125,-40.1196 167.806,-35.0779 166.696,-41.9893"/>
</g>
<!-- switch2 -->
<g id="node2" class="node"><title>switch2</title>
<ellipse fill="none" stroke="black" cx="472.618" cy="-86" rx="69.5877" ry="18"/>
<text text-anchor="middle" x="472.618" y="-82.3" font-family="Times,serif" font-size="14.00">cambiar ventana</text>
</g>
<!-- editar -->
<g id="node3" class="node"><title>editar</title>
<ellipse fill="none" stroke="black" cx="608.709" cy="-59" rx="30.5947" ry="18"/>
<text text-anchor="middle" x="608.709" y="-55.3" font-family="Times,serif" font-size="14.00">editar</text>
</g>
<!-- switch2&#45;&gt;editar -->
<g id="edge6" class="edge"><title>switch2&#45;&gt;editar</title>
<path fill="none" stroke="black" d="M528.158,-75.0181C542.118,-72.2071 556.827,-69.2452 569.749,-66.6433"/>
<polygon fill="black" stroke="black" points="570.568,-70.0488 579.681,-64.6436 569.186,-63.1865 570.568,-70.0488"/>
</g>
<!-- guardar -->
<g id="node4" class="node"><title>guardar</title>
<ellipse fill="none" stroke="black" cx="712.953" cy="-29" rx="37.8943" ry="18"/>
<text text-anchor="middle" x="712.953" y="-25.3" font-family="Times,serif" font-size="14.00">guardar</text>
</g>
<!-- editar&#45;&gt;guardar -->
<g id="edge1" class="edge"><title>editar&#45;&gt;guardar</title>
<path fill="none" stroke="black" d="M636.305,-51.1962C646.739,-48.1347 658.96,-44.549 670.498,-41.1634"/>
<polygon fill="black" stroke="black" points="671.79,-44.4319 680.4,-38.2579 669.82,-37.7151 671.79,-44.4319"/>
</g>
<!-- guardar&#45;&gt;switch1 -->
<g id="edge2" class="edge"><title>guardar&#45;&gt;switch1</title>
<path fill="none" stroke="black" d="M677.774,-22.2008C631.636,-13.6293 546.771,-3.55271e-15 473.618,-0 327.727,-0 327.727,-0 327.727,-0 264.373,-3.33067e-15 192.587,-7.00979 140.988,-13.2897"/>
<polygon fill="black" stroke="black" points="140.439,-9.83076 130.945,-14.5336 141.3,-16.7777 140.439,-9.83076"/>
</g>
<!-- probar -->
<g id="node6" class="node"><title>probar</title>
<ellipse fill="none" stroke="black" cx="328.727" cy="-100" rx="33.5952" ry="18"/>
<text text-anchor="middle" x="328.727" y="-96.3" font-family="Times,serif" font-size="14.00">probar</text>
</g>
<!-- recargar&#45;&gt;probar -->
<g id="edge4" class="edge"><title>recargar&#45;&gt;probar</title>
<path fill="none" stroke="black" d="M242.559,-58.9343C257.922,-66.3419 277.349,-75.7092 293.769,-83.6261"/>
<polygon fill="black" stroke="black" points="292.507,-86.9035 303.035,-88.0941 295.548,-80.5982 292.507,-86.9035"/>
</g>
<!-- corregir -->
<g id="node7" class="node"><title>corregir</title>
<ellipse fill="none" stroke="black" cx="328.727" cy="-46" rx="38.1938" ry="18"/>
<text text-anchor="middle" x="328.727" y="-42.3" font-family="Times,serif" font-size="14.00">corregir</text>
</g>
<!-- recargar&#45;&gt;corregir -->
<g id="edge7" class="edge"><title>recargar&#45;&gt;corregir</title>
<path fill="none" stroke="black" d="M252.095,-39.6333C261.765,-39.2406 272.33,-39.1497 282.415,-39.3604"/>
<polygon fill="black" stroke="black" points="282.586,-42.8676 292.693,-39.6893 282.81,-35.8712 282.586,-42.8676"/>
</g>
<!-- probar&#45;&gt;switch2 -->
<g id="edge5" class="edge"><title>probar&#45;&gt;switch2</title>
<path fill="none" stroke="black" d="M362.28,-96.7881C372.763,-95.7538 384.846,-94.5616 397.072,-93.3552"/>
<polygon fill="black" stroke="black" points="397.736,-96.8068 407.344,-92.3417 397.049,-89.8406 397.736,-96.8068"/>
</g>
<!-- corregir&#45;&gt;recargar -->
<g id="edge8" class="edge"><title>corregir&#45;&gt;recargar</title>
<path fill="none" stroke="black" d="M292.693,-52.3107C283.007,-52.7355 272.343,-52.8522 262.119,-52.6608"/>
<polygon fill="black" stroke="black" points="262.193,-49.1616 252.095,-52.3667 261.988,-56.1586 262.193,-49.1616"/>
</g>
</g>
</svg>
