<?xml version="1.0" encoding="UTF-8" standalone="no"?>
<!DOCTYPE svg PUBLIC "-//W3C//DTD SVG 1.1//EN"
 "http://www.w3.org/Graphics/SVG/1.1/DTD/svg11.dtd">
<!-- Generated by graphviz version 2.38.0 (20140413.2041)
 -->
<!-- Title: %3 Pages: 1 -->
<svg width="1030pt" height="98pt"
 viewBox="0.00 0.00 1029.53 98.00" xmlns="http://www.w3.org/2000/svg" xmlns:xlink="http://www.w3.org/1999/xlink">
<g id="graph0" class="graph" transform="scale(1 1) rotate(0) translate(4 94)">
<title>%3</title>
<!-- pull -->
<g id="node1" class="node"><title>pull</title>
<ellipse fill="none" stroke="black" cx="160.789" cy="-18" rx="36.2938" ry="18"/>
<text text-anchor="middle" x="160.789" y="-14.3" font-family="Times,serif" font-size="14.00">git pull</text>
</g>
<!-- merge -->
<g id="node2" class="node"><title>merge</title>
<ellipse fill="none" stroke="black" cx="291.031" cy="-18" rx="33.2948" ry="18"/>
<text text-anchor="middle" x="291.031" y="-14.3" font-family="Times,serif" font-size="14.00">merge</text>
</g>
<!-- pull&#45;&gt;merge -->
<g id="edge2" class="edge"><title>pull&#45;&gt;merge</title>
<path fill="none" stroke="black" d="M197.511,-18C212.953,-18 231.149,-18 247.3,-18"/>
<polygon fill="black" stroke="black" points="247.569,-21.5001 257.569,-18 247.569,-14.5001 247.569,-21.5001"/>
</g>
<!-- editar -->
<g id="node8" class="node"><title>editar</title>
<ellipse fill="none" stroke="black" cx="415.423" cy="-45" rx="30.5947" ry="18"/>
<text text-anchor="middle" x="415.423" y="-41.3" font-family="Times,serif" font-size="14.00">editar</text>
</g>
<!-- merge&#45;&gt;editar -->
<g id="edge3" class="edge"><title>merge&#45;&gt;editar</title>
<path fill="none" stroke="black" d="M321.971,-24.6049C338.417,-28.233 358.98,-32.7693 376.535,-36.6419"/>
<polygon fill="black" stroke="black" points="375.95,-40.0969 386.469,-38.8334 377.458,-33.2613 375.95,-40.0969"/>
</g>
<!-- commit -->
<g id="node3" class="node"><title>commit</title>
<ellipse fill="none" stroke="black" cx="857.493" cy="-45" rx="50.0912" ry="18"/>
<text text-anchor="middle" x="857.493" y="-41.3" font-family="Times,serif" font-size="14.00">git commit</text>
</g>
<!-- push -->
<g id="node4" class="node"><title>push</title>
<ellipse fill="none" stroke="black" cx="982.535" cy="-45" rx="38.9931" ry="18"/>
<text text-anchor="middle" x="982.535" y="-41.3" font-family="Times,serif" font-size="14.00">git push</text>
</g>
<!-- commit&#45;&gt;push -->
<g id="edge8" class="edge"><title>commit&#45;&gt;push</title>
<path fill="none" stroke="black" d="M907.83,-45C916.104,-45 924.684,-45 932.938,-45"/>
<polygon fill="black" stroke="black" points="933.173,-48.5001 943.173,-45 933.173,-41.5001 933.173,-48.5001"/>
</g>
<!-- gulp -->
<g id="node5" class="node"><title>gulp</title>
<ellipse fill="none" stroke="black" cx="291.031" cy="-72" rx="57.6901" ry="18"/>
<text text-anchor="middle" x="291.031" y="-68.3" font-family="Times,serif" font-size="14.00">arrancar gulp</text>
</g>
<!-- gulp&#45;&gt;editar -->
<g id="edge9" class="edge"><title>gulp&#45;&gt;editar</title>
<path fill="none" stroke="black" d="M338.651,-61.7154C351.086,-58.9722 364.374,-56.0408 376.294,-53.4112"/>
<polygon fill="black" stroke="black" points="377.35,-56.7625 386.361,-51.1904 375.842,-49.9269 377.35,-56.7625"/>
</g>
<!-- tests -->
<g id="node6" class="node"><title>tests</title>
<ellipse fill="none" stroke="black" cx="678.506" cy="-45" rx="92.8835" ry="18"/>
<text text-anchor="middle" x="678.506" y="-41.3" font-family="Times,serif" font-size="14.00">pasar tests automáticos</text>
</g>
<!-- tests&#45;&gt;commit -->
<g id="edge7" class="edge"><title>tests&#45;&gt;commit</title>
<path fill="none" stroke="black" d="M771.628,-45C780.251,-45 788.827,-45 797.029,-45"/>
<polygon fill="black" stroke="black" points="797.194,-48.5001 807.194,-45 797.194,-41.5001 797.194,-48.5001"/>
</g>
<!-- planificar -->
<g id="node7" class="node"><title>planificar</title>
<ellipse fill="none" stroke="black" cx="44.1961" cy="-18" rx="44.393" ry="18"/>
<text text-anchor="middle" x="44.1961" y="-14.3" font-family="Times,serif" font-size="14.00">planificar</text>
</g>
<!-- planificar&#45;&gt;pull -->
<g id="edge1" class="edge"><title>planificar&#45;&gt;pull</title>
<path fill="none" stroke="black" d="M88.5187,-18C96.8998,-18 105.706,-18 114.158,-18"/>
<polygon fill="black" stroke="black" points="114.24,-21.5001 124.24,-18 114.24,-14.5001 114.24,-21.5001"/>
</g>
<!-- probar -->
<g id="node9" class="node"><title>probar</title>
<ellipse fill="none" stroke="black" cx="515.767" cy="-45" rx="33.5952" ry="18"/>
<text text-anchor="middle" x="515.767" y="-41.3" font-family="Times,serif" font-size="14.00">probar</text>
</g>
<!-- editar&#45;&gt;probar -->
<g id="edge4" class="edge"><title>editar&#45;&gt;probar</title>
<path fill="none" stroke="black" d="M444.341,-38.8449C453.529,-38.2974 463.943,-38.1278 473.89,-38.3361"/>
<polygon fill="black" stroke="black" points="473.901,-41.8385 484.017,-38.69 474.145,-34.8428 473.901,-41.8385"/>
</g>
<!-- probar&#45;&gt;tests -->
<g id="edge6" class="edge"><title>probar&#45;&gt;tests</title>
<path fill="none" stroke="black" d="M549.683,-45C557.507,-45 566.266,-45 575.433,-45"/>
<polygon fill="black" stroke="black" points="575.514,-48.5001 585.514,-45 575.514,-41.5001 575.514,-48.5001"/>
</g>
<!-- probar&#45;&gt;editar -->
<g id="edge5" class="edge"><title>probar&#45;&gt;editar</title>
<path fill="none" stroke="black" d="M484.017,-51.31C474.697,-51.7759 464.345,-51.8718 454.6,-51.5977"/>
<polygon fill="black" stroke="black" points="454.483,-48.0895 444.341,-51.1551 454.181,-55.083 454.483,-48.0895"/>
</g>
</g>
</svg>
