<?xml version="1.0" encoding="UTF-8" standalone="no"?>
<!DOCTYPE svg PUBLIC "-//W3C//DTD SVG 1.1//EN"
 "http://www.w3.org/Graphics/SVG/1.1/DTD/svg11.dtd">
<!-- Generated by graphviz version 2.38.0 (20140413.2041)
 -->
<!-- Title: %3 Pages: 1 -->
<svg width="774pt" height="126pt"
 viewBox="0.00 0.00 774.25 126.00" xmlns="http://www.w3.org/2000/svg" xmlns:xlink="http://www.w3.org/1999/xlink">
<g id="graph0" class="graph" transform="scale(1 1) rotate(0) translate(4 122)">
<title>%3</title>
<!-- switch1 -->
<g id="node1" class="node"><title>switch1</title>
<ellipse fill="none" stroke="black" cx="71.4937" cy="-23" rx="71.4873" ry="18"/>
<text text-anchor="middle" x="71.4937" y="-19.3" font-family="Times,serif" font-size="14.00">cambiar ventana</text>
</g>
<!-- recargar -->
<g id="node5" class="node"><title>recargar</title>
<ellipse fill="none" stroke="black" cx="219.284" cy="-46" rx="40.0939" ry="18"/>
<text text-anchor="middle" x="219.284" y="-42.3" font-family="Times,serif" font-size="14.00">recargar</text>
</g>
<!-- switch1&#45;&gt;recargar -->
<g id="edge3" class="edge"><title>switch1&#45;&gt;recargar</title>
<path fill="none" stroke="black" d="M132.634,-32.4878C145.38,-34.4986 158.663,-36.5941 170.858,-38.518"/>
<polygon fill="black" stroke="black" points="170.387,-41.987 180.81,-40.0881 171.478,-35.0725 170.387,-41.987"/>
</g>
<!-- switch2 -->
<g id="node2" class="node"><title>switch2</title>
<ellipse fill="none" stroke="black" cx="482.367" cy="-86" rx="71.4873" ry="18"/>
<text text-anchor="middle" x="482.367" y="-82.3" font-family="Times,serif" font-size="14.00">cambiar ventana</text>
</g>
<!-- editar -->
<g id="node3" class="node"><title>editar</title>
<ellipse fill="none" stroke="black" cx="621.058" cy="-59" rx="31.3957" ry="18"/>
<text text-anchor="middle" x="621.058" y="-55.3" font-family="Times,serif" font-size="14.00">editar</text>
</g>
<!-- switch2&#45;&gt;editar -->
<g id="edge6" class="edge"><title>switch2&#45;&gt;editar</title>
<path fill="none" stroke="black" d="M539.359,-74.9402C553.437,-72.1593 568.239,-69.2354 581.267,-66.6621"/>
<polygon fill="black" stroke="black" points="582.155,-70.0545 591.287,-64.683 580.798,-63.1872 582.155,-70.0545"/>
</g>
<!-- guardar -->
<g id="node4" class="node"><title>guardar</title>
<ellipse fill="none" stroke="black" cx="727.251" cy="-29" rx="38.9931" ry="18"/>
<text text-anchor="middle" x="727.251" y="-25.3" font-family="Times,serif" font-size="14.00">guardar</text>
</g>
<!-- editar&#45;&gt;guardar -->
<g id="edge1" class="edge"><title>editar&#45;&gt;guardar</title>
<path fill="none" stroke="black" d="M649.433,-51.1179C660.079,-48.0527 672.518,-44.4713 684.247,-41.0942"/>
<polygon fill="black" stroke="black" points="685.236,-44.4516 693.877,-38.3213 683.299,-37.7249 685.236,-44.4516"/>
</g>
<!-- guardar&#45;&gt;switch1 -->
<g id="edge2" class="edge"><title>guardar&#45;&gt;switch1</title>
<path fill="none" stroke="black" d="M691.012,-22.1274C643.896,-13.5517 557.684,-3.55271e-15 483.367,-0 334.227,-0 334.227,-0 334.227,-0 269.974,-3.33067e-15 197.188,-6.96337 144.712,-13.2272"/>
<polygon fill="black" stroke="black" points="144.001,-9.78772 134.496,-14.4683 144.845,-16.7366 144.001,-9.78772"/>
</g>
<!-- probar -->
<g id="node6" class="node"><title>probar</title>
<ellipse fill="none" stroke="black" cx="335.227" cy="-100" rx="35.194" ry="18"/>
<text text-anchor="middle" x="335.227" y="-96.3" font-family="Times,serif" font-size="14.00">probar</text>
</g>
<!-- recargar&#45;&gt;probar -->
<g id="edge4" class="edge"><title>recargar&#45;&gt;probar</title>
<path fill="none" stroke="black" d="M247.576,-58.9343C263.096,-66.2897 282.693,-75.5773 299.323,-83.4586"/>
<polygon fill="black" stroke="black" points="298.183,-86.7914 308.719,-87.9113 301.181,-80.4658 298.183,-86.7914"/>
</g>
<!-- corregir -->
<g id="node7" class="node"><title>corregir</title>
<ellipse fill="none" stroke="black" cx="335.227" cy="-46" rx="39.7935" ry="18"/>
<text text-anchor="middle" x="335.227" y="-42.3" font-family="Times,serif" font-size="14.00">corregir</text>
</g>
<!-- recargar&#45;&gt;corregir -->
<g id="edge7" class="edge"><title>recargar&#45;&gt;corregir</title>
<path fill="none" stroke="black" d="M257.278,-39.6333C266.923,-39.2483 277.444,-39.1533 287.521,-39.3484"/>
<polygon fill="black" stroke="black" points="287.707,-42.8554 297.807,-39.6566 287.917,-35.8585 287.707,-42.8554"/>
</g>
<!-- probar&#45;&gt;switch2 -->
<g id="edge5" class="edge"><title>probar&#45;&gt;switch2</title>
<path fill="none" stroke="black" d="M369.89,-96.7529C380.594,-95.7204 392.902,-94.5332 405.346,-93.3329"/>
<polygon fill="black" stroke="black" points="405.709,-96.8142 415.327,-92.3701 405.037,-89.8465 405.709,-96.8142"/>
</g>
<!-- corregir&#45;&gt;recargar -->
<g id="edge8" class="edge"><title>corregir&#45;&gt;recargar</title>
<path fill="none" stroke="black" d="M297.807,-52.3434C288.197,-52.7399 277.685,-52.8464 267.591,-52.6629"/>
<polygon fill="black" stroke="black" points="267.374,-49.1553 257.278,-52.3667 267.173,-56.1525 267.374,-49.1553"/>
</g>
</g>
</svg>
